<svg width="35" height="35" viewBox="0 0 35 35" fill="none" xmlns="http://www.w3.org/2000/svg">
    <g clip-path="url(#clip0_4626_7764)">
        <path
            d="M33.936 17.1646C33.9373 15.8006 33.6029 14.4572 32.9625 13.253C32.322 12.0487 31.3951 11.0205 30.2634 10.259C29.1317 9.49755 27.8301 9.0262 26.4733 8.88653C25.1165 8.74685 23.7461 8.94315 22.4831 9.4581C21.22 9.97306 20.1031 10.7909 19.2307 11.8394C18.3583 12.8879 17.7573 14.135 17.4807 15.4707C17.204 16.8063 17.2602 18.1895 17.6444 19.4983C18.0285 20.8071 18.7287 22.0013 19.6833 22.9755V31.4173C19.6832 31.6199 19.7348 31.8191 19.8334 31.9961C19.9319 32.173 20.0741 32.3218 20.2464 32.4284C20.4187 32.5349 20.6154 32.5956 20.8177 32.6047C21.0201 32.6138 21.2214 32.571 21.4025 32.4803L25.6219 30.3691L29.8413 32.4803C30.0225 32.571 30.2238 32.6138 30.4262 32.6047C30.6285 32.5956 30.8252 32.5349 30.9975 32.4284C31.1698 32.3218 31.3119 32.173 31.4105 31.9961C31.509 31.8191 31.5607 31.6199 31.5606 31.4173V22.9755C33.0839 21.4251 33.937 19.3382 33.936 17.1646ZM25.6219 11.226C26.7965 11.226 27.9447 11.5743 28.9213 12.2268C29.8979 12.8794 30.659 13.8068 31.1085 14.892C31.558 15.9771 31.6756 17.1712 31.4465 18.3232C31.2173 19.4751 30.6517 20.5333 29.8212 21.3638C28.9906 22.1944 27.9325 22.76 26.7805 22.9891C25.6285 23.2183 24.4345 23.1007 23.3493 22.6512C22.2642 22.2017 21.3367 21.4405 20.6841 20.4639C20.0316 19.4873 19.6833 18.3391 19.6833 17.1646C19.6833 15.5896 20.309 14.0791 21.4227 12.9654C22.5364 11.8516 24.0469 11.226 25.6219 11.226ZM26.1534 27.9788C25.9884 27.8963 25.8065 27.8533 25.6219 27.8533C25.4374 27.8533 25.2554 27.8963 25.0904 27.9788L22.0588 29.4962V24.6755C23.1722 25.2043 24.3893 25.4787 25.6219 25.4787C26.8545 25.4787 28.0717 25.2043 29.1851 24.6755V29.4962L26.1534 27.9788ZM17.3079 26.6664C17.3079 26.9814 17.1827 27.2835 16.96 27.5063C16.7372 27.729 16.4351 27.8541 16.1201 27.8541H3.05514C2.42513 27.8541 1.82092 27.6039 1.37544 27.1584C0.929958 26.7129 0.679688 26.1087 0.679688 25.4787V6.47506C0.679688 5.84505 0.929958 5.24085 1.37544 4.79536C1.82092 4.34988 2.42513 4.09961 3.05514 4.09961H29.1851C29.8151 4.09961 30.4193 4.34988 30.8648 4.79536C31.3103 5.24085 31.5606 5.84505 31.5606 6.47506C31.5606 6.79007 31.4354 7.09217 31.2127 7.31491C30.9899 7.53765 30.6878 7.66279 30.3728 7.66279C30.0578 7.66279 29.7557 7.53765 29.533 7.31491C29.3102 7.09217 29.1851 6.79007 29.1851 6.47506H3.05514V25.4787H16.1201C16.4351 25.4787 16.7372 25.6038 16.96 25.8266C17.1827 26.0493 17.3079 26.3514 17.3079 26.6664ZM14.9324 18.3523C14.9324 18.6673 14.8073 18.9694 14.5845 19.1922C14.3618 19.4149 14.0597 19.54 13.7447 19.54H7.80604C7.49104 19.54 7.18894 19.4149 6.96619 19.1922C6.74345 18.9694 6.61832 18.6673 6.61832 18.3523C6.61832 18.0373 6.74345 17.7352 6.96619 17.5125C7.18894 17.2897 7.49104 17.1646 7.80604 17.1646H13.7447C14.0597 17.1646 14.3618 17.2897 14.5845 17.5125C14.8073 17.7352 14.9324 18.0373 14.9324 18.3523ZM14.9324 13.6014C14.9324 13.9164 14.8073 14.2185 14.5845 14.4413C14.3618 14.664 14.0597 14.7891 13.7447 14.7891H7.80604C7.49104 14.7891 7.18894 14.664 6.96619 14.4413C6.74345 14.2185 6.61832 13.9164 6.61832 13.6014C6.61832 13.2864 6.74345 12.9843 6.96619 12.7616C7.18894 12.5388 7.49104 12.4137 7.80604 12.4137H13.7447C14.0597 12.4137 14.3618 12.5388 14.5845 12.7616C14.8073 12.9843 14.9324 13.2864 14.9324 13.6014Z"
            fill="url(#paint0_linear_4626_7764)" />
    </g>
    <defs>
        <linearGradient id="paint0_linear_4626_7764" x1="33.936" y1="18.3527" x2="0.679687"
            y2="18.3528" gradientUnits="userSpaceOnUse">
            <stop stop-color="#001C54" />
            <stop offset="1" stop-color="#001C54" />
        </linearGradient>
        <clipPath id="clip0_4626_7764">
            <rect width="34.3291" height="34.3291" fill="white" transform="translate(0.181641)" />
        </clipPath>
    </defs>
</svg>
    