<svg width="35" height="35" viewBox="0 0 35 35" fill="none" xmlns="http://www.w3.org/2000/svg">
    <path
        d="M30.1408 4.29102H4.39396C3.63524 4.29102 2.9076 4.59242 2.3711 5.12891C1.8346 5.66541 1.5332 6.39305 1.5332 7.15178V11.4429H4.39396V7.15178H30.1408V27.1771H20.1281V30.0379H30.1408C30.8995 30.0379 31.6272 29.7365 32.1637 29.2C32.7002 28.6635 33.0016 27.9358 33.0016 27.1771V7.15178C33.0016 6.39305 32.7002 5.66541 32.1637 5.12891C31.6272 4.59242 30.8995 4.29102 30.1408 4.29102ZM1.5332 25.7467V30.0379H5.82434C5.82434 28.8998 5.37224 27.8083 4.5675 27.0036C3.76275 26.1988 2.67128 25.7467 1.5332 25.7467ZM1.5332 20.0252V22.886C2.4724 22.886 3.40241 23.0709 4.27012 23.4304C5.13782 23.7898 5.92624 24.3166 6.59036 24.9807C7.25447 25.6448 7.78128 26.4332 8.1407 27.3009C8.50011 28.1686 8.6851 29.0986 8.6851 30.0379H11.5459C11.5459 27.3823 10.491 24.8356 8.61322 22.9578C6.73548 21.0801 4.18873 20.0252 1.5332 20.0252ZM1.5332 14.3037V17.1644C3.22376 17.1644 4.89777 17.4974 6.45965 18.1444C8.02152 18.7913 9.44068 19.7396 10.6361 20.935C11.8315 22.1304 12.7797 23.5495 13.4267 25.1114C14.0736 26.6733 14.4066 28.3473 14.4066 30.0379H17.2674C17.2674 21.3411 10.2156 14.3037 1.5332 14.3037ZM15.837 15.8628V18.7235L20.8433 21.4556L25.8497 18.7235V15.8628L20.8433 18.5948L15.837 15.8628ZM20.8433 8.58215L12.9762 12.8733L20.8433 17.1644L28.7104 12.8733L20.8433 8.58215Z"
        fill="url(#paint0_linear_4626_7751)" />
    <defs>
        <linearGradient id="paint0_linear_4626_7751" x1="33.0016" y1="17.1644" x2="1.5332"
            y2="17.1644" gradientUnits="userSpaceOnUse">
            <stop stop-color="#001C54" />
            <stop offset="1" stop-color="#001C54" />
        </linearGradient>
    </defs>
</svg>
    