<svg xmlns="http://www.w3.org/2000/svg" width="16" height="16" viewBox="0 0 16 16" fill="none">
    <path
        d="M11.9698 6.97178V2.66956C11.9698 2.35523 11.8449 2.05377 11.6226 1.83151C11.4004 1.60924 11.0989 1.48438 10.7846 1.48438H3.67347C3.35914 1.48438 3.05768 1.60924 2.83541 1.83151C2.61315 2.05377 2.48828 2.35523 2.48828 2.66956V12.151C2.48828 12.8088 3.01569 13.3362 3.67347 13.3362H6.70161C7.44828 14.071 8.46754 14.5214 9.59939 14.5214C11.8927 14.5214 13.7475 12.6666 13.7475 10.3733C13.7475 8.96289 13.0424 7.72438 11.9698 6.97178ZM10.7846 2.66956V6.39697C10.4112 6.2903 10.0142 6.22512 9.59939 6.22512C8.96532 6.22512 8.36087 6.37326 7.82161 6.62808V2.66956H10.7846ZM3.67347 2.66956H4.85865V7.4103L6.34013 6.07697L7.28828 6.9303C6.72314 7.30946 6.25997 7.82184 5.93961 8.42227C5.61925 9.02269 5.45153 9.69272 5.45124 10.3733C5.45124 11.0133 5.59939 11.6118 5.85421 12.151H3.67347V2.66956ZM9.59939 13.3362C7.96384 13.3362 6.63643 12.0088 6.63643 10.3733C6.63643 8.73771 7.96384 7.4103 9.59939 7.4103C11.2349 7.4103 12.5624 8.73771 12.5624 10.3733C12.5624 12.0088 11.2349 13.3362 9.59939 13.3362ZM9.89569 10.5214L11.5905 11.5229L11.1461 12.2459L9.0068 10.9659V8.00289H9.89569V10.5214Z"
        fill="#7E8CA8" />
</svg>