<svg width="32" height="32" viewBox="0 0 32 32" fill="none" xmlns="http://www.w3.org/2000/svg">
<path d="M9 15.3C8.6134 15.3 8.3 15.6134 8.3 16C8.3 16.3866 8.6134 16.7 9 16.7V15.3ZM23.495 16.495C23.7683 16.2216 23.7683 15.7784 23.495 15.505L19.0402 11.0503C18.7668 10.7769 18.3236 10.7769 18.0503 11.0503C17.7769 11.3236 17.7769 11.7668 18.0503 12.0402L22.0101 16L18.0503 19.9598C17.7769 20.2332 17.7769 20.6764 18.0503 20.9497C18.3236 21.2231 18.7668 21.2231 19.0402 20.9497L23.495 16.495ZM9 16.7H23V15.3H9V16.7Z" fill="currentColor"/>
</svg>
