<svg xmlns="http://www.w3.org/2000/svg" width="16" height="16" viewBox="0 0 16 16" fill="none">
    <path
        d="M6.39295 2.45901C7.19967 2.00435 7.60238 1.77734 8.04358 1.77734C8.48477 1.77734 8.88749 2.00435 9.69421 2.45901L10.8164 3.09131C11.6533 3.56264 12.072 3.79863 12.3023 4.19301C12.5325 4.58739 12.5325 5.06834 12.5325 6.03025V7.14349C12.5325 8.10539 12.5325 8.58635 12.3016 8.98073C12.072 9.37511 11.6539 9.6111 10.8164 10.0824L9.69421 10.7147C8.88749 11.1694 8.48477 11.3964 8.04358 11.3964C7.60238 11.3964 7.19967 11.1694 6.39295 10.7147L5.27073 10.0824C4.43387 9.6111 4.01512 9.37511 3.7849 8.98073C3.55469 8.58635 3.55469 8.10539 3.55469 7.14349V6.03025C3.55469 5.06834 3.55469 4.58739 3.78554 4.19301C4.01512 3.79863 4.43323 3.56264 5.27073 3.09131L6.39295 2.45901Z"
        stroke="#7E8CA8" stroke-width="1.15556" stroke-linejoin="round" />
    <path
        d="M6.12276 7.01495C6.12276 7.01495 6.60372 7.01495 7.08467 7.86977C7.08467 7.86977 8.61217 5.73241 9.97038 5.30469M11.1779 10.1142L11.6075 12.1727C11.8833 13.495 12.0218 14.1561 11.7377 14.4697C11.4543 14.7833 10.9618 14.514 9.97679 13.9747L8.51855 13.1763C8.28577 13.0493 8.1697 12.9852 8.04657 12.9852C7.92345 12.9852 7.80738 13.0493 7.5746 13.1763L6.11635 13.9747C5.13136 14.5133 4.63886 14.7833 4.35542 14.4697C4.07198 14.1561 4.20985 13.495 4.4856 12.1727L4.91525 10.1142"
        stroke="#7E8CA8" stroke-width="1.15556" stroke-linecap="round" stroke-linejoin="round" />
</svg>