<svg width="16" height="16" viewBox="0 0 16 16" fill="none" xmlns="http://www.w3.org/2000/svg">
    <g clip-path="url(#clip0_8455_21835)">
        <path
            d="M8.00087 11.5558V3.85207M8.00087 3.85207C8.00086 3.57938 8.06358 3.31033 8.18418 3.06576C8.30478 2.82118 8.48003 2.60762 8.69637 2.44161C8.91272 2.2756 9.16435 2.16158 9.4318 2.10838C9.69926 2.05518 9.97537 2.06422 10.2388 2.1348C10.5022 2.20538 10.7458 2.33561 10.9508 2.51541C11.1559 2.69521 11.3168 2.91977 11.4211 3.17172C11.5255 3.42366 11.5705 3.69623 11.5526 3.96834C11.5348 4.24045 11.4546 4.50481 11.3182 4.74096M8.00087 3.85207C8.00088 3.57938 7.93816 3.31033 7.81756 3.06576C7.69695 2.82118 7.5217 2.60762 7.30536 2.44161C7.08902 2.2756 6.83739 2.16158 6.56993 2.10838C6.30248 2.05518 6.02637 2.06422 5.76296 2.1348C5.49956 2.20538 5.25592 2.33561 5.0509 2.51541C4.84588 2.69521 4.68497 2.91977 4.58062 3.17172C4.47627 3.42366 4.43128 3.69623 4.44912 3.96834C4.46697 4.24045 4.54717 4.50481 4.68353 4.74096M9.77865 8.59282C9.26593 8.44294 8.81559 8.13096 8.49509 7.70363C8.17459 7.2763 8.00119 6.75661 8.00087 6.22245C8.00055 6.75661 7.82715 7.2763 7.50665 7.70363C7.18615 8.13096 6.7358 8.44294 6.22309 8.59282"
            stroke="#7E8CA8" stroke-width="1.33333" stroke-linecap="round" stroke-linejoin="round" />
        <path
            d="M11.5508 3.92578C11.8991 4.01534 12.2225 4.183 12.4964 4.41604C12.7704 4.64908 12.9877 4.94141 13.1319 5.27088C13.2761 5.60034 13.3435 5.95831 13.3289 6.31767C13.3143 6.67703 13.2181 7.02836 13.0477 7.34504"
            stroke="#7E8CA8" stroke-width="1.33333" stroke-linecap="round" stroke-linejoin="round" />
        <path
            d="M11.5547 11.5559C12.0765 11.5559 12.5837 11.3837 12.9976 11.0661C13.4116 10.7484 13.7091 10.3031 13.8442 9.79906C13.9792 9.29506 13.9442 8.76058 13.7445 8.27851C13.5449 7.79644 13.1917 7.39373 12.7399 7.13281"
            stroke="#7E8CA8" stroke-width="1.33333" stroke-linecap="round" stroke-linejoin="round" />
        <path
            d="M12.7197 11.25C12.7613 11.5713 12.7365 11.8978 12.6469 12.2091C12.5573 12.5205 12.4049 12.8102 12.199 13.0603C11.9931 13.3105 11.738 13.5158 11.4497 13.6635C11.1613 13.8112 10.8457 13.8983 10.5224 13.9192C10.1991 13.9402 9.87491 13.8947 9.56988 13.7855C9.26484 13.6763 8.98544 13.5057 8.74892 13.2842C8.5124 13.0628 8.32378 12.7952 8.19472 12.498C8.06566 12.2009 7.9989 11.8804 7.99855 11.5564C7.99821 11.8804 7.93144 12.2009 7.80238 12.498C7.67332 12.7952 7.48471 13.0628 7.24819 13.2842C7.01167 13.5057 6.73226 13.6763 6.42723 13.7855C6.12219 13.8947 5.798 13.9402 5.47469 13.9192C5.15137 13.8983 4.83578 13.8112 4.54742 13.6635C4.25906 13.5158 4.00405 13.3105 3.79813 13.0603C3.59221 12.8102 3.43976 12.5205 3.35019 12.2091C3.26062 11.8978 3.23584 11.5713 3.27737 11.25"
            stroke="#7E8CA8" stroke-width="1.33333" stroke-linecap="round" stroke-linejoin="round" />
        <path
            d="M4.44449 11.5559C3.92271 11.5559 3.41551 11.3837 3.00156 11.0661C2.58761 10.7484 2.29004 10.3031 2.15499 9.79906C2.01994 9.29506 2.05497 8.76058 2.25463 8.27851C2.45429 7.79644 2.80744 7.39373 3.2593 7.13281"
            stroke="#7E8CA8" stroke-width="1.33333" stroke-linecap="round" stroke-linejoin="round" />
        <path
            d="M4.44415 3.92578C4.09583 4.01534 3.77245 4.183 3.49851 4.41604C3.22458 4.64908 3.00726 4.94141 2.86303 5.27088C2.71879 5.60034 2.65142 5.95831 2.66602 6.31767C2.68061 6.67703 2.77679 7.02836 2.94727 7.34504"
            stroke="#7E8CA8" stroke-width="1.33333" stroke-linecap="round" stroke-linejoin="round" />
    </g>
    <defs>
        <clipPath id="clip0_8455_21835">
            <rect width="16" height="16" fill="white" />
        </clipPath>
    </defs>
</svg>