<svg xmlns="http://www.w3.org/2000/svg" width="12" height="12" viewBox="0 0 12 12" fill="none">
    <g clip-path="url(#clip0_9_22372)">
        <path
            d="M9.75 0.642578H8.25V-0.107422H7.5V0.642578H4.5V-0.107422H3.75V0.642578H2.25C1.8375 0.642578 1.5 0.980078 1.5 1.39258V10.6069C1.5 11.0194 1.8375 11.3569 2.25 11.3569H9.75C10.1625 11.3569 10.5 11.0194 10.5 10.6069V1.39258C10.5 0.980078 10.1625 0.642578 9.75 0.642578ZM9.75 10.6069H2.25V3.64258H9.75V10.6069ZM9.75 2.89258H2.25V1.39258H3.75V2.14258H4.5V1.39258H7.5V2.14258H8.25V1.39258H9.75V2.89258Z"
            fill="#BDC4D2" />
    </g>
    <defs>
        <clipPath id="clip0_9_22372">
            <rect width="12" height="12" fill="white" />
        </clipPath>
    </defs>
</svg>