<svg width="16" height="16" viewBox="0 0 16 16" fill="none" xmlns="http://www.w3.org/2000/svg">
    <path
        d="M8 10.667C9.10457 10.667 10 9.77156 10 8.66699C10 7.56242 9.10457 6.66699 8 6.66699C6.89543 6.66699 6 7.56242 6 8.66699C6 9.77156 6.89543 10.667 8 10.667Z"
        stroke="currentColor" stroke-width="1.3" />
    <path
        d="M1.33203 8.90936C1.33203 6.86603 1.33203 5.8447 1.83136 5.11136C2.04814 4.79247 2.32593 4.51966 2.6487 4.3087C3.1287 3.99336 3.73003 3.8807 4.6507 3.8407C5.09003 3.8407 5.46803 3.51403 5.55403 3.0907C5.61975 2.78061 5.79052 2.50272 6.03747 2.304C6.28441 2.10527 6.5924 1.9979 6.90936 2.00003H9.08803C9.7467 2.00003 10.314 2.4567 10.4434 3.0907C10.5294 3.51403 10.9074 3.8407 11.3467 3.8407C12.2667 3.8807 12.868 3.99403 13.3487 4.3087C13.672 4.5207 13.95 4.79336 14.166 5.11136C14.6654 5.8447 14.6654 6.86603 14.6654 8.90936C14.6654 10.952 14.6654 11.9734 14.166 12.7074C13.9489 13.0259 13.6712 13.2987 13.3487 13.51C12.6014 14 11.5607 14 9.48003 14H6.51736C4.4367 14 3.39603 14 2.6487 13.51C2.32639 13.2984 2.04889 13.0255 1.83203 12.7067C1.68754 12.4908 1.5809 12.2518 1.5167 12M12.6654 6.6667H11.9987"
        stroke="currentColor" stroke-width="1.3" stroke-linecap="round" />
</svg>
    