<svg width="12" height="12" viewBox="0 0 12 12" fill="none" xmlns="http://www.w3.org/2000/svg">
    <g clip-path="url(#clip0_9_22511)">
        <path
            d="M10.8438 3.85742H8.96875V4.60742H10.8438V6.85742H8.21875V7.60742H9.34375V8.41067C8.99025 8.50194 8.68218 8.71901 8.47727 9.02118C8.27237 9.32334 8.1847 9.68987 8.23071 10.052C8.27671 10.4142 8.45322 10.7472 8.72716 10.9885C9.0011 11.2299 9.35366 11.363 9.71875 11.363C10.0838 11.363 10.4364 11.2299 10.7103 10.9885C10.9843 10.7472 11.1608 10.4142 11.2068 10.052C11.2528 9.68987 11.1651 9.32334 10.9602 9.02118C10.7553 8.71901 10.4472 8.50194 10.0938 8.41067V7.60742H10.8438C11.0426 7.60712 11.2332 7.52801 11.3738 7.38742C11.5143 7.24684 11.5935 7.05624 11.5938 6.85742V4.60742C11.5936 4.40857 11.5145 4.21792 11.3739 4.07731C11.2333 3.9367 11.0426 3.85762 10.8438 3.85742ZM10.4688 9.85742C10.4688 10.0058 10.4248 10.1508 10.3424 10.2741C10.2599 10.3974 10.1428 10.4936 10.0058 10.5503C9.86872 10.6071 9.71792 10.622 9.57243 10.593C9.42695 10.5641 9.29331 10.4926 9.18842 10.3878C9.08353 10.2829 9.0121 10.1492 8.98316 10.0037C8.95422 9.85825 8.96907 9.70745 9.02584 9.57041C9.08261 9.43336 9.17873 9.31623 9.30207 9.23382C9.42541 9.15141 9.57041 9.10742 9.71875 9.10742C9.91757 9.10772 10.1082 9.18683 10.2488 9.32742C10.3893 9.46801 10.4685 9.6586 10.4688 9.85742ZM7.09375 2.35742H5.21875V3.10742H7.09375V5.35742H4.46875V6.10742H5.59375V8.41067C5.24025 8.50194 4.93218 8.71901 4.72727 9.02118C4.52237 9.32334 4.4347 9.68987 4.48071 10.052C4.52671 10.4142 4.70322 10.7472 4.97716 10.9885C5.2511 11.2299 5.60366 11.363 5.96875 11.363C6.33384 11.363 6.6864 11.2299 6.96034 10.9885C7.23428 10.7472 7.41079 10.4142 7.45679 10.052C7.5028 9.68987 7.41513 9.32334 7.21023 9.02118C7.00532 8.71901 6.69725 8.50194 6.34375 8.41067V6.10742H7.09375C7.2926 6.10722 7.48325 6.02814 7.62386 5.88753C7.76447 5.74692 7.84355 5.55627 7.84375 5.35742V3.10742C7.84355 2.90857 7.76447 2.71792 7.62386 2.57731C7.48325 2.4367 7.2926 2.35762 7.09375 2.35742ZM6.71875 9.85742C6.71875 10.0058 6.67476 10.1508 6.59235 10.2741C6.50994 10.3974 6.39281 10.4936 6.25576 10.5503C6.11872 10.6071 5.96792 10.622 5.82243 10.593C5.67695 10.5641 5.54331 10.4926 5.43842 10.3878C5.33353 10.2829 5.2621 10.1492 5.23316 10.0037C5.20422 9.85825 5.21907 9.70745 5.27584 9.57041C5.33261 9.43336 5.42874 9.31623 5.55207 9.23382C5.67541 9.15141 5.82041 9.10742 5.96875 9.10742C6.16757 9.10772 6.35816 9.18683 6.49875 9.32742C6.63934 9.46801 6.71845 9.6586 6.71875 9.85742ZM3.34375 0.857422H1.09375C0.894899 0.85762 0.704248 0.936702 0.563639 1.07731C0.42303 1.21792 0.343949 1.40857 0.34375 1.60742V3.85742C0.343949 4.05627 0.42303 4.24692 0.563639 4.38753C0.704248 4.52814 0.894899 4.60722 1.09375 4.60742H1.84375V8.41067C1.49025 8.50194 1.18218 8.71901 0.977274 9.02118C0.77237 9.32334 0.684703 9.68987 0.730705 10.052C0.776708 10.4142 0.953223 10.7472 1.22716 10.9885C1.5011 11.2299 1.85366 11.363 2.21875 11.363C2.58384 11.363 2.9364 11.2299 3.21034 10.9885C3.48428 10.7472 3.66079 10.4142 3.70679 10.052C3.7528 9.68987 3.66513 9.32334 3.46023 9.02118C3.25532 8.71901 2.94725 8.50194 2.59375 8.41067V4.60742H3.34375C3.5426 4.60722 3.73325 4.52814 3.87386 4.38753C4.01447 4.24692 4.09355 4.05627 4.09375 3.85742V1.60742C4.09355 1.40857 4.01447 1.21792 3.87386 1.07731C3.73325 0.936702 3.5426 0.85762 3.34375 0.857422ZM2.96875 9.85742C2.96875 10.0058 2.92476 10.1508 2.84235 10.2741C2.75994 10.3974 2.64281 10.4936 2.50576 10.5503C2.36872 10.6071 2.21792 10.622 2.07243 10.593C1.92695 10.5641 1.79331 10.4926 1.68842 10.3878C1.58353 10.2829 1.5121 10.1492 1.48316 10.0037C1.45422 9.85825 1.46907 9.70745 1.52584 9.57041C1.58261 9.43336 1.67874 9.31623 1.80207 9.23382C1.92541 9.15141 2.07041 9.10742 2.21875 9.10742C2.4176 9.10762 2.60825 9.1867 2.74886 9.32731C2.88947 9.46792 2.96855 9.65857 2.96875 9.85742ZM1.09375 3.85742V1.60742H3.34375L3.3445 3.85742H1.09375Z"
            fill="currentColor" />
    </g>
    <defs>
        <clipPath id="clip0_9_22511">
            <rect width="12" height="12" fill="white" />
        </clipPath>
    </defs>
</svg>
    