<svg xmlns="http://www.w3.org/2000/svg" width="12" height="12" viewBox="0 0 12 12" fill="none">
    <g clip-path="url(#clip0_9_18693)">
        <path
            d="M6 11.5C5.23917 11.5 4.52417 11.3555 3.855 11.0666C3.18583 10.7777 2.60375 10.3859 2.10875 9.89125C1.61375 9.39625 1.22197 8.81417 0.9334 8.145C0.644833 7.47583 0.500367 6.76083 0.5 6C0.5 5.23917 0.644467 4.52417 0.9334 3.855C1.22233 3.18583 1.61412 2.60375 2.10875 2.10875C2.60375 1.61375 3.18583 1.22197 3.855 0.9334C4.52417 0.644833 5.23917 0.500367 6 0.5C6.59583 0.5 7.15958 0.587083 7.69125 0.76125C8.22292 0.935417 8.71333 1.17833 9.1625 1.49L8.365 2.30125C8.01667 2.08125 7.64542 1.90947 7.25125 1.7859C6.85708 1.66233 6.44 1.60037 6 1.6C4.78083 1.6 3.74262 2.02863 2.88535 2.8859C2.02808 3.74317 1.59963 4.7812 1.6 6C1.6 7.21917 2.02863 8.25738 2.8859 9.11465C3.74317 9.97192 4.7812 10.4004 6 10.4C7.21917 10.4 8.25738 9.97155 9.11465 9.11465C9.97192 8.25775 10.4004 7.21953 10.4 6C10.4 5.835 10.3908 5.67 10.3725 5.505C10.3542 5.34 10.3267 5.17958 10.29 5.02375L11.1838 4.13C11.2846 4.42333 11.3625 4.72583 11.4175 5.0375C11.4725 5.34917 11.5 5.67 11.5 6C11.5 6.76083 11.3555 7.47583 11.0666 8.145C10.7777 8.81417 10.3859 9.39625 9.89125 9.89125C9.39625 10.3862 8.81417 10.7782 8.145 11.0671C7.47583 11.3561 6.76083 11.5004 6 11.5ZM5.23 8.53L2.8925 6.1925L3.6625 5.4225L5.23 6.99L10.73 1.47625L11.5 2.24625L5.23 8.53Z"
            fill="currentColor" />
    </g>
    <defs>
        <clipPath id="clip0_9_18693">
            <rect width="11" height="11" fill="white" transform="translate(0.5 0.5)" />
        </clipPath>
    </defs>
</svg>