<svg width="16" height="17" viewBox="0 0 16 17" fill="none" xmlns="http://www.w3.org/2000/svg">
    <path
        d="M2 8.3125C2 9.10043 2.15519 9.88065 2.45672 10.6086C2.75825 11.3366 3.20021 11.998 3.75736 12.5551C4.31451 13.1123 4.97595 13.5542 5.7039 13.8558C6.43185 14.1573 7.21207 14.3125 8 14.3125C8.78793 14.3125 9.56815 14.1573 10.2961 13.8558C11.0241 13.5542 11.6855 13.1123 12.2426 12.5551C12.7998 11.998 13.2417 11.3366 13.5433 10.6086C13.8448 9.88065 14 9.10043 14 8.3125C14 6.7212 13.3679 5.19508 12.2426 4.06986C11.1174 2.94464 9.5913 2.3125 8 2.3125C6.4087 2.3125 4.88258 2.94464 3.75736 4.06986C2.63214 5.19508 2 6.7212 2 8.3125Z"
        stroke="#7E8CA8" stroke-width="1.26563" stroke-linecap="round" stroke-linejoin="round" />
    <path d="M7.99609 4.98047V8.3138L9.99609 10.3138" stroke="#7E8CA8" stroke-width="1.26563"
        stroke-linecap="round" stroke-linejoin="round" />
</svg>
    