<svg xmlns="http://www.w3.org/2000/svg" width="32" height="32" viewBox="0 0 32 32" fill="none">
    <path d="M14.3971 10.2663H17.5977C17.5977 9.84186 17.4291 9.43483 17.129 9.13472C16.8288 8.83461 16.4218 8.66602 15.9974 8.66602C15.573 8.66602 15.1659 8.83461 14.8658 9.13472C14.5657 9.43483 14.3971 9.84186 14.3971 10.2663ZM13.1969 10.2663C13.1969 9.89851 13.2694 9.53435 13.4101 9.19459C13.5508 8.85482 13.7571 8.5461 14.0172 8.28605C14.2772 8.02601 14.5859 7.81973 14.9257 7.67899C15.2655 7.53826 15.6296 7.46582 15.9974 7.46582C16.3652 7.46582 16.7293 7.53826 17.0691 7.67899C17.4089 7.81973 17.7176 8.02601 17.9776 8.28605C18.2377 8.5461 18.4439 8.85482 18.5847 9.19459C18.7254 9.53435 18.7979 9.89851 18.7979 10.2663H23.3986C23.5578 10.2663 23.7104 10.3295 23.8229 10.442C23.9355 10.5546 23.9987 10.7072 23.9987 10.8664C23.9987 11.0255 23.9355 11.1782 23.8229 11.2907C23.7104 11.4032 23.5578 11.4665 23.3986 11.4665H22.3424L21.4063 21.1568C21.3345 21.8994 20.9886 22.5885 20.4363 23.0898C19.8839 23.5912 19.1646 23.8688 18.4186 23.8685H13.5762C12.8304 23.8686 12.1112 23.5909 11.559 23.0896C11.0068 22.5882 10.6611 21.8992 10.5893 21.1568L9.65236 11.4665H8.59619C8.43704 11.4665 8.2844 11.4032 8.17186 11.2907C8.05932 11.1782 7.99609 11.0255 7.99609 10.8664C7.99609 10.7072 8.05932 10.5546 8.17186 10.442C8.2844 10.3295 8.43704 10.2663 8.59619 10.2663H13.1969ZM14.7972 14.0669C14.7972 13.9077 14.734 13.7551 14.6214 13.6426C14.5089 13.53 14.3563 13.4668 14.1971 13.4668C14.0379 13.4668 13.8853 13.53 13.7728 13.6426C13.6602 13.7551 13.597 13.9077 13.597 14.0669V20.0679C13.597 20.227 13.6602 20.3797 13.7728 20.4922C13.8853 20.6047 14.0379 20.668 14.1971 20.668C14.3563 20.668 14.5089 20.6047 14.6214 20.4922C14.734 20.3797 14.7972 20.227 14.7972 20.0679V14.0669ZM17.7977 13.4668C17.9568 13.4668 18.1095 13.53 18.222 13.6426C18.3346 13.7551 18.3978 13.9077 18.3978 14.0669V20.0679C18.3978 20.227 18.3346 20.3797 18.222 20.4922C18.1095 20.6047 17.9568 20.668 17.7977 20.668C17.6385 20.668 17.4859 20.6047 17.3734 20.4922C17.2608 20.3797 17.1976 20.227 17.1976 20.0679V14.0669C17.1976 13.9077 17.2608 13.7551 17.3734 13.6426C17.4859 13.53 17.6385 13.4668 17.7977 13.4668ZM11.7839 21.0416C11.8271 21.487 12.0345 21.9004 12.3659 22.2011C12.6973 22.5018 13.1287 22.6684 13.5762 22.6683H18.4186C18.8661 22.6684 19.2975 22.5018 19.6289 22.2011C19.9602 21.9004 20.1677 21.487 20.2109 21.0416L21.1374 11.4665H10.8574L11.7839 21.0416Z" fill="currentColor"/>
  </svg>