<svg xmlns="http://www.w3.org/2000/svg" width="12" height="12" viewBox="0 0 12 12" fill="none">
    <path
        d="M5.25 9.74414H6V10.4941H5.25V9.74414ZM5.625 4.11914C5.88281 4.11914 6.125 4.16797 6.35156 4.26562C6.57812 4.36328 6.77539 4.49805 6.94336 4.66992C7.11133 4.8418 7.24609 5.04102 7.34766 5.26758C7.44922 5.49414 7.5 5.73633 7.5 5.99414C7.5 6.22852 7.46289 6.43359 7.38867 6.60938C7.31445 6.78516 7.22266 6.94141 7.11328 7.07812C7.00391 7.21484 6.88281 7.3418 6.75 7.45898C6.61719 7.57617 6.49805 7.69336 6.39258 7.81055C6.28711 7.92773 6.19336 8.05078 6.11133 8.17969C6.0293 8.30859 5.99219 8.45508 6 8.61914V8.99414H5.25V8.61914C5.25 8.38477 5.28711 8.18164 5.36133 8.00977C5.43555 7.83789 5.52734 7.68164 5.63672 7.54102C5.74609 7.40039 5.86719 7.27148 6 7.1543C6.13281 7.03711 6.25195 6.92188 6.35742 6.80859C6.46289 6.69531 6.55664 6.57227 6.63867 6.43945C6.7207 6.30664 6.75781 6.1582 6.75 5.99414C6.75 5.8418 6.7207 5.69727 6.66211 5.56055C6.60352 5.42383 6.52344 5.30469 6.42188 5.20312C6.32031 5.10156 6.19922 5.01953 6.05859 4.95703C5.91797 4.89453 5.77344 4.86523 5.625 4.86914C5.47266 4.86914 5.32812 4.89844 5.19141 4.95703C5.05469 5.01562 4.93555 5.0957 4.83398 5.19727C4.73242 5.29883 4.65039 5.41992 4.58789 5.56055C4.52539 5.70117 4.49609 5.8457 4.5 5.99414H3.75C3.75 5.73633 3.79883 5.49414 3.89648 5.26758C3.99414 5.04102 4.12695 4.84375 4.29492 4.67578C4.46289 4.50781 4.66211 4.37305 4.89258 4.27148C5.12305 4.16992 5.36719 4.11914 5.625 4.11914ZM10.5 3.2168V12H0.75V0H7.3125L10.5 3.2168ZM7.5293 3H9.22852L7.5293 1.28906V3ZM9.75 11.25V3.75H6.7793V0.75H1.5V11.25H9.75Z"
        fill="#BDC4D2" />
</svg>