<svg width="14" height="14" viewBox="0 0 14 14" fill="none" xmlns="http://www.w3.org/2000/svg">
    <g clip-path="url(#clip0_9_24325)">
        <path fill-rule="evenodd" clip-rule="evenodd"
            d="M4.02804 0.524344C3.96742 0.535967 3.83459 0.584703 3.73287 0.632639C3.49567 0.744424 3.24262 0.989239 3.1368 1.20939C2.99171 1.51118 3.00009 1.27935 3.00009 4.99097C3.00009 7.32336 3.00747 8.39951 3.02402 8.48096C3.06661 8.6906 3.21263 8.95537 3.37654 9.12022C3.54048 9.28505 3.80379 9.43188 4.01226 9.47471C4.17686 9.50853 9.82468 9.50838 9.9882 9.47455C10.2034 9.43004 10.4543 9.29081 10.6206 9.12358C10.7879 8.95526 10.9335 8.69248 10.9764 8.48096C10.9929 8.40022 11.0003 7.51966 11 5.68079C10.9996 2.78646 11.0025 2.86438 10.8826 2.5658C10.7688 2.28252 10.695 2.19118 10.0502 1.53567C9.37958 0.853942 9.24247 0.740601 8.95044 0.62655C8.61693 0.49632 8.65226 0.498009 6.2966 0.50072C5.03521 0.502165 4.09246 0.511988 4.02804 0.524344ZM8.54532 1.24363C8.80462 1.3051 8.87435 1.35911 9.50445 1.9863C10.0674 2.54667 10.1016 2.58549 10.1896 2.76335L10.2821 2.95056L10.2885 5.61908C10.2934 7.67671 10.2887 8.31048 10.2677 8.3876C10.2321 8.51898 10.0338 8.72226 9.90384 8.76071C9.77233 8.79962 4.22813 8.79962 4.09661 8.76071C3.97374 8.72437 3.77019 8.5197 3.73406 8.39613C3.71364 8.32631 3.70734 7.51888 3.70752 4.98482L3.70774 1.66497L3.75976 1.55261C3.82001 1.42251 3.96107 1.29183 4.09151 1.24532C4.23045 1.19578 8.33685 1.19423 8.54532 1.24363ZM5.11599 3.84106C5.00677 3.88057 4.97284 3.91095 4.91876 4.01753C4.83644 4.17977 4.88999 4.35764 5.05519 4.47069L5.12825 4.5207H7.00023H8.87221L8.94527 4.47069C9.05104 4.39831 9.10309 4.31711 9.11566 4.2049C9.13009 4.07614 9.06452 3.94371 8.95126 3.8729L8.8677 3.82066L7.03338 3.81581C5.53771 3.81188 5.18372 3.81652 5.11599 3.84106ZM5.11599 5.26337C5.00677 5.30288 4.97284 5.33326 4.91876 5.43984C4.83644 5.60207 4.88999 5.77995 5.05519 5.893L5.12825 5.94301H7.00023H8.87221L8.94527 5.893C9.05104 5.82062 9.10309 5.73942 9.11566 5.62721C9.13009 5.49845 9.06452 5.36602 8.95126 5.29521L8.8677 5.24296L7.03338 5.23812C5.53771 5.23419 5.18372 5.23883 5.11599 5.26337ZM5.11599 6.68567C5.00677 6.72519 4.97284 6.75557 4.91876 6.86215C4.83644 7.02438 4.88999 7.20226 5.05519 7.31531L5.12825 7.36531H7.00023H8.87221L8.94527 7.31531C9.05104 7.24293 9.10309 7.16173 9.11566 7.04952C9.13009 6.92075 9.06452 6.78832 8.95126 6.71752L8.8677 6.66527L7.03338 6.66043C5.53771 6.65649 5.18372 6.66114 5.11599 6.68567Z"
            fill="#7E8CA8" stroke="#7E8CA8" stroke-width="0.3" />
        <path d="M1 6L1 11.5H3.5" stroke="#7E8CA8" stroke-width="1.2" stroke-linecap="round"
            stroke-linejoin="round" />
        <path d="M13 6V11.5H10.5" stroke="#7E8CA8" stroke-width="1.2" stroke-linecap="round"
            stroke-linejoin="round" />
        <path
            d="M5.51213 12.5121C5.32314 12.3231 5.45699 12 5.72426 12H8.27574C8.54301 12 8.67686 12.3231 8.48787 12.5121L7.21213 13.7879C7.09497 13.905 6.90503 13.905 6.78787 13.7879L5.51213 12.5121Z"
            fill="#7E8CA8" />
        <path d="M7 11V12" stroke="#7E8CA8" stroke-width="1.2" stroke-linecap="round" />
    </g>
    <defs>
        <clipPath id="clip0_9_24325">
            <rect width="14" height="14" fill="white" />
        </clipPath>
    </defs>
</svg>
    