<svg xmlns="http://www.w3.org/2000/svg" width="22" height="22" viewBox="0 0 22 22" fill="none">
    <path
        d="M6.81557 14.7129C6.69251 14.7129 6.57449 14.7618 6.48747 14.8488C6.40045 14.9358 6.35156 15.0538 6.35156 15.1769C6.35156 15.3 6.40045 15.418 6.48747 15.505C6.57449 15.592 6.69251 15.6409 6.81557 15.6409H15.1677C15.2908 15.6409 15.4088 15.592 15.4958 15.505C15.5828 15.418 15.6317 15.3 15.6317 15.1769C15.6317 15.0538 15.5828 14.9358 15.4958 14.8488C15.4088 14.7618 15.2908 14.7129 15.1677 14.7129H6.81557ZM6.35156 17.0329C6.35156 16.9099 6.40045 16.7918 6.48747 16.7048C6.57449 16.6178 6.69251 16.5689 6.81557 16.5689H12.3836C12.5067 16.5689 12.6247 16.6178 12.7118 16.7048C12.7988 16.7918 12.8477 16.9099 12.8477 17.0329C12.8477 17.156 12.7988 17.274 12.7118 17.361C12.6247 17.448 12.5067 17.4969 12.3836 17.4969H6.81557C6.69251 17.4969 6.57449 17.448 6.48747 17.361C6.40045 17.274 6.35156 17.156 6.35156 17.0329Z"
        fill="#FCFCFC" stroke="#FCFCFC" stroke-width="0.185672" />
    <path fill-rule="evenodd" clip-rule="evenodd"
        d="M9.56392 7.11163C9.52867 7.02709 9.4692 6.95487 9.39298 6.90408C9.31677 6.85328 9.22723 6.82617 9.13564 6.82617C9.04405 6.82617 8.95451 6.85328 8.87829 6.90408C8.80208 6.95487 8.7426 7.02709 8.70736 7.11163L6.97105 11.2784C6.96828 11.2848 6.96565 11.2913 6.96316 11.2979L6.38733 12.6797C6.33995 12.7933 6.33963 12.9211 6.38645 13.0349C6.43326 13.1487 6.52338 13.2393 6.63696 13.2866C6.75055 13.334 6.8783 13.3343 6.99212 13.2875C7.10594 13.2407 7.1965 13.1506 7.24388 13.037L7.70511 11.9303H10.5662L11.0274 13.037C11.0748 13.1506 11.1653 13.2407 11.2792 13.2875C11.393 13.3343 11.5207 13.334 11.6343 13.2866C11.7479 13.2393 11.838 13.1487 11.8848 13.0349C11.9316 12.9211 11.9313 12.7933 11.884 12.6797L11.3081 11.2979C11.3056 11.2913 11.303 11.2848 11.3002 11.2784L9.56392 7.11163ZM9.13564 8.49669L10.1797 11.0023H8.09162L9.13564 8.49669Z"
        fill="#FCFCFC" stroke="#FCFCFC" stroke-width="0.185672" />
    <path
        d="M13.7779 9.61035C13.901 9.61035 14.019 9.65924 14.106 9.74626C14.193 9.83327 14.2419 9.9513 14.2419 10.0744V11.0024H15.1699C15.293 11.0024 15.411 11.0513 15.498 11.1383C15.585 11.2253 15.6339 11.3433 15.6339 11.4664C15.6339 11.5894 15.585 11.7075 15.498 11.7945C15.411 11.8815 15.293 11.9304 15.1699 11.9304H14.2419V12.8584C14.2419 12.9815 14.193 13.0995 14.106 13.1865C14.019 13.2735 13.901 13.3224 13.7779 13.3224C13.6548 13.3224 13.5368 13.2735 13.4498 13.1865C13.3628 13.0995 13.3139 12.9815 13.3139 12.8584V11.9304H12.3859C12.2628 11.9304 12.1448 11.8815 12.0578 11.7945C11.9708 11.7075 11.9219 11.5894 11.9219 11.4664C11.9219 11.3433 11.9708 11.2253 12.0578 11.1383C12.1448 11.0513 12.2628 11.0024 12.3859 11.0024H13.3139V10.0744C13.3139 9.9513 13.3628 9.83327 13.4498 9.74626C13.5368 9.65924 13.6548 9.61035 13.7779 9.61035Z"
        fill="#FCFCFC" stroke="#FCFCFC" stroke-width="0.185672" />
    <path fill-rule="evenodd" clip-rule="evenodd"
        d="M17.4922 6.82575L12.8521 1.72168H6.35603C5.86378 1.72168 5.39169 1.91722 5.04362 2.2653C4.69555 2.61337 4.5 3.08546 4.5 3.57771V18.4259C4.5 18.9182 4.69555 19.3903 5.04362 19.7383C5.39169 20.0864 5.86378 20.2819 6.35603 20.2819H15.6362C16.1284 20.2819 16.6005 20.0864 16.9486 19.7383C17.2966 19.3903 17.4922 18.9182 17.4922 18.4259V6.82575ZM12.3881 6.82575C12.3881 6.94882 12.437 7.06684 12.524 7.15386C12.611 7.24087 12.7291 7.28976 12.8521 7.28976H16.5642V18.4259C16.5642 18.672 16.4664 18.9081 16.2924 19.0821C16.1183 19.2562 15.8823 19.3539 15.6362 19.3539H6.35603C6.1099 19.3539 5.87386 19.2562 5.69982 19.0821C5.52579 18.9081 5.42801 18.672 5.42801 18.4259V3.57771C5.42801 3.33158 5.52579 3.09554 5.69982 2.9215C5.87386 2.74747 6.1099 2.64969 6.35603 2.64969H12.3881V6.82575ZM15.8162 6.36175L13.3161 3.61158V6.36175H15.8162Z"
        fill="#FCFCFC" stroke="#FCFCFC" stroke-width="0.185672" />
</svg>