<svg
  xmlns="http://www.w3.org/2000/svg"
  width="24"
  height="24"
  viewBox="0 0 24 24"
  fill="none"
>
<path
    d="M12 10V15"
    stroke="currentColor"
    stroke-width="1.5"
    stroke-linecap="round"
  />
<path
    d="M10.4141 2.75H19C19.1381 2.75 19.25 2.86193 19.25 3V21C19.25 21.1381 19.1381 21.25 19 21.25H5C4.86193 21.25 4.75 21.1381 4.75 21V8.41406C4.75004 8.34781 4.77639 8.28415 4.82324 8.2373L10.2373 2.82324C10.2842 2.77639 10.3478 2.75004 10.4141 2.75Z"
    stroke="currentColor"
    stroke-width="1.5"
  />
<path
    d="M9.84961 7.5C9.84961 7.6933 9.6933 7.84961 9.5 7.84961H5.57031L9.84961 3.57031V7.5Z"
    stroke="currentColor"
    stroke-width="1.3"
  />
<path
    d="M9 17H15"
    stroke="currentColor"
    stroke-width="1.5"
    stroke-linecap="round"
  />
<path
    d="M10 13L12 15L14 13"
    stroke="currentColor"
    stroke-width="1.5"
    stroke-linecap="round"
  />
  </svg>
