<svg width="16" height="16" viewBox="0 0 16 16" fill="none" xmlns="http://www.w3.org/2000/svg">
    <path d="M4.61317 2.10018V4.62001H2.09335L4.61317 2.10018Z" stroke="currentColor"
        stroke-width="0.407409" />
    <path
        d="M11.6455 8.84277C10.1006 8.84277 8.84375 10.0996 8.84375 11.6445C8.84375 13.1893 10.1006 14.4696 11.6455 14.4696C13.1903 14.4696 14.4705 13.1893 14.4705 11.6445C14.4705 10.0996 13.1903 8.84277 11.6455 8.84277ZM12.9437 11.5419L11.5429 12.9427C11.4061 13.0795 11.1844 13.0795 11.0476 12.9427L10.3472 12.2423C10.2104 12.1055 10.2104 11.8839 10.3472 11.7471C10.484 11.6103 10.7056 11.6103 10.8424 11.7471L11.2953 12.1999L12.4485 11.0467C12.5853 10.9099 12.807 10.9099 12.9437 11.0467C13.0805 11.1835 13.0805 11.4051 12.9437 11.5419Z"
        stroke="currentColor" stroke-width="0.407409" />
    <path
        d="M3.45181 9.92299H7.86069C8.43333 8.59464 9.73397 7.66223 11.2475 7.66223V2.73878C11.2475 2.11546 10.7495 1.6084 10.1374 1.6084H5.30205V5.02467C5.30205 5.23293 5.13654 5.40146 4.932 5.40146H1.60156V13.3141C1.60156 13.9375 2.09955 14.4696 2.71171 14.4696H9.0501C8.3325 13.9256 7.80678 13.1078 7.62181 12.1838H3.45181C3.24727 12.1838 3.08176 12.0152 3.08176 11.807C3.08176 11.5987 3.24727 11.4302 3.45181 11.4302H7.54701C7.54701 11.1721 7.57304 10.9202 7.62181 10.6766H3.45181C3.24727 10.6766 3.08176 10.5081 3.08176 10.2998C3.08176 10.0915 3.24727 9.92299 3.45181 9.92299ZM6.41219 3.89428H9.39725C9.60179 3.89428 9.7673 4.06281 9.7673 4.27108C9.7673 4.47934 9.60179 4.64787 9.39725 4.64787H6.41219C6.20766 4.64787 6.04215 4.47934 6.04215 4.27108C6.04215 4.06281 6.20766 3.89428 6.41219 3.89428ZM6.41219 5.40146H9.39725C9.60179 5.40146 9.7673 5.56999 9.7673 5.77825C9.7673 5.98652 9.60179 6.15505 9.39725 6.15505H6.41219C6.20766 6.15505 6.04215 5.98652 6.04215 5.77825C6.04215 5.56999 6.20766 5.40146 6.41219 5.40146ZM3.45181 6.90864H9.39725C9.60179 6.90864 9.7673 7.07717 9.7673 7.28543C9.7673 7.4937 9.60179 7.66223 9.39725 7.66223H3.45181C3.24727 7.66223 3.08176 7.4937 3.08176 7.28543C3.08176 7.07717 3.24727 6.90864 3.45181 6.90864ZM3.45181 8.41581H8.05583C8.26036 8.41581 8.42588 8.58434 8.42588 8.79261C8.42588 9.00088 8.26036 9.1694 8.05583 9.1694H3.45181C3.24727 9.1694 3.08176 9.00088 3.08176 8.79261C3.08176 8.58434 3.24727 8.41581 3.45181 8.41581Z"
        stroke="currentColor" stroke-width="0.407409" />

</svg>
    