<svg xmlns="http://www.w3.org/2000/svg" width="16" height="16" viewBox="0 0 16 16" fill="none">
    <path
        d="M4.52745 15H11.4726C12.8264 15 13.5 14.3143 13.5 12.9561V7.0271C13.5 6.1846 13.4085 5.81906 12.8853 5.28358L9.27518 1.62046C8.7785 1.11089 8.37279 1 7.63391 1H4.52745C3.18028 1 2.5 1.69206 2.5 3.05055V12.9561C2.5 14.3208 3.18028 15 4.52745 15ZM4.57963 13.9488C3.90604 13.9488 3.55279 13.5894 3.55279 12.9366V3.07005C3.55279 2.42368 3.90604 2.05118 4.58632 2.05118H7.48993V5.84525C7.48993 6.66798 7.90848 7.0728 8.71934 7.0728H12.4472V12.9366C12.4472 13.5894 12.1004 13.9488 11.4204 13.9488H4.57963ZM8.8371 6.08653C8.58206 6.08653 8.47714 5.98233 8.47714 5.72099V2.25373L12.2441 6.08681L8.8371 6.08653ZM10.4067 8.86842H5.44267C5.20745 8.86842 5.03752 9.04478 5.03752 9.26683C5.03752 9.49528 5.20773 9.67164 5.44295 9.67164H10.4067C10.4601 9.67251 10.5132 9.66263 10.5628 9.64259C10.6124 9.62255 10.6574 9.59277 10.6953 9.555C10.7331 9.51724 10.7629 9.47227 10.783 9.42276C10.8031 9.37325 10.813 9.32023 10.8121 9.26683C10.8121 9.04478 10.6355 8.86842 10.4067 8.86842ZM10.4067 11.1474H5.44267C5.20745 11.1474 5.03752 11.3302 5.03752 11.5586C5.03752 11.7807 5.20773 11.9506 5.44295 11.9506H10.4067C10.6355 11.9506 10.8121 11.7807 10.8121 11.5586C10.8121 11.3302 10.6355 11.1474 10.4067 11.1474Z"
        fill="#7E8CA8" />
</svg>