<svg width="16" height="16" viewBox="0 0 16 16" fill="none" xmlns="http://www.w3.org/2000/svg">
    <path fill-rule="evenodd" clip-rule="evenodd"
        d="M4.85355 6.64645C4.65829 6.45118 4.34171 6.45118 4.14645 6.64645C3.95118 6.84171 3.95118 7.15829 4.14645 7.35355L7.64645 10.8536C7.84171 11.0488 8.15829 11.0488 8.35355 10.8536L11.8536 7.35355C12.0488 7.15829 12.0488 6.84171 11.8536 6.64645C11.6583 6.45118 11.3417 6.45118 11.1464 6.64645L8.49805 9.29485V3.50049C8.49805 3.22435 8.27419 3.00049 7.99805 3.00049C7.7219 3.00049 7.49805 3.22435 7.49805 3.50049V9.29094L4.85355 6.64645Z"
        fill="currentColor" />
    <path d="M1.5 12V13.5C1.5 14.0523 1.94772 14.5 2.5 14.5H13C13.5523 14.5 14 14.0523 14 13.5V12"
        stroke="currentColor" stroke-linecap="round" />
</svg>
    