<svg width="16" height="17" viewBox="0 0 16 17" fill="none" xmlns="http://www.w3.org/2000/svg">
    <g clip-path="url(#clip0_9_23775)">
        <path fill-rule="evenodd" clip-rule="evenodd"
            d="M8.86453 0.904247C9.12488 0.643897 9.54699 0.643897 9.80734 0.904247L12.474 3.57091C12.7344 3.83126 12.7344 4.25337 12.474 4.51372L5.14068 11.8471C5.01565 11.9721 4.84608 12.0423 4.66927 12.0423H2.0026C1.63441 12.0423 1.33594 11.7438 1.33594 11.3757V8.70898C1.33594 8.53217 1.40618 8.3626 1.5312 8.23758L8.86453 0.904247ZM2.66927 8.98513V10.709H4.39313L11.0598 4.04232L9.33594 2.31846L2.66927 8.98513Z"
            fill="#7E8CA8" />
        <path fill-rule="evenodd" clip-rule="evenodd"
            d="M1.33594 14.7096C1.33594 14.3414 1.63441 14.043 2.0026 14.043H14.0026C14.3708 14.043 14.6693 14.3414 14.6693 14.7096C14.6693 15.0778 14.3708 15.3763 14.0026 15.3763H2.0026C1.63441 15.3763 1.33594 15.0778 1.33594 14.7096Z"
            fill="#7E8CA8" />
    </g>
    <defs>
        <clipPath id="clip0_9_23775">
            <rect width="16" height="16" fill="white" transform="translate(0 0.0429688)" />
        </clipPath>
    </defs>
</svg>
    