<svg width="144" height="144" viewBox="0 0 144 144" fill="none" xmlns="http://www.w3.org/2000/svg">
    <path fill-rule="evenodd" clip-rule="evenodd"
        d="M47.1589 13.4192C43.2075 14.2792 39.4697 17.2846 37.7285 21.0023C37.2129 22.1029 36.6719 23.7038 36.5258 24.5599C36.3364 25.6716 36.2804 39.4276 36.3292 72.6948L36.398 119.273L36.9052 120.595C37.9265 123.259 38.7484 124.551 40.562 126.344C42.6169 128.376 44.6673 129.514 47.2704 130.065C49.6334 130.566 94.7973 130.56 97.1643 130.058C99.8304 129.493 101.781 128.412 103.838 126.36C105.697 124.506 106.655 122.956 107.549 120.351C107.987 119.077 108.002 117.484 108.002 71.7369C108.002 25.9894 107.987 24.3971 107.549 23.1231C106.655 20.518 105.697 18.9677 103.838 17.1134C101.781 15.0616 99.8304 13.9808 97.1643 13.4156C94.8768 12.9309 49.3877 12.934 47.1589 13.4192ZM96.7361 16.3054C99.9748 17.1491 102.721 19.3693 104.057 22.2241C104.917 24.0613 105.248 25.718 105.248 28.1847V30.0679H72.1998H39.1519V28.1847C39.1519 25.718 39.4829 24.0613 40.3426 22.2241C41.6564 19.4169 44.408 17.1651 47.5605 16.3174C49.5507 15.7821 94.6852 15.7711 96.7361 16.3054ZM61.4233 22.4046C61.1599 22.6681 60.9443 23.0991 60.9443 23.3625C60.9443 23.626 61.1599 24.057 61.4233 24.3205C61.8711 24.7683 62.2215 24.7994 66.8115 24.7994C71.4016 24.7994 71.7519 24.7683 72.1998 24.3205C72.4632 24.057 72.6787 23.626 72.6787 23.3625C72.6787 23.0991 72.4632 22.6681 72.1998 22.4046C71.7519 21.9568 71.4016 21.9257 66.8115 21.9257C62.2215 21.9257 61.8711 21.9568 61.4233 22.4046ZM76.7498 22.4046C76.1976 22.9569 76.1657 23.1942 76.5463 23.9172C76.9778 24.7369 77.1886 24.7917 79.9229 24.7958C82.1809 24.7989 82.5562 24.7405 82.9762 24.3205C83.2397 24.057 83.4552 23.626 83.4552 23.3625C83.4552 23.0991 83.2397 22.6681 82.9762 22.4046C82.5552 21.9836 82.1781 21.9257 79.863 21.9257C77.548 21.9257 77.1708 21.9836 76.7498 22.4046ZM105.248 71.7369V110.532H72.1998H39.1519V71.7369V32.9416H72.1998H105.248V71.7369ZM80.7345 48.8606C64.5693 52.9174 64.2283 53.0151 63.4543 53.8068C62.187 55.1028 43.19 80.3811 42.9364 81.1088C42.6509 81.9276 43.0578 82.858 44.0088 83.562L44.675 84.0549L49.8472 82.7708C54.1042 81.7142 55.0544 81.5459 55.2151 81.8206C55.3226 82.004 57.1137 84.6864 59.1952 87.7812C63.4862 94.1608 63.9184 94.589 65.9049 94.4297L67.1533 94.3297L68.4862 96.3326C70.4037 99.2138 70.4434 99.2207 73.5478 97.2168C74.9552 96.3082 76.3202 95.2765 76.5815 94.924C77.0561 94.2834 77.0561 94.2832 76.5436 93.3001C76.1674 92.5784 76.1109 92.2907 76.3307 92.2179C76.4953 92.1636 79.0206 91.5814 81.9424 90.9245C84.864 90.2674 87.5237 89.5535 87.8525 89.3382C88.7081 88.7774 101.183 71.3739 101.467 70.3441C101.63 69.7562 101.62 69.2095 101.435 68.594C101.288 68.1016 99.4429 65.0981 97.3358 61.9193C95.0715 58.5041 93.5752 56.0236 93.6777 55.856C93.7733 55.6998 95.1761 53.8221 96.7955 51.6829C99.8306 47.6733 100.124 47.0396 99.493 45.8602C99.2274 45.3638 98.0436 44.6614 97.5364 44.6992C97.3652 44.7119 89.8044 46.5846 80.7345 48.8606ZM95.2298 48.9267C93.0522 51.9688 77.1196 72.8553 76.8693 72.9961C76.4778 73.2159 66.1247 75.7805 66.017 75.684C65.9753 75.6466 67.4569 73.1929 69.3098 70.2313C71.1628 67.2699 72.6787 64.6005 72.6787 64.2995C72.6787 63.1514 71.3594 62.479 70.4741 63.1756C70.2648 63.3404 68.2879 66.3846 66.0807 69.9408C63.8736 73.4971 61.9885 76.4975 61.8912 76.6083C61.794 76.7192 58.3657 77.6484 54.2728 78.6734C48.5279 80.1117 46.8825 80.4481 47.0566 80.1481C47.1809 79.9342 51.4069 74.324 56.4482 67.6804L65.6141 55.6017L80.2222 51.9599C88.2567 49.9572 95.0262 48.3072 95.2657 48.2933C95.6769 48.2696 95.675 48.3048 95.2298 48.9267ZM96.1525 65.5198C96.4351 66.0476 97.0213 65.1769 87.1961 78.8211L83.9054 83.3908L77.7762 84.7743C72.3298 86.0038 71.5513 86.1268 70.7859 85.8783C70.3122 85.7243 69.6014 85.5684 69.2063 85.5315C68.5542 85.4707 68.3277 85.1788 66.7524 82.3723C65.7978 80.6718 65.0167 79.2246 65.0162 79.1564C65.0157 79.0881 67.7905 78.3438 71.182 77.5026C74.5737 76.6613 77.7513 75.7728 78.2435 75.5281C78.9025 75.2002 79.9081 74.0584 82.0593 71.1947C83.6659 69.0562 86.4783 65.3364 88.3092 62.9285L91.6381 58.5501L93.7635 61.7888C94.9324 63.57 96.0074 65.249 96.1525 65.5198ZM98.4728 69.943C98.3135 70.2373 95.5071 74.1937 92.2368 78.7344L86.2906 86.9906L80.2644 88.3506C74.6453 89.6189 74.2181 89.6828 73.9367 89.298C73.7707 89.071 73.7161 88.813 73.8153 88.7249C73.9147 88.6368 76.4347 88.0223 79.4157 87.3592C82.3967 86.6961 85.1119 85.9726 85.4493 85.7513C85.787 85.5301 88.7812 81.5715 92.1029 76.9544C97.4818 69.4777 98.1763 68.606 98.4527 68.9836C98.6981 69.3194 98.7024 69.5191 98.4728 69.943ZM63.9998 83.4117C65.9264 86.8525 65.9655 86.9538 65.5105 87.33C65.0133 87.7412 63.2182 88.1229 62.8506 87.8956C62.5869 87.7328 58.0177 80.8042 58.1195 80.7216C58.2703 80.5995 61.0895 79.9253 61.543 79.9033C61.9193 79.8849 62.4463 80.6378 63.9998 83.4117ZM71.6494 91.1345C72.598 92.5175 73.3792 93.7029 73.3852 93.7688C73.4003 93.9309 71.2395 95.2868 71.1449 95.1748C70.3915 94.2841 67.8892 90.0107 67.8892 89.6148C67.8892 88.8535 68.3665 88.467 69.2051 88.5494C69.8222 88.61 70.1704 88.9783 71.6494 91.1345ZM65.1151 91.0486C65.2413 91.3774 65.2061 91.3922 64.9012 91.1391C64.4857 90.7943 64.4424 90.6556 64.7504 90.6556C64.8679 90.6556 65.032 90.8326 65.1151 91.0486ZM105.248 115.289C105.248 117.756 104.917 119.412 104.057 121.25C102.721 124.105 99.9748 126.325 96.7361 127.168C94.6179 127.72 49.7816 127.72 47.6634 127.168C44.4247 126.325 41.6787 124.105 40.3426 121.25C39.4829 119.412 39.1519 117.756 39.1519 115.289V113.406H72.1998H105.248V115.289ZM61.4233 118.674C61.1599 118.938 60.9443 119.369 60.9443 119.632C60.9443 119.896 61.1599 120.327 61.4233 120.59C61.8876 121.055 62.2215 121.069 72.4021 121.069C82.27 121.069 82.9259 121.043 83.2983 120.631C83.7988 120.078 83.8089 119.062 83.3184 118.572C82.9877 118.241 81.6663 118.195 72.4222 118.195C62.2215 118.195 61.8876 118.21 61.4233 118.674Z"
        fill="currentColor" />
</svg>