<svg width="144" height="144" viewBox="0 0 144 144" fill="none" xmlns="http://www.w3.org/2000/svg">
    <path fill-rule="evenodd" clip-rule="evenodd"
        d="M107.77 13.4117C100.927 14.8813 94.6929 20.3157 92.1939 26.9881C90.8343 30.618 90.4485 35.2467 91.2061 38.8397C91.4109 39.8103 91.5784 40.6331 91.5784 40.6679C91.5784 40.7024 84.7291 40.7309 76.3577 40.7309C65.5327 40.7309 60.8561 40.8154 60.1645 41.0237C58.8654 41.4145 57.2265 42.8619 56.6572 44.121C56.2791 44.9574 56.1938 45.7918 56.1893 48.698L56.1862 50.6649C56.1851 51.3928 55.4169 51.8638 54.7677 51.5348L53.5648 50.9254C53.4247 50.8544 53.2698 50.8174 53.1127 50.8174L34.2463 50.8199L15.3666 50.8224C15.2181 50.8224 15.0714 50.8555 14.9373 50.9193L13.8859 51.4193C12.3674 52.1417 11.2024 53.3287 10.5169 54.852C10.011 55.9756 10.006 56.3319 10.003 90.9111L10 125.612C10 125.759 10.0326 125.905 10.0954 126.038L10.5942 127.096C11.3134 128.622 12.4949 129.792 14.0114 130.481C15.1157 130.982 15.5703 130.994 34.219 130.994C52.8677 130.994 53.3223 130.982 54.4266 130.481C55.0478 130.198 55.9129 129.621 56.3489 129.199C57.1319 128.439 57.1449 128.436 57.4246 128.961C57.5802 129.253 58.2966 129.831 59.0166 130.246L60.0939 130.866C60.2457 130.954 60.4179 131 60.5932 131L83.0435 130.997C104.482 130.994 105.818 130.968 106.765 130.534C108.08 129.933 109.556 128.265 109.896 126.997C110.081 126.306 110.145 120.107 110.098 107.377C110.022 87.0359 110.111 88.2392 108.574 86.5767L108.413 86.4022C108.157 86.1255 108.178 85.6929 108.459 85.442C108.74 85.1908 109.236 84.4179 109.56 83.7245L110.055 82.6649C110.117 82.5324 110.149 82.3879 110.149 82.2416L110.152 69.4143L110.154 57.3648C110.154 56.8125 110.602 56.3649 111.154 56.3649H112.367C119.918 56.3649 126.586 52.6829 130.762 46.2079C132.925 42.8539 134.003 38.957 134 34.5005C133.998 31.0535 133.363 28.285 131.864 25.1801C129.079 19.4157 123.923 15.1746 117.8 13.6145C114.917 12.8799 110.648 12.7934 107.77 13.4117ZM117.479 16.0486C124.079 17.8858 129.134 23.0045 131.023 29.7619C131.781 32.4764 131.783 36.6986 131.026 39.5425C129.211 46.3622 123.699 51.7643 116.826 53.4598C114.379 54.0637 110.354 54.0153 107.77 53.3511C100.911 51.5885 95.5649 46.217 93.8301 39.344C93.1807 36.771 93.1375 32.6976 93.7337 30.237C95.6041 22.517 101.891 16.7577 109.788 15.5294C111.82 15.2132 115.329 15.45 117.479 16.0486ZM110.233 20.1631C108.595 20.9292 107.62 22.3118 107.447 24.112C107.25 26.1757 107.904 35.6993 108.312 36.6928C109.062 38.5225 110.506 39.4701 112.544 39.4701C113.176 39.4701 114.01 39.3057 114.397 39.1047C115.431 38.5676 116.636 37.0786 116.8 36.1343C117.099 34.4178 117.612 24.5026 117.441 23.7451C117.011 21.8375 115.77 20.4501 113.945 19.8363C112.659 19.4036 111.671 19.4906 110.233 20.1631ZM80.2566 20.8919C80.0079 21.4403 80.1934 21.9076 81.9096 25.0568C82.973 27.0078 84.0004 28.7353 84.193 28.896C84.7354 29.3481 85.7739 28.9646 85.9536 28.2456C86.0741 27.7633 85.6569 26.795 84.1362 24.0257C82.2776 20.6415 82.1152 20.4274 81.3496 20.353C80.6906 20.2892 80.4838 20.3911 80.2566 20.8919ZM114.133 22.7082C114.548 23.0587 114.952 23.6543 115.032 24.032C115.204 24.842 114.552 35.3559 114.29 36.0122C114.095 36.5007 112.925 37.2007 112.304 37.2007C112.093 37.2007 111.578 36.8887 111.161 36.5072L110.701 36.0865C110.509 35.9116 110.393 35.6691 110.377 35.4104L110.05 30.1401C109.667 23.966 109.742 23.323 110.937 22.4822C111.825 21.8569 113.244 21.9572 114.133 22.7082ZM69.2602 23.682C68.5176 24.581 69.0375 25.219 74.7022 30.3608C77.777 33.152 80.4108 35.4355 80.5551 35.4355C81.2329 35.4355 81.7884 34.8735 81.7884 34.1878C81.7884 33.5615 81.03 32.7765 76.256 28.46C73.0921 25.5992 70.4769 23.4253 70.1473 23.382C69.83 23.3403 69.4309 23.4753 69.2602 23.682ZM111.059 41.2448C109.483 41.7186 108.146 43.6242 108.146 45.3959C108.146 48.1679 110.91 50.333 113.48 49.5732C115.445 48.9925 116.681 47.3683 116.681 45.3677C116.681 42.3982 113.931 40.3817 111.059 41.2448ZM76.5168 49.8786C76.5168 55.4678 76.5781 56.5926 76.9077 57.0652C77.1226 57.3736 77.5159 57.6258 77.7818 57.6258C78.0476 57.6258 79.3409 56.6479 80.6557 55.4526C83.4042 52.9542 82.8241 52.9171 86.0317 55.7976C87.1513 56.8032 88.1868 57.6258 88.3331 57.6258C88.4795 57.6258 88.8176 57.5082 89.0847 57.3648C89.5466 57.1164 89.5702 56.7671 89.5702 50.1782V44.2525C89.5702 43.7003 90.0179 43.2525 90.5702 43.2525H91.0379H91.8996C92.2721 43.2525 92.6137 43.4596 92.7861 43.7899L93.3225 44.8177C95.9608 49.8736 101.228 54.1542 106.583 55.5948L106.913 55.6834C107.351 55.8014 107.655 56.2001 107.653 56.6542L107.588 69.3823L107.521 82.4453C107.519 82.7232 107.402 82.9879 107.198 83.176L106.581 83.7439L105.93 84.3428C105.746 84.5127 105.504 84.607 105.253 84.607H83.2857C58.624 84.607 59.9175 84.6913 59.012 83.0268C58.5996 82.2685 58.5685 80.932 58.5685 63.9298C58.5685 46.5077 58.5906 45.6115 59.0387 44.8681C60.0013 43.271 60.0267 43.2667 68.6723 43.2593L75.516 43.2534C76.0686 43.2529 76.5168 43.7008 76.5168 44.2534V49.8786ZM87.3109 48.4657V52.9288C87.3109 53.2214 86.9664 53.3778 86.7461 53.1852C86.4354 52.9136 85.5932 52.1564 84.8742 51.5023C84.1553 50.8482 83.3922 50.3131 83.1786 50.3131C82.9649 50.3131 81.9433 51.0547 80.9085 51.9614L80.686 52.1564C80.0396 52.7227 79.0271 52.2636 79.0271 51.4042V48.4312V44.2525C79.0271 43.7003 79.4748 43.2525 80.0271 43.2525H83.169H86.3109C86.8632 43.2525 87.3109 43.7003 87.3109 44.2525V48.4657ZM113.584 43.8771C114.314 44.3908 114.511 45.3732 114.06 46.25C113.141 48.0348 110.656 47.4039 110.656 45.3861C110.656 43.7972 112.281 42.96 113.584 43.8771ZM27.5668 59.7129C27.5668 66.8614 27.6717 67.4712 28.899 67.451C29.4826 67.4414 29.7675 67.2296 32.5105 64.767L33.5791 63.8076C33.9588 63.4668 34.5342 63.4664 34.9143 63.8069L36.6175 65.3323C37.9231 66.5018 39.2141 67.4553 39.4905 67.4543C40.7396 67.4495 40.7406 67.4432 40.82 60.0147L40.8833 54.0569C40.8892 53.5037 41.3431 53.0604 41.8963 53.0676L46.9701 53.1337C52.8037 53.2096 53.0828 53.2361 53.9747 53.7929C54.4853 54.1121 55.1631 54.793 55.4809 55.3059L55.9086 55.997C56.0064 56.1551 56.0582 56.3373 56.0582 56.5233V90.9111V125.299C56.0582 125.485 56.0064 125.667 55.9086 125.825L55.4809 126.516C55.1631 127.029 54.4853 127.71 53.9747 128.029L53.289 128.457C53.1301 128.557 52.9466 128.609 52.7593 128.609H34.3445C16.4539 128.609 15.6014 128.588 14.6794 128.129C14.1492 127.864 13.415 127.192 13.0477 126.634L12.5441 125.87C12.4369 125.707 12.3795 125.517 12.3791 125.322L12.3135 91.4742C12.268 68.1212 12.3308 57.0158 12.5118 56.3402C12.8311 55.1498 14.213 53.6928 15.3308 53.3685C15.7786 53.2386 18.7149 53.1221 21.856 53.1095L26.5628 53.0908C27.1166 53.0886 27.5668 53.537 27.5668 54.0908V59.7129ZM38.3609 58.2869C38.3609 64.188 38.6097 63.8161 36.1441 61.6016C35.4031 60.9356 34.5589 60.3995 34.2519 60.3995C33.9303 60.3995 32.9852 61.0347 32.0009 61.9125C31.0676 62.7446 30.253 63.4255 30.1905 63.4255C30.128 63.4255 30.077 61.0993 30.077 58.2562V54.0868C30.077 53.5346 30.5248 53.0868 31.077 53.0868H34.219H37.3609C37.9132 53.0868 38.3609 53.5346 38.3609 54.0868V58.2869ZM76.5168 93.9191C76.5168 99.7559 76.5723 100.765 76.9112 101.106C77.6133 101.811 78.3029 101.538 80.2144 99.7998C83.4301 96.8755 82.8311 96.9234 85.5658 99.3726C87.8838 101.449 88.6461 101.825 89.2689 101.199C89.4886 100.979 89.5702 99.0307 89.5702 94.0127V88.1287C89.5702 87.5764 90.0179 87.1287 90.5702 87.1287H97.2345C105.747 87.1287 106.235 87.2056 107.135 88.6896C107.631 89.5066 107.642 89.9138 107.643 107.882C107.644 127.894 107.699 127.119 106.213 128.131C105.536 128.592 104.698 128.609 83.158 128.609C62.2257 128.609 60.7627 128.581 60.1299 128.164C59.7581 127.92 59.2548 127.414 59.0113 127.041C58.5984 126.408 58.5685 125.115 58.5685 107.932C58.5685 87.4063 58.4565 88.7367 60.2765 87.6219C61.0258 87.163 61.5896 87.1304 68.7978 87.1297L75.5167 87.1288C76.069 87.1287 76.5168 87.5765 76.5168 88.1288V93.9191ZM87.3109 92.3288C87.3109 98.2298 87.5597 97.8579 85.0941 95.6434C83.5925 94.2943 82.6727 94.1022 81.89 94.9737C81.627 95.2667 80.8754 95.9579 80.2195 96.5101C79.7478 96.9073 79.0271 96.572 79.0271 95.9554V92.3214V88.1287C79.0271 87.5764 79.4748 87.1287 80.0271 87.1287H83.169H86.3109C86.8632 87.1287 87.3109 87.5764 87.3109 88.1287V92.3288Z"
        fill="currentColor" stroke="currentColor" stroke-width="0.5" />
</svg>