<svg
  width="24"
  height="24"
  viewBox="0 0 24 24"
  fill="none"
  xmlns="http://www.w3.org/2000/svg"
>

    <path
    d="M18.8049 11.6093C18.2642 10.4287 17.3313 9.41002 16.1217 8.67957C14.9121 7.94912 13.479 7.53899 12 7.5C10.521 7.53899 9.08794 7.94912 7.87833 8.67957C6.66871 9.41002 5.73577 10.4287 5.19512 11.6093L5 12L5.19512 12.3915C5.7359 13.5719 6.66891 14.5904 7.87851 15.3207C9.08811 16.051 10.5211 16.4611 12 16.5C13.4789 16.4611 14.9119 16.051 16.1215 15.3207C17.3311 14.5904 18.2641 13.5719 18.8049 12.3915L19 12L18.8049 11.6093ZM12 15C11.3078 15 10.6311 14.8241 10.0555 14.4944C9.47993 14.1648 9.03133 13.6962 8.76642 13.148C8.50151 12.5999 8.4322 11.9967 8.56725 11.4147C8.7023 10.8328 9.03564 10.2982 9.52513 9.87868C10.0146 9.45912 10.6383 9.1734 11.3172 9.05764C11.9961 8.94189 12.6999 9.0013 13.3394 9.22836C13.9789 9.45542 14.5256 9.83994 14.9101 10.3333C15.2947 10.8266 15.5 11.4067 15.5 12C15.4988 12.7953 15.1297 13.5578 14.4736 14.1202C13.8175 14.6826 12.9279 14.999 12 15Z"
    fill="currentColor"
    stroke="currentColor"
    stroke-width="0.428571"
  />
    <path
    d="M17 3H21V7"
    stroke="currentColor"
    stroke-width="1.5"
    stroke-linecap="round"
  />
    <path
    d="M7 3H3V7"
    stroke="currentColor"
    stroke-width="1.5"
    stroke-linecap="round"
  />
    <path
    d="M17 21H21V17"
    stroke="currentColor"
    stroke-width="1.5"
    stroke-linecap="round"
  />
    <path
    d="M7 21H3V17"
    stroke="currentColor"
    stroke-width="1.5"
    stroke-linecap="round"
  />
    <path
    d="M13.5 12C13.5 12.8284 12.8284 13.5 12 13.5C11.1716 13.5 10.5 12.8284 10.5 12C10.5 11.1716 11.1716 10.5 12 10.5C12.8284 10.5 13.5 11.1716 13.5 12Z"
    fill="currentColor"
  />
    </svg>
