<svg width="54" height="54" viewBox="0 0 54 54" fill="none" xmlns="http://www.w3.org/2000/svg">
    <g opacity="0.1">
        <g filter="url(#filter0_i_4621_7609)">
            <path
                d="M25.736 2.7793C28.195 2.7793 29.5855 3.13608 31.219 4.7368L31.408 4.92676L43.8839 17.6052C45.3805 19.1384 45.8549 20.2705 45.9735 22.2675L45.9966 22.7853L46.0063 23.3437L46.0082 44.1607C46.0082 48.768 43.772 51.1392 39.2794 51.2318L39.0017 51.2347H15.0006C10.4376 51.2347 8.08961 48.9773 7.99703 44.4413L7.99414 44.1607V9.87548C7.99414 5.26908 10.2515 2.87573 14.7239 2.78219L15.0006 2.7793H25.736ZM25.2385 6.41755H15.2041C12.9284 6.41755 11.7134 7.62483 11.6362 9.72987L11.6324 9.94394V44.0932C11.6324 46.2802 12.776 47.5144 14.9592 47.5916L15.181 47.5964H38.8214C41.0961 47.5964 42.2909 46.4315 42.3661 44.3082L42.37 44.0932V23.7978H29.4871C26.7649 23.7978 25.3214 22.4758 25.2414 19.7893L25.2385 19.5482V6.41755ZM17.4798 31.7609C18.312 31.7609 18.986 32.4359 18.986 33.2681V43.8174C18.986 44.6486 18.311 45.3236 17.4798 45.3236H15.9726C15.1405 45.3236 14.4655 44.6486 14.4655 43.8164V33.2671C14.4655 32.4359 15.1405 31.7609 15.9726 31.7609H17.4798ZM31.0425 36.2815C31.8747 36.2815 32.5487 36.9565 32.5487 37.7887V43.8164C32.5487 44.6486 31.8737 45.3236 31.0425 45.3236H29.5353C28.7031 45.3236 28.0281 44.6486 28.0281 43.8164V37.7896C28.0281 36.9565 28.7031 36.2815 29.5353 36.2815H31.0425ZM24.2607 27.2403C25.0929 27.2403 25.7679 27.9153 25.7679 28.7465V43.8164C25.7679 44.6486 25.0929 45.3236 24.2607 45.3236H22.7535C21.9213 45.3236 21.2473 44.6486 21.2473 43.8164V28.7475C21.2473 27.9153 21.9223 27.2413 22.7535 27.2413L24.2607 27.2403ZM28.6511 7.11858V19.1191C28.6511 19.9706 28.9712 20.3409 29.7436 20.3814L29.894 20.3852H41.668L28.6511 7.11858Z"
                fill="#7E8CA8" />
        </g>
    </g>
    <defs>
        <filter id="filter0_i_4621_7609" x="7.99414" y="2.7793" width="38.0137" height="48.4551"
            filterUnits="userSpaceOnUse" color-interpolation-filters="sRGB">
            <feFlood flood-opacity="0" result="BackgroundImageFix" />
            <feBlend mode="normal" in="SourceGraphic" in2="BackgroundImageFix" result="shape" />
            <feColorMatrix in="SourceAlpha" type="matrix"
                values="0 0 0 0 0 0 0 0 0 0 0 0 0 0 0 0 0 0 127 0" result="hardAlpha" />
            <feOffset />
            <feGaussianBlur stdDeviation="0.964286" />
            <feComposite in2="hardAlpha" operator="arithmetic" k2="-1" k3="1" />
            <feColorMatrix type="matrix" values="0 0 0 0 0 0 0 0 0 0 0 0 0 0 0 0 0 0 1 0" />
            <feBlend mode="normal" in2="shape" result="effect1_innerShadow_4621_7609" />
        </filter>
    </defs>
</svg>
    