<svg width="16" height="16" viewBox="0 0 16 16" fill="none" xmlns="http://www.w3.org/2000/svg">
    <g clip-path="url(#clip0_9_24040)">
        <path
            d="M1.33203 7.99967C1.33203 4.85701 1.33203 3.28567 2.30803 2.30901C3.28536 1.33301 4.85603 1.33301 7.9987 1.33301C11.1414 1.33301 12.7127 1.33301 13.6887 2.30901C14.6654 3.28634 14.6654 4.85701 14.6654 7.99967C14.6654 11.1423 14.6654 12.7137 13.6887 13.6897C12.7134 14.6663 11.1414 14.6663 7.9987 14.6663C4.85603 14.6663 3.2847 14.6663 2.30803 13.6897C1.33203 12.7143 1.33203 11.1423 1.33203 7.99967Z"
            stroke="currentColor" stroke-width="1.3" />
        <path
            d="M10.6654 6.66667C11.4017 6.66667 11.9987 6.06971 11.9987 5.33333C11.9987 4.59695 11.4017 4 10.6654 4C9.92898 4 9.33203 4.59695 9.33203 5.33333C9.33203 6.06971 9.92898 6.66667 10.6654 6.66667Z"
            stroke="currentColor" stroke-width="1.3" />
        <path
            d="M3.33203 8.87107L3.87203 8.36907C4.16863 8.09346 4.56221 7.94635 4.96687 7.95984C5.37154 7.97333 5.75444 8.14632 6.03203 8.44107L7.7967 10.3144C8.15603 10.6957 8.74336 10.7471 9.1627 10.4344C9.45526 10.216 9.81571 10.1083 10.1801 10.1304C10.5445 10.1525 10.8893 10.303 11.1534 10.5551L12.6654 11.9997"
            stroke="currentColor" stroke-width="1.3" stroke-linecap="round" />
    </g>
    <defs>
        <clipPath id="clip0_9_24040">
            <rect width="16" height="16" fill="white" />
        </clipPath>
    </defs>
</svg>
    