<svg width="16" height="16" viewBox="0 0 16 16" fill="none" xmlns="http://www.w3.org/2000/svg">
    <path fill-rule="evenodd" clip-rule="evenodd"
        d="M8.98022 1.02176C8.35722 1.1571 7.84347 1.60684 7.67346 2.16573C7.60703 2.38408 7.59501 2.76571 7.64736 2.99296C7.76529 3.50467 8.20003 3.97451 8.72651 4.1592C9.00573 4.25716 9.41397 4.28028 9.70146 4.21444C10.4515 4.04265 11 3.38242 11 2.65129C11 2.19742 10.8598 1.85632 10.5373 1.52599C10.2991 1.28198 10.1543 1.18805 9.8561 1.08409C9.63381 1.00659 9.19408 0.975283 8.98022 1.02176ZM7.36878 5.76165C6.94192 5.80736 6.41057 5.9642 5.59574 6.28498L5.17944 6.44888L5.08529 6.8359C5.03352 7.04878 4.99535 7.22725 5.00046 7.23254C5.00559 7.2378 5.14278 7.19787 5.30535 7.14375C5.83963 6.96596 6.36165 6.95109 6.67904 7.1047C6.90532 7.21419 7.00968 7.46633 7.00962 7.90328C7.00955 8.31895 6.91356 8.7491 6.42272 10.5334C6.05186 11.8815 5.96681 12.2508 5.91709 12.7288C5.83779 13.4913 5.98025 13.9906 6.39873 14.4165C6.81112 14.8363 7.30571 15.0032 8.12695 15C8.65184 14.9978 8.87389 14.9625 9.31341 14.8111C9.73251 14.6667 10.5839 14.3289 10.6175 14.2937C10.6456 14.2642 10.823 13.537 10.8063 13.5198C10.802 13.5154 10.7184 13.5418 10.6204 13.5784C10.1189 13.7658 9.51894 13.8051 9.17974 13.6728C9.00065 13.6029 8.91552 13.522 8.83486 13.3449C8.786 13.2377 8.77897 13.1738 8.78075 12.852C8.78355 12.3466 8.84229 12.071 9.31168 10.3599C9.7362 8.81237 9.78401 8.61417 9.83016 8.21003C9.93913 7.25593 9.82734 6.7899 9.37995 6.33337C9.20828 6.15818 9.10131 6.07479 8.95162 5.99931C8.50965 5.77655 7.97678 5.69656 7.36878 5.76165Z"
        fill="#7E8CA8" />
</svg>
    