<svg width="16" height="16" viewBox="0 0 16 16" fill="none" xmlns="http://www.w3.org/2000/svg">
    <g clip-path="url(#clip0_8455_21829)">
        <path
            d="M2.07422 8.00014C2.07422 11.273 4.72726 13.9261 8.00014 13.9261C11.273 13.9261 13.9261 11.273 13.9261 8.00014C13.9261 4.72726 11.273 2.07422 8.00014 2.07422C4.72726 2.07422 2.07422 4.72726 2.07422 8.00014Z"
            stroke="#7E8CA8" stroke-width="1.33333" stroke-linecap="round" stroke-linejoin="round" />
        <path
            d="M8.5944 2.10352C8.5944 2.10352 10.3722 4.44426 10.3722 7.99981C10.3722 11.5554 8.5944 13.8961 8.5944 13.8961M7.40922 13.8961C7.40922 13.8961 5.63144 11.5554 5.63144 7.99981C5.63144 4.44426 7.40922 2.10352 7.40922 2.10352M2.44922 10.0739H13.5544M2.44922 5.92574H13.5544"
            stroke="#7E8CA8" stroke-width="1.15556" stroke-linecap="round" stroke-linejoin="round" />
    </g>
    <defs>
        <clipPath id="clip0_8455_21829">
            <rect width="16" height="16" fill="white" />
        </clipPath>
    </defs>
</svg>