<svg width="16" height="16" viewBox="0 0 16 16" fill="none" xmlns="http://www.w3.org/2000/svg">
    <g clip-path="url(#clip0_9_18769)">
        <path fill-rule="evenodd" clip-rule="evenodd"
            d="M15.0015 8.0012V2.7503C15.0015 2.28609 14.8171 1.8409 14.4888 1.51265C14.1606 1.18441 13.7154 1 13.2512 1H8.0003C7.53609 1 7.0909 1.18441 6.76265 1.51265C6.43441 1.8409 6.25 2.28609 6.25 2.7503V8.0012C6.25 8.46541 6.43441 8.9106 6.76265 9.23885C7.0909 9.56709 7.53609 9.7515 8.0003 9.7515H13.2512C13.7154 9.7515 14.1606 9.56709 14.4888 9.23885C14.8171 8.9106 15.0015 8.46541 15.0015 8.0012Z"
            stroke="#7E8CA8" stroke-width="1.10545" stroke-linecap="round" stroke-linejoin="round" />
        <path
            d="M4.5006 6.25391H2.7503C2.28609 6.25391 1.8409 6.43831 1.51265 6.76656C1.18441 7.0948 1 7.54 1 8.00421V13.2551C1 13.7193 1.18441 14.1645 1.51265 14.4928C1.8409 14.821 2.28609 15.0054 2.7503 15.0054H2.75293L8.00382 14.9967C8.46758 14.996 8.9121 14.8112 9.23978 14.4831C9.56745 14.1549 9.7515 13.7101 9.7515 13.2464V11.5022M5.37575 9.75451H2.7503"
            stroke="#7E8CA8" stroke-width="1.10545" stroke-linecap="round" stroke-linejoin="round" />
        <path d="M6.68802 11.0664L5.81287 11.9416C5.52057 12.233 4.79245 12.6706 3.625 13.2543"
            stroke="#7E8CA8" stroke-width="1.10545" stroke-linecap="round" stroke-linejoin="round" />
        <path
            d="M3.625 9.75382C3.9173 10.7742 4.35488 11.5041 4.93772 11.9408C5.52057 12.3775 6.25045 12.8142 7.1256 13.2518M8.00075 8.0009L10.6262 2.75L13.2516 8.0009M12.3765 6.2506H8.8759"
            stroke="#7E8CA8" stroke-width="1.10545" stroke-linecap="round" stroke-linejoin="round" />
    </g>
    <defs>
        <clipPath id="clip0_9_18769">
            <rect width="16" height="16" fill="white" />
        </clipPath>
    </defs>
</svg>
    