<svg width="16" height="17" viewBox="0 0 16 17" fill="none" xmlns="http://www.w3.org/2000/svg">
    <g clip-path="url(#clip0_4626_7834)">
        <path
            d="M14.8732 11.135H14.2109V3.87892C14.2109 3.4469 14.0574 3.03258 13.7841 2.7271C13.5109 2.42162 13.1402 2.25 12.7538 2.25H3.2161C2.82964 2.25 2.45901 2.42162 2.18575 2.7271C1.91248 3.03258 1.75896 3.4469 1.75896 3.87892V11.135H1.09662C0.991224 11.135 0.890143 11.1818 0.815615 11.2651C0.741088 11.3484 0.699219 11.4614 0.699219 11.5793V12.7639C0.699219 13.196 0.852739 13.6103 1.12601 13.9158C1.39927 14.2212 1.7699 14.3929 2.15636 14.3929H13.8135C14.2 14.3929 14.5706 14.2212 14.8439 13.9158C15.1171 13.6103 15.2706 13.196 15.2706 12.7639V11.5793C15.2706 11.4614 15.2288 11.3484 15.1543 11.2651C15.0797 11.1818 14.9786 11.135 14.8732 11.135ZM2.55376 3.87892C2.55376 3.68255 2.62355 3.49422 2.74776 3.35537C2.87197 3.21651 3.04044 3.1385 3.2161 3.1385H12.7538C12.9294 3.1385 13.0979 3.21651 13.2221 3.35537C13.3463 3.49422 13.4161 3.68255 13.4161 3.87892V11.135H2.55376V3.87892ZM14.4758 12.7639C14.4758 12.9603 14.4061 13.1486 14.2818 13.2875C14.1576 13.4263 13.9892 13.5044 13.8135 13.5044H2.15636C1.9807 13.5044 1.81223 13.4263 1.68802 13.2875C1.56381 13.1486 1.49402 12.9603 1.49402 12.7639V12.0235H14.4758V12.7639ZM9.44208 5.06359C9.44208 5.18141 9.40021 5.29441 9.32568 5.37772C9.25115 5.46103 9.15007 5.50784 9.04467 5.50784H6.92519C6.8198 5.50784 6.71871 5.46103 6.64419 5.37772C6.56966 5.29441 6.52779 5.18141 6.52779 5.06359C6.52779 4.94577 6.56966 4.83277 6.64419 4.74946C6.71871 4.66614 6.8198 4.61934 6.92519 4.61934H9.04467C9.15007 4.61934 9.25115 4.66614 9.32568 4.74946C9.40021 4.83277 9.44208 4.94577 9.44208 5.06359Z"
            fill="#7E8CA8" stroke="#7E8CA8" stroke-width="0.412857" />
    </g>
    <defs>
        <clipPath id="clip0_4626_7834">
            <rect width="16" height="16" fill="white" transform="translate(0 0.3125)" />
        </clipPath>
    </defs>
</svg>
    