<svg xmlns="http://www.w3.org/2000/svg" width="64" height="35" viewBox="0 0 64 35" fill="none">
    <g opacity="0.1" filter="url(#filter0_i_9_18209)">
        <path
            d="M57.201 5.76258L57.2191 18.4178C57.222 21.3279 57.0402 22.6755 56.8866 23.2912C56.6817 24.1043 56.3137 24.8646 55.7822 25.5486C55.266 26.2167 54.624 26.7449 53.8638 27.1176C53.1114 27.4901 52.2017 27.6761 51.1503 27.6833C50.1064 27.6824 49.1289 27.4526 48.2255 26.9935C47.3531 26.5498 46.6798 25.9616 46.2132 25.2289C45.7307 24.4728 45.4412 23.6904 45.3602 22.8893C45.2611 21.9076 45.2088 20.406 45.2036 18.4161L45.1855 5.76093L39.0232 5.77018L39.0276 7.70501C41.5189 11.0673 43.0012 15.2463 43.0117 19.7766C43.0182 22.9463 42.2955 25.9455 41.0114 28.6144C41.3117 29.0664 41.6349 29.5022 42.0042 29.9138C43.1042 31.1409 44.4942 32.1042 46.1353 32.7808C47.7453 33.4421 49.5671 33.778 51.5465 33.7812C54.0903 33.7764 56.3536 33.0834 58.2594 31.7191C60.1575 30.3549 61.5091 28.6288 62.2686 26.5808C62.9984 24.6198 63.3469 21.9485 63.3428 18.4091L63.3246 5.75388L57.201 5.76258Z"
            fill="#7E8CA8" />
        <path
            d="M0.435449 5.79718L0.46875 33.8184L6.59954 33.8139L6.56624 5.79269L0.435449 5.79718Z"
            fill="#7E8CA8" />
        <path
            d="M22.251 27.9431C20.2717 27.9477 18.6303 27.2475 17.2412 25.8122C16.1348 24.6718 15.4574 23.2578 15.1698 21.5237L35.7598 21.5053L35.7228 19.9956C35.623 15.7104 34.2824 12.253 31.749 9.72504C29.2077 7.19716 26.0425 5.91306 22.3235 5.91891C18.589 5.92499 15.4077 7.30749 12.8719 10.0415C10.359 12.7516 9.0838 16.0418 9.08364 19.825C9.09121 23.6082 10.3596 26.8857 12.8723 29.5792C15.4007 32.296 18.6446 33.6734 22.5028 33.6655C27.9073 33.6592 32.0374 31.0283 34.7699 25.8296L35.4691 24.4353L28.9349 24.387C27.3221 26.7775 25.1196 27.9415 22.251 27.9431ZM22.3608 11.786C24.1546 11.784 25.6929 12.3048 27.0612 13.3707C27.9526 14.0658 28.6065 14.9138 29.0467 15.9615L15.9487 15.9675C17.2231 13.1571 19.3298 11.782 22.3608 11.786Z"
            fill="#7E8CA8" />
        <path
            d="M36.6075 32.2056L36.1702 34.0679L34.9815 32.5827L33.105 32.7353L34.1259 31.132L33.4048 29.3648L35.2209 29.8502L36.649 28.6107L36.7535 30.5204L38.3605 31.5199L36.6075 32.2056Z"
            fill="#7E8CA8" />
        <path
            d="M40.2546 23.6818L40.7833 25.5147L39.0263 24.8319L37.48 25.9157L37.5764 24.0032L36.0831 22.8369L37.9006 22.3391L38.532 20.5369L39.5523 22.1425L41.4317 22.1943L40.2546 23.6818Z"
            fill="#7E8CA8" />
        <path
            d="M39.6245 13.8678L41.0038 15.1694L39.1529 15.4947L38.3659 17.2362L37.4836 15.5421L35.6171 15.3171L36.9273 13.9456L36.5603 12.0633L38.2501 12.9122L39.8913 11.9764L39.6245 13.8678Z"
            fill="#7E8CA8" />
        <path
            d="M34.3235 5.91414L36.1542 6.33632L34.7104 7.56024L34.8845 9.4689L33.2927 8.44559L31.564 9.20954L32.0245 7.34687L30.7825 5.9096L32.6594 5.78058L33.6178 4.13889L34.3235 5.91414Z"
            fill="#7E8CA8" />
        <path
            d="M25.8905 1.74691L27.6915 1.17855L27.0367 2.9732L28.1183 4.53861L26.2385 4.46318L25.1161 5.9971L24.6026 4.14833L22.8233 3.52879L24.3854 2.46835L24.4122 0.556813L25.8905 1.74691Z"
            fill="#7E8CA8" />
        <path
            d="M16.4608 2.41606L17.7397 1.01361L18.0604 2.89659L19.7727 3.69797L18.1078 4.59472L17.8875 6.49328L16.5386 5.15977L14.6884 5.53222L15.5221 3.81366L14.6014 2.14372L16.4608 2.41606Z"
            fill="#7E8CA8" />
        <path
            d="M8.65224 7.78967L9.06637 5.92767L10.2702 7.39695L12.1465 7.22075L11.1413 8.83951L11.8854 10.5985L10.0618 10.129L8.6495 11.3918L8.52176 9.48247L6.90732 8.4988L8.65224 7.78967Z"
            fill="#7E8CA8" />
    </g>
    <defs>
        <filter id="filter0_i_9_18209" x="0.433594" y="0.556641" width="62.9102" height="33.5117"
            filterUnits="userSpaceOnUse" color-interpolation-filters="sRGB">
            <feFlood flood-opacity="0" result="BackgroundImageFix" />
            <feBlend mode="normal" in="SourceGraphic" in2="BackgroundImageFix" result="shape" />
            <feColorMatrix in="SourceAlpha" type="matrix"
                values="0 0 0 0 0 0 0 0 0 0 0 0 0 0 0 0 0 0 127 0" result="hardAlpha" />
            <feOffset />
            <feGaussianBlur stdDeviation="2" />
            <feComposite in2="hardAlpha" operator="arithmetic" k2="-1" k3="1" />
            <feColorMatrix type="matrix" values="0 0 0 0 0 0 0 0 0 0 0 0 0 0 0 0 0 0 0.16 0" />
            <feBlend mode="normal" in2="shape" result="effect1_innerShadow_9_18209" />
        </filter>
    </defs>
</svg>