<svg width="10" height="10" viewBox="0 0 10 10" fill="none" xmlns="http://www.w3.org/2000/svg">
    <path d="M7.79664 0C7.99379 0.0623277 8.2042 0.0610016 8.41372 0.110068C9.14353 0.281138 9.5869 0.620183 9.82472 1.34204C9.91799 1.6245 9.93302 1.9158 9.99932 2.20269V2.37906L9.16298 3.17208C8.62414 2.19075 7.76039 1.41674 6.82812 0.815123L7.62026 0H7.79664Z" fill="currentColor"/>
    <path d="M0.96875 6.7405L6.15123 1.50586C7.175 1.95541 7.98438 2.8006 8.48432 3.78988L3.32527 9.0316C2.70774 8.12055 1.96378 7.24885 0.96875 6.74095V6.7405Z" fill="currentColor"/>
    <path d="M0 10.0008V7.64385C0 7.62529 0.229861 7.42725 0.263456 7.37819L0.310312 7.37598C1.31905 7.87946 2.13108 8.67381 2.62528 9.6905L2.62307 9.73736C2.574 9.77095 2.37597 10.0008 2.3574 10.0008H0Z" fill="currentColor"/>
</svg>
    