<svg width="16" height="16" viewBox="0 0 16 16" fill="none" xmlns="http://www.w3.org/2000/svg">
    <path
        d="M7.99713 14.3868C8.54942 14.3868 8.99713 13.9391 8.99713 13.3868C8.99713 12.8346 8.54942 12.3868 7.99713 12.3868V14.3868ZM12.2442 4.68354L11.4564 5.29944L11.4564 5.29944L12.2442 4.68354ZM13.125 6.34131L12.1735 6.64872L13.125 6.34131ZM7.99713 12.3868C5.57384 12.3868 3.60938 10.4224 3.60938 7.99908H1.60938C1.60938 11.5269 4.46927 14.3868 7.99713 14.3868V12.3868ZM3.60938 7.99908C3.60938 5.57579 5.57384 3.61133 7.99713 3.61133V1.61133C4.46927 1.61133 1.60938 4.47122 1.60938 7.99908H3.60938ZM7.99713 3.61133C9.40158 3.61133 10.6516 4.27006 11.4564 5.29944L13.032 4.06764C11.8646 2.57428 10.043 1.61133 7.99713 1.61133V3.61133ZM11.4564 5.29944C11.7695 5.70002 12.0142 6.15562 12.1735 6.64872L14.0766 6.03391C13.8439 5.3135 13.4871 4.64972 13.032 4.06764L11.4564 5.29944ZM12.1735 6.64872C12.3105 7.07286 12.3849 7.5263 12.3849 7.99908H14.3849C14.3849 7.31505 14.277 6.65427 14.0766 6.03391L12.1735 6.64872Z"
        fill="#7E8CA8" />
    <path d="M13.4808 9.89286L14.8745 6.98597L11.6602 7.23243L13.4808 9.89286Z" fill="#7E8CA8"
        stroke="#7E8CA8" />
</svg>
    