<svg width="32" height="32" viewBox="0 0 32 32" fill="none" xmlns="http://www.w3.org/2000/svg">
    <path
        d="M9.76712 8.53438C9.12169 8.53438 8.59883 9.05723 8.59883 9.70266V22.1707C8.59883 22.8161 9.12169 23.3389 9.76712 23.3389H22.2351C22.8805 23.3389 23.4034 22.8161 23.4034 22.1707V9.70266C23.4034 9.05723 22.8805 8.53438 22.2351 8.53438H9.76712ZM22.2351 7.36523C22.855 7.36523 23.4496 7.6115 23.8879 8.04985C24.3263 8.4882 24.5725 9.08274 24.5725 9.70266V22.1707C24.5725 22.7906 24.3263 23.3851 23.8879 23.8235C23.4496 24.2618 22.855 24.5081 22.2351 24.5081H9.76712C9.14719 24.5081 8.55266 24.2618 8.1143 23.8235C7.67595 23.3851 7.42969 22.7906 7.42969 22.1707V9.70266C7.42969 9.08274 7.67595 8.4882 8.1143 8.04985C8.55266 7.6115 9.14719 7.36523 9.76712 7.36523H22.2351ZM17.9174 9.60236C17.7623 9.60236 17.6137 9.66395 17.504 9.77357C17.3944 9.8832 17.3328 10.0319 17.3328 10.1869V11.3158C17.3328 11.4708 17.3944 11.6195 17.504 11.7292C17.6137 11.8388 17.7623 11.9004 17.9174 11.9004C18.0724 11.9004 18.2211 11.8388 18.3307 11.7292C18.4404 11.6195 18.502 11.4708 18.502 11.3158V10.1869C18.502 10.0319 18.4404 9.8832 18.3307 9.77357C18.2211 9.66395 18.0724 9.60236 17.9174 9.60236ZM10.5191 8.22236L11.6874 8.2275L11.6694 12.0384C11.6437 12.3864 11.7551 12.6675 12.0251 12.9272C12.2934 13.1852 12.6628 13.3026 13.2114 13.2701L19.3062 13.2735C19.7194 13.2264 20.01 13.0909 20.2062 12.8715C20.4017 12.6512 20.5028 12.3546 20.502 11.9518V8.22407H21.6711V11.9501C21.672 12.6264 21.4765 13.2015 21.078 13.6489C20.6794 14.0964 20.1231 14.3561 19.3722 14.4375H13.2474C12.4254 14.4881 11.7345 14.2686 11.2151 13.7689C10.6974 13.2718 10.4522 12.6512 10.502 11.9929L10.5191 8.22236Z"
        fill="currentColor" stroke="currentColor" stroke-width="0.7" />
</svg>
    