<svg width="20" height="21" viewBox="0 0 20 21" fill="none" xmlns="http://www.w3.org/2000/svg">
    <path
        d="M3.76712 3.53438C3.12169 3.53438 2.59883 4.05723 2.59883 4.70266V17.1707C2.59883 17.8161 3.12169 18.3389 3.76712 18.3389H16.2351C16.8805 18.3389 17.4034 17.8161 17.4034 17.1707V4.70266C17.4034 4.05723 16.8805 3.53438 16.2351 3.53438H3.76712ZM16.2351 2.36523C16.855 2.36523 17.4496 2.6115 17.8879 3.04985C18.3263 3.4882 18.5725 4.08274 18.5725 4.70266V17.1707C18.5725 17.7906 18.3263 18.3851 17.8879 18.8235C17.4496 19.2618 16.855 19.5081 16.2351 19.5081H3.76712C3.14719 19.5081 2.55266 19.2618 2.1143 18.8235C1.67595 18.3851 1.42969 17.7906 1.42969 17.1707V4.70266C1.42969 4.08274 1.67595 3.4882 2.1143 3.04985C2.55266 2.6115 3.14719 2.36523 3.76712 2.36523L16.2351 2.36523ZM11.9174 4.60236C11.7623 4.60236 11.6137 4.66395 11.504 4.77357C11.3944 4.8832 11.3328 5.03189 11.3328 5.18693V6.31581C11.3328 6.47084 11.3944 6.61953 11.504 6.72916C11.6137 6.83879 11.7623 6.90038 11.9174 6.90038C12.0724 6.90038 12.2211 6.83879 12.3307 6.72916C12.4404 6.61953 12.502 6.47084 12.502 6.31581V5.18693C12.502 5.03189 12.4404 4.8832 12.3307 4.77357C12.2211 4.66395 12.0724 4.60236 11.9174 4.60236ZM4.5191 3.22236L5.68738 3.2275L5.66938 7.03836C5.64367 7.38636 5.7551 7.6675 6.0251 7.92721C6.29338 8.18521 6.66281 8.30264 7.21138 8.27007L13.3062 8.2735C13.7194 8.22636 14.01 8.09093 14.2062 7.8715C14.4017 7.65121 14.5028 7.35464 14.502 6.95179V3.22407H15.6711V6.95007C15.672 7.62636 15.4765 8.2015 15.078 8.64893C14.6794 9.09636 14.1231 9.35607 13.3722 9.4375H7.24738C6.42538 9.48807 5.73452 9.26864 5.2151 8.76893C4.69738 8.27179 4.45224 7.65121 4.50195 6.99293L4.5191 3.22236Z"
        fill="#7E8CA8" stroke="#7E8CA8" stroke-width="0.7" />
</svg>
    