<svg xmlns="http://www.w3.org/2000/svg" width="22" height="22" viewBox="0 0 22 22" fill="none">
    <path fill-rule="evenodd" clip-rule="evenodd"
        d="M9.76482 2.05209C8.95797 2.22538 8.24929 2.91946 8.06098 3.72082C7.9848 4.04507 7.98455 5.11332 8.06067 5.29541C8.28499 5.83234 9.01812 5.89984 9.35879 5.41496C9.46568 5.26277 9.46589 5.26161 9.48478 4.65876C9.50511 4.00952 9.53898 3.87945 9.73549 3.69613C9.93505 3.51 9.9391 3.50965 11.8828 3.51162L13.6865 3.51345L13.4931 3.5871C13.1005 3.73655 12.8193 3.99833 12.6362 4.38477L12.5258 4.61771L12.5166 10.4312L12.5074 16.2446L11.2446 16.2345L9.9818 16.2245L9.82936 16.1174C9.74551 16.0585 9.63732 15.9398 9.58896 15.8536C9.50251 15.6996 9.50075 15.6805 9.48344 14.7297C9.46431 13.6778 9.46055 13.6573 9.24916 13.4565C8.88594 13.1115 8.30997 13.2219 8.07333 13.6819C8.01192 13.8013 8.00625 13.8967 8.00675 14.8074C8.00731 15.9294 8.02873 16.0843 8.24398 16.5234C8.43159 16.9062 8.83631 17.3052 9.23766 17.5031C9.70974 17.7358 9.85057 17.7532 11.2684 17.7539L12.5082 17.7545V18.2581C12.5082 18.6013 12.5249 18.8177 12.5605 18.9378C12.6425 19.2137 12.8646 19.5259 13.1048 19.7027C13.3986 19.919 13.6147 19.9875 14.0031 19.9876L14.3196 19.9876L16.6761 19.2002C17.9722 18.7672 19.1099 18.3742 19.2043 18.327C19.4084 18.2248 19.6708 17.9715 19.7987 17.7533C20.0117 17.3898 19.9999 17.8275 19.9999 10.2747C19.9999 5.35766 19.9887 3.31895 19.9609 3.18617C19.8421 2.61832 19.3515 2.14304 18.7703 2.03285C18.6506 2.01013 17.0385 1.99841 14.2884 2.00017C10.7534 2.00249 9.95299 2.01167 9.76482 2.05209ZM6.19366 5.81004C6.05259 5.87149 5.86241 6.06476 5.80294 6.20706C5.76587 6.29577 5.75521 6.59241 5.75521 7.53453V8.74775L4.1259 8.75788L2.49656 8.76801L2.34999 8.86505C2.13907 9.00465 2.02444 9.19542 2.00288 9.44272C1.9783 9.72472 2.1122 9.98602 2.35984 10.1392L2.53134 10.2452L4.14328 10.2557L5.75521 10.2661L5.75598 11.4691C5.75669 12.5566 5.76291 12.6856 5.82081 12.8131C5.99128 13.1884 6.47729 13.3579 6.83735 13.1677C6.89021 13.1398 7.66336 12.3837 8.55547 11.4876C10.0856 9.95063 10.1797 9.84874 10.2185 9.68881C10.2681 9.4838 10.2415 9.30769 10.1328 9.11973C10.0084 8.90486 6.96175 5.88172 6.8027 5.81535C6.64422 5.74923 6.33938 5.74656 6.19366 5.81004Z"
        fill="#FCFCFC" />
</svg>