<svg width="24" height="24" viewBox="0 0 24 24" fill="none" xmlns="http://www.w3.org/2000/svg">
    <g clip-path="url(#clip0_9_22823)">
        <path
            d="M9 21H5.25V5.25H7.5V7.5H16.5V5.25H18.75V12H20.25V5.25C20.25 4.85218 20.092 4.47064 19.8107 4.18934C19.5294 3.90804 19.1478 3.75 18.75 3.75H16.5V3C16.5 2.60218 16.342 2.22064 16.0607 1.93934C15.7794 1.65804 15.3978 1.5 15 1.5H9C8.60218 1.5 8.22064 1.65804 7.93934 1.93934C7.65804 2.22064 7.5 2.60218 7.5 3V3.75H5.25C4.85218 3.75 4.47064 3.90804 4.18934 4.18934C3.90804 4.47064 3.75 4.85218 3.75 5.25V21C3.75 21.3978 3.90804 21.7794 4.18934 22.0607C4.47064 22.342 4.85218 22.5 5.25 22.5H9V21ZM9 3H15V6H9V3Z"
            fill="#7E8CA8" stroke="#7E8CA8" stroke-width="0.214286" />
        <path
            d="M15.75 23.5C15.0929 23.5 14.4754 23.3752 13.8975 23.1257C13.3196 22.8762 12.8169 22.5378 12.3894 22.1106C11.9619 21.6831 11.6235 21.1804 11.3743 20.6025C11.1251 20.0246 11.0003 19.4071 11 18.75C11 18.0929 11.1248 17.4754 11.3743 16.8975C11.6238 16.3196 11.9622 15.8169 12.3894 15.3894C12.8169 14.9619 13.3196 14.6235 13.8975 14.3743C14.4754 14.1251 15.0929 14.0003 15.75 14C16.2646 14 16.7515 14.0752 17.2106 14.2256C17.6698 14.376 18.0933 14.5858 18.4812 14.855L17.7925 15.5556C17.4917 15.3656 17.171 15.2173 16.8306 15.1105C16.4902 15.0038 16.13 14.9503 15.75 14.95C14.6971 14.95 13.8004 15.3202 13.0601 16.0605C12.3197 16.8009 11.9497 17.6974 11.95 18.75C11.95 19.8029 12.3202 20.6996 13.0605 21.4399C13.8009 22.1803 14.6974 22.5503 15.75 22.55C16.8029 22.55 17.6996 22.18 18.4399 21.4399C19.1803 20.6999 19.5503 19.8032 19.55 18.75C19.55 18.6075 19.5421 18.465 19.5262 18.3225C19.5104 18.18 19.4867 18.0415 19.455 17.9069L20.2269 17.135C20.314 17.3883 20.3813 17.6496 20.4288 17.9187C20.4762 18.1879 20.5 18.465 20.5 18.75C20.5 19.4071 20.3752 20.0246 20.1257 20.6025C19.8762 21.1804 19.5378 21.6831 19.1106 22.1106C18.6831 22.5381 18.1804 22.8766 17.6025 23.1262C17.0246 23.3757 16.4071 23.5003 15.75 23.5ZM15.085 20.935L13.0662 18.9162L13.7313 18.2512L15.085 19.605L19.835 14.8431L20.5 15.5081L15.085 20.935Z"
            fill="#7E8CA8" stroke="#7E8CA8" stroke-width="0.5" />
    </g>
    <defs>
        <clipPath id="clip0_9_22823">
            <rect width="24" height="24" fill="white" />
        </clipPath>
    </defs>
</svg>
    