<svg width="16" height="16" viewBox="0 0 16 16" fill="none" xmlns="http://www.w3.org/2000/svg">
<path fill-rule="evenodd" clip-rule="evenodd" d="M9.9308 1.14258C10.1565 1.14258 10.3782 1.20596 10.5736 1.32632C10.7691 1.44669 10.9314 1.61981 11.0442 1.82829H11.8594C12.2004 1.82829 12.5274 1.97278 12.7685 2.22997C13.0096 2.48717 13.1451 2.836 13.1451 3.19972V11.4283C13.1451 12.3376 12.8064 13.2097 12.2036 13.8527C11.6009 14.4956 10.7833 14.8569 9.9308 14.8569H4.14509C3.8041 14.8569 3.47707 14.7124 3.23595 14.4552C2.99483 14.198 2.85938 13.8492 2.85938 13.4854V3.19972C2.85938 2.836 2.99483 2.48717 3.23595 2.22997C3.47707 1.97278 3.8041 1.82829 4.14509 1.82829H4.96023C5.07307 1.61981 5.23537 1.44669 5.43082 1.32632C5.62627 1.20596 5.84798 1.14258 6.07366 1.14258H9.9308ZM4.78795 3.19972H4.14509V13.4854H9.9308C10.4423 13.4854 10.9328 13.2687 11.2945 12.8829C11.6562 12.4971 11.8594 11.9739 11.8594 11.4283V3.19972H11.2165C11.2165 3.56345 11.0811 3.91227 10.8399 4.16947C10.5988 4.42666 10.2718 4.57115 9.9308 4.57115H6.07366C5.73267 4.57115 5.40564 4.42666 5.16452 4.16947C4.92341 3.91227 4.78795 3.56345 4.78795 3.19972ZM10.7267 6.20246C10.8472 6.33105 10.9149 6.50544 10.9149 6.68726C10.9149 6.86909 10.8472 7.04347 10.7267 7.17206L7.54452 10.5663C7.42396 10.6949 7.26048 10.7671 7.09002 10.7671C6.91956 10.7671 6.75607 10.6949 6.63552 10.5663L5.27266 9.11126C5.15837 8.98144 5.09591 8.80928 5.0985 8.63121C5.10109 8.45314 5.16853 8.28313 5.28655 8.15716C5.40457 8.03118 5.56391 7.95913 5.73084 7.95623C5.89778 7.95334 6.05923 8.01984 6.18102 8.14166L7.09066 9.11126L9.81766 6.20246C9.93821 6.07391 10.1017 6.0017 10.2722 6.0017C10.4426 6.0017 10.6061 6.07391 10.7267 6.20246ZM9.9308 2.51401H6.07366V3.19972H9.9308V2.51401Z" fill="#7E8CA8"/>
</svg>
