<svg xmlns="http://www.w3.org/2000/svg" width="22" height="22" viewBox="0 0 22 22" fill="none">
    <g clip-path="url(#clip0_9_22391)">
        <path fill-rule="evenodd" clip-rule="evenodd"
            d="M11 3.00195C10.4696 3.00195 9.96086 3.21267 9.58579 3.58774C9.21071 3.96281 9 4.47152 9 5.00195H13C13 4.47152 12.7893 3.96281 12.4142 3.58774C12.0391 3.21267 11.5304 3.00195 11 3.00195ZM8.354 2.00195C9.059 1.37995 9.986 1.00195 11 1.00195C12.014 1.00195 12.94 1.37995 13.646 2.00195H17C17.5304 2.00195 18.0391 2.21267 18.4142 2.58774C18.7893 2.96281 19 3.47152 19 4.00195V19.002C19 19.5324 18.7893 20.0411 18.4142 20.4162C18.0391 20.7912 17.5304 21.002 17 21.002H5C4.46957 21.002 3.96086 20.7912 3.58579 20.4162C3.21071 20.0411 3 19.5324 3 19.002V4.00195C3 3.47152 3.21071 2.96281 3.58579 2.58774C3.96086 2.21267 4.46957 2.00195 5 2.00195H8.354ZM7.126 4.00195H5V19.002H17V4.00195H14.874C14.956 4.32195 15 4.65695 15 5.00195V6.00195C15 6.26717 14.8946 6.52152 14.7071 6.70906C14.5196 6.8966 14.2652 7.00195 14 7.00195H8C7.73478 7.00195 7.48043 6.8966 7.29289 6.70906C7.10536 6.52152 7 6.26717 7 6.00195V5.00195C7 4.65695 7.044 4.32195 7.126 4.00195ZM7 10.002C7 9.73674 7.10536 9.48238 7.29289 9.29485C7.48043 9.10731 7.73478 9.00195 8 9.00195H14C14.2652 9.00195 14.5196 9.10731 14.7071 9.29485C14.8946 9.48238 15 9.73674 15 10.002C15 10.2672 14.8946 10.5215 14.7071 10.7091C14.5196 10.8966 14.2652 11.002 14 11.002H8C7.73478 11.002 7.48043 10.8966 7.29289 10.7091C7.10536 10.5215 7 10.2672 7 10.002ZM7 14.002C7 13.7367 7.10536 13.4824 7.29289 13.2948C7.48043 13.1073 7.73478 13.002 8 13.002H11C11.2652 13.002 11.5196 13.1073 11.7071 13.2948C11.8946 13.4824 12 13.7367 12 14.002C12 14.2672 11.8946 14.5215 11.7071 14.7091C11.5196 14.8966 11.2652 15.002 11 15.002H8C7.73478 15.002 7.48043 14.8966 7.29289 14.7091C7.10536 14.5215 7 14.2672 7 14.002Z"
            fill="url(#paint0_linear_9_22391)" />
    </g>
    <defs>
        <linearGradient id="paint0_linear_9_22391" x1="19" y1="11.002" x2="3" y2="11.002"
            gradientUnits="userSpaceOnUse">
            <stop stop-color="#001C54" />
            <stop offset="1" stop-color="#001C54" />
        </linearGradient>
        <clipPath id="clip0_9_22391">
            <rect width="22" height="22" fill="white" />
        </clipPath>
    </defs>
</svg>