<svg xmlns="http://www.w3.org/2000/svg" width="22" height="22" viewBox="0 0 22 22" fill="none">
  <g clip-path="url(#clip0_10723_44850)">
    <path d="M11.0011 20.9993C5.47217 20.9993 1.00195 16.5291 1.00195 11.0001C1.00195 5.47119 5.47217 1.00098 11.0011 1.00098C16.5301 1.00098 21.0003 5.47119 21.0003 11.0001C21.0003 16.5291 16.4712 20.9993 11.0011 20.9993ZM11.0011 2.17735C6.11917 2.17735 2.17833 6.1182 2.17833 11.0001C2.17833 15.8821 6.11917 19.8229 11.0011 19.8229C15.8831 19.8229 19.8239 15.8821 19.8239 11.0001C19.8239 6.1182 15.8242 2.17735 11.0011 2.17735Z" fill="#404040" stroke="#404040" stroke-width="0.333305"/>
    <path d="M5.35518 17.6652L4.33398 16.832C4.61765 16.1996 5.52537 16.2424 6.48983 15.8208C7.45429 15.3993 8.64568 14.925 8.64568 14.3453V13.5549C8.30528 13.2914 7.73795 12.7118 7.62449 11.8686C7.34082 11.6051 6.88696 11.1309 6.88696 10.4985C6.88696 10.1296 7.05716 9.81345 7.17063 9.60266C7.05716 9.18109 6.9437 8.39064 6.9437 7.75828C6.9437 5.70312 8.47548 4.33301 10.915 4.33301C11.5958 4.33301 12.4468 4.4911 12.9006 4.96537C13.9786 5.17615 14.8863 6.33548 14.8863 7.75828C14.8863 8.65412 14.7161 9.39187 14.6026 9.76075C14.7161 9.91884 14.8296 10.1823 14.8296 10.4985C14.8296 11.1836 14.4324 11.6578 14.092 11.8686C13.9786 12.7118 13.468 13.2387 13.1276 13.5022V14.3453C13.1276 14.8196 14.1488 15.1885 15.0565 15.5047C16.1344 15.8735 17.4498 16.5059 17.6662 16.832V18.4985C17.496 18.0769 15.5104 16.7694 14.6594 16.5059C13.4112 16.0843 11.9929 15.6101 11.9929 14.398V13.0279L12.2766 12.8698C12.2766 12.8698 12.9574 12.4483 12.9574 11.6051V11.2363L13.2978 11.0782C13.3545 11.0782 13.6382 10.9201 13.6382 10.4985C13.6382 10.3931 13.5247 10.235 13.468 10.1823L13.241 9.97154L13.3545 9.70805C13.3545 9.70805 13.6382 8.86491 13.6382 7.81098C13.6382 6.80974 13.0141 6.07199 12.5035 6.07199H12.1631L11.9929 5.80851C11.9929 5.59772 11.5958 5.38694 10.915 5.38694C9.15628 5.38694 8.07835 6.28278 8.07835 7.75828C8.07835 8.44334 8.36202 9.60266 8.36202 9.60266L8.41875 9.86614L8.19182 10.1296C8.13508 10.1296 8.02162 10.2877 8.02162 10.4985C8.02162 10.762 8.36202 11.0782 8.53221 11.1836L8.75915 11.3416V11.6051C8.75915 12.3956 9.49667 12.8171 9.49667 12.8698L9.78034 13.0279V14.398C9.78034 15.6628 8.30528 16.2951 6.9437 16.8221C6.31963 17.0329 5.46864 17.4017 5.35518 17.6652Z" fill="#404040"/>
    <path d="M12.6676 13.9839V14.3329C12.6676 14.5882 12.5233 14.8217 12.2949 14.9358L11.7463 15.2101C11.2771 15.4447 10.7249 15.4447 10.2557 15.2101L10.1678 15.1662L9.62964 14.8971C9.44876 14.8067 9.3345 14.6218 9.3345 14.4195C9.3345 14.3621 9.32524 14.3051 9.3071 14.2507L8.50123 11.8331L7.88266 9.97738C7.74046 9.55079 7.66797 9.10407 7.66797 8.6544V8.43926C7.66797 7.93126 7.78625 7.43023 8.01343 6.97586C8.33007 6.34258 8.84356 5.82909 9.47683 5.51245L9.62664 5.43755C9.9825 5.25962 10.3749 5.16699 10.7727 5.16699C11.4524 5.16699 12.1043 5.437 12.5849 5.91761L12.6675 6.00026C13.2011 6.53379 13.5008 7.25741 13.5008 8.01193V9.22834C13.5008 9.84977 13.4006 10.4671 13.2041 11.0567L13.0842 11.4165C12.8082 12.2443 12.6676 13.1112 12.6676 13.9839Z" fill="#404040" stroke="#404040" stroke-width="0.583284" stroke-linecap="round"/>
  </g>
  <defs>
    <clipPath id="clip0_10723_44850">
      <rect width="22" height="22" fill="white"/>
    </clipPath>
  </defs>
</svg>