<svg xmlns="http://www.w3.org/2000/svg" width="20" height="22" viewBox="0 0 20 22" fill="none">
    <path
        d="M9.98828 1.33691C12.2068 1.33691 13.3727 1.33776 14.001 1.34668C14.3134 1.35112 14.5001 1.35694 14.6191 1.36719C14.7428 1.37784 14.8124 1.3945 14.8818 1.42578C15.1708 1.55599 15.3782 1.83246 15.4434 2.14746C15.5714 2.76586 15.8311 3.24909 16.2158 3.6123C16.6017 3.97664 17.1284 4.2339 17.8125 4.37402H17.8135C17.9557 4.40315 18.0875 4.43568 18.1943 4.46777C18.2477 4.48379 18.2972 4.50072 18.3398 4.51758C18.3784 4.53282 18.426 4.55393 18.4658 4.58203C18.6035 4.67924 18.7024 4.80529 18.7666 4.91895C18.8259 5.02393 18.873 5.14967 18.873 5.25488V5.25684L18.8525 7.2373C18.8312 9.29908 18.8125 9.60075 18.6367 10.5322C18.2213 12.7338 17.2404 14.7781 15.7568 16.5371C14.4129 18.1305 12.9433 19.2611 10.7754 20.3779C10.4779 20.5311 10.2608 20.6393 10.0576 20.6611C9.83275 20.6851 9.64944 20.6033 9.43848 20.502C8.56503 20.0821 7.39912 19.3849 6.68945 18.8574C3.59734 16.5589 1.6885 13.3809 1.20117 9.70605C1.16151 9.40683 1.1327 8.31779 1.12109 7.29492C1.11524 6.77873 1.11405 6.27163 1.11816 5.87793C1.12022 5.68128 1.12381 5.51104 1.12891 5.38184C1.13145 5.31749 1.13406 5.26096 1.1377 5.21582C1.14078 5.17757 1.14563 5.12795 1.15625 5.08887C1.24791 4.75148 1.53734 4.50367 1.88281 4.43262C2.76532 4.25123 3.13311 4.10043 3.55371 3.77832C4.07997 3.37524 4.36069 2.90406 4.55371 2.02734C4.58314 1.89369 4.67681 1.76547 4.7627 1.67383C4.85367 1.57676 4.97327 1.48087 5.09766 1.4248C5.16787 1.39319 5.23979 1.37748 5.36328 1.36719C5.48365 1.35716 5.67229 1.35107 5.98633 1.34668C6.61755 1.33785 7.7828 1.33691 9.98828 1.33691ZM5.52734 2.38281C5.51667 2.4148 5.50827 2.44858 5.50391 2.47461C5.26407 3.9136 3.91493 5.13275 2.35156 5.37988C2.29072 5.38949 2.22701 5.39632 2.19531 5.40039C2.18691 5.40147 2.17969 5.40241 2.17383 5.40332C2.17207 5.41023 2.16997 5.41902 2.16797 5.42969C2.15037 5.52346 2.14198 5.68836 2.1416 5.99023C2.14123 6.28687 2.1479 6.69334 2.15332 7.25977C2.17267 9.28501 2.18938 9.52632 2.35645 10.4043C2.70617 12.242 3.57502 14.107 4.79102 15.624C6.07186 17.2218 7.52291 18.3663 9.69922 19.4863L9.97754 19.6289L10.1572 19.542C10.67 19.2928 11.5705 18.7823 12.0137 18.4902C14.7911 16.6592 16.7134 14.0326 17.4688 11.0537C17.7599 9.90559 17.8006 9.50004 17.8242 7.24902C17.83 6.69603 17.8351 6.29493 17.835 6.00098C17.8348 5.70271 17.8286 5.53187 17.8135 5.43164C17.8119 5.42126 17.8081 5.41282 17.8066 5.40527C17.8006 5.4047 17.7938 5.40403 17.7861 5.40332C17.7662 5.40148 17.7415 5.39979 17.7148 5.39648C16.8007 5.28321 15.8108 4.74335 15.2168 4.03516C14.9043 3.6625 14.605 3.06989 14.4941 2.60156C14.4754 2.52217 14.4537 2.44605 14.4355 2.38574C14.4169 2.38478 14.3958 2.38278 14.3721 2.38184C14.2241 2.37596 13.9898 2.37164 13.6406 2.36816C12.943 2.36122 11.7955 2.35938 9.98438 2.35938H5.53711C5.5344 2.36645 5.53022 2.3742 5.52734 2.38281Z"
        fill="currentColor" stroke="currentColor" stroke-width="0.471429" />
    <path
        d="M9.97887 15.4012C9.24313 15.4012 8.59457 15.2736 8.03319 15.0182C7.47607 14.7629 7.04228 14.3926 6.73182 13.9075C6.42136 13.4223 6.26613 12.8329 6.26613 12.1392V7.46493C6.26613 7.36201 6.19315 7.27354 6.09211 7.25397L5.45137 7.12987C5.35032 7.1103 5.27734 7.02183 5.27734 6.91891V6.18754C5.27734 6.06886 5.37355 5.97266 5.49222 5.97266H8.90917C9.02784 5.97266 9.12405 6.06886 9.12405 6.18754V6.9187C9.12405 7.02172 9.05094 7.11024 8.94977 7.12971L8.30315 7.25414C8.20199 7.27361 8.12888 7.36213 8.12888 7.46515V12.1392C8.12888 12.5478 8.20331 12.8882 8.35216 13.1606C8.501 13.433 8.71365 13.6372 8.99008 13.7734C9.26652 13.9053 9.59611 13.9713 9.97887 13.9713C10.3701 13.9713 10.704 13.9053 10.9804 13.7734C11.2611 13.6372 11.4759 13.433 11.6247 13.1606C11.7736 12.8882 11.848 12.5478 11.848 12.1392V7.46493C11.848 7.36201 11.775 7.27354 11.674 7.25397L11.0332 7.12987C10.9322 7.1103 10.8592 7.02183 10.8592 6.91891V6.18754C10.8592 6.06886 10.9554 5.97266 11.0741 5.97266H14.491C14.6097 5.97266 14.7059 6.06886 14.7059 6.18754V6.9187C14.7059 7.02172 14.6328 7.11024 14.5316 7.12971L13.885 7.25414C13.7839 7.27361 13.7107 7.36213 13.7107 7.46515V12.1392C13.7107 12.8329 13.5534 13.4244 13.2387 13.9138C12.9282 14.399 12.4923 14.7693 11.9309 15.0246C11.3738 15.2757 10.7231 15.4012 9.97887 15.4012Z"
        fill="currentColor" />
</svg>