<!-- <svg width="20" height="21" viewBox="0 0 20 21" fill="none" xmlns="http://www.w3.org/2000/svg">
    <path
        d="M9.15625 20C7.43384 20 6.03125 18.5983 6.03125 16.875C6.03125 16.53 6.31125 16.25 6.65625
16.25C7.00125 16.25 7.28125 16.53 7.28125 16.875C7.28125 17.9092 8.12292 18.75 9.15625
18.75C10.1896
18.75 11.0312 17.9092 11.0312 16.875C11.0312 16.53 11.3112 16.25 11.6562 16.25C12.0013 16.25
12.2812
16.53 12.2812 16.875C12.2812 18.5983 10.8788 20 9.15625 20Z"
        fill="currentColor" stroke="currentColor" stroke-width="0.7" />
    <path
        d="M16.0286 16.5H2.27859C1.47446 16.5 0.820313 15.8459 0.820313 15.0417C0.820313 14.6149 1.00616
14.2109 1.33026 13.9333C1.35117 13.915 1.3736 13.8984 1.39694 13.8833C2.62024 12.8158 3.32031 12.28
3.32031 10.6583V8.33328C3.32031 5.11673 5.93781 2.5 9.15359 2.5C9.28696 2.5 9.43115 2.50244 9.56451
2.52502C9.90524 2.58163 10.1353 2.90421 10.0786 3.24417C10.022 3.58414 9.6936 3.81424 9.35944
3.75748C9.29276 3.74664 9.21951 3.75 9.15359 3.75C6.62704 3.75 4.57031 5.80582 4.57031
8.33328V10.6583C4.57031 12.6717 3.68774 13.5767 2.15118 14.8841C2.13867 14.8942 2.12784 14.9033
2.11441 14.9125C2.09198 14.9409 2.07031 14.9842 2.07031 15.0417C2.07031 15.1549 2.16537 15.25
2.27859 15.25H16.0286C16.142 15.25 16.237 15.1549 16.237 15.0417C16.237 14.9833 16.2154 14.9409
16.192 14.9125C16.1795 14.9033 16.1687 14.8942 16.1562 14.8841C14.6187 13.5758 13.737 12.6717
13.737
10.6583V9.75006C13.737 9.40506 14.017 9.12506 14.362 9.12506C14.707 9.12506 14.987 9.40506 14.987
9.75006V10.6583C14.987 12.2809 15.6879 12.8174 16.9128 13.8859C16.9353 13.9008 16.9569 13.9167
16.9769 13.9342C17.3012 14.2109 17.487 14.6149 17.487 15.0417C17.487 15.8459 16.8329 16.5 16.0286
16.5Z"
        fill="currentColor" stroke="currentColor" stroke-width="0.7" />
    <mask id="path-3-inside-1_0_1" fill="currentColor">
        <path
            d="M14.987 8.33328C12.6895 8.33328 10.8203 6.46423 10.8203 4.16672C10.8203 1.8692 12.6895 0 14.987
0C17.2845 0 19.1536 1.8692 19.1536 4.16672C19.1536 6.46423 17.2845 8.33328 14.987 8.33328ZM14.987
1.25C13.3786 1.25 12.0703 2.55829 12.0703 4.16672C12.0703 5.77499 13.3786 7.08328 14.987
7.08328C16.5953 7.08328 17.9036 5.77499 17.9036 4.16672C17.9036 2.55829 16.5953 1.25 14.987 1.25Z"
/>
    </mask>
    <path
        d="M14.987 8.33328C12.6895 8.33328 10.8203 6.46423 10.8203 4.16672C10.8203 1.8692 12.6895 0 14.987
0C17.2845 0 19.1536 1.8692 19.1536 4.16672C19.1536 6.46423 17.2845 8.33328 14.987 8.33328ZM14.987
1.25C13.3786 1.25 12.0703 2.55829 12.0703 4.16672C12.0703 5.77499 13.3786 7.08328 14.987
7.08328C16.5953 7.08328 17.9036 5.77499 17.9036 4.16672C17.9036 2.55829 16.5953 1.25 14.987 1.25Z"
        fill="currentColor" />
    <path
        d="M14.987 6.33328C13.794 6.33328 12.8203 5.35957 12.8203 4.16672H8.82031C8.82031 7.5689 11.585
10.3333 14.987 10.3333V6.33328ZM12.8203 4.16672C12.8203 2.97377 13.7941 2 14.987 2V-2C11.5849 -2
8.82031 0.764632 8.82031 4.16672H12.8203ZM14.987 2C16.1799 2 17.1536 2.97368 17.1536
4.16672L21.1536
4.16672C21.1536 0.764727 18.3892 -2 14.987 -2V2ZM17.1536 4.16672C17.1536 5.35966 16.18 6.33328
14.987 6.33328V10.3333C18.3891 10.3333 21.1536 7.5688 21.1536 4.16672L17.1536 4.16672ZM14.987
-0.75C12.274 -0.75 10.0703 1.45372 10.0703 4.16672H14.0703C14.0703 3.66286 14.4832 3.25 14.987
3.25V-0.75ZM10.0703 4.16672C10.0703 6.87963 12.2741 9.08328 14.987 9.08328V5.08328C14.4831 5.08328
14.0703 4.67036 14.0703 4.16672H10.0703ZM14.987 9.08328C17.6999 9.08328 19.9036 6.87956 19.9036
4.16672L15.9036 4.16672C15.9036 4.67042 15.4907 5.08328 14.987 5.08328V9.08328ZM19.9036
4.16672C19.9036 1.45379 17.6999 -0.75 14.987 -0.75V3.25C15.4907 3.25 15.9036 3.66279 15.9036
4.16672L19.9036 4.16672Z"
        fill="currentColor" mask="url(#path-3-inside-1_0_1)" />
</svg> -->


<svg width="32" height="32" viewBox="0 0 32 32" fill="none" xmlns="http://www.w3.org/2000/svg">
    <path
        d="M15.1562 26C13.4338 26 12.0312 24.5983 12.0312 22.875C12.0312 22.53 12.3112 22.25 12.6562 22.25C13.0013 22.25 13.2812 22.53 13.2812 22.875C13.2812 23.9092 14.1229 24.75 15.1562 24.75C16.1896 24.75 17.0312 23.9092 17.0312 22.875C17.0312 22.53 17.3112 22.25 17.6562 22.25C18.0013 22.25 18.2812 22.53 18.2812 22.875C18.2812 24.5983 16.8788 26 15.1562 26Z"
        fill="currentColor" stroke="currentColor" stroke-width="0.7" />
    <path
        d="M22.0286 22.5H8.27859C7.47446 22.5 6.82031 21.8459 6.82031 21.0417C6.82031 20.6149 7.00616 20.2109 7.33026 19.9333C7.35117 19.915 7.3736 19.8984 7.39694 19.8833C8.62024 18.8158 9.32031 18.28 9.32031 16.6583V14.3333C9.32031 11.1167 11.9378 8.5 15.1536 8.5C15.287 8.5 15.4312 8.50244 15.5645 8.52502C15.9052 8.58163 16.1353 8.90421 16.0786 9.24417C16.022 9.58414 15.6936 9.81424 15.3594 9.75748C15.2928 9.74664 15.2195 9.75 15.1536 9.75C12.627 9.75 10.5703 11.8058 10.5703 14.3333V16.6583C10.5703 18.6717 9.68774 19.5767 8.15118 20.8841C8.13867 20.8942 8.12784 20.9033 8.11441 20.9125C8.09198 20.9409 8.07031 20.9842 8.07031 21.0417C8.07031 21.1549 8.16537 21.25 8.27859 21.25H22.0286C22.142 21.25 22.237 21.1549 22.237 21.0417C22.237 20.9833 22.2154 20.9409 22.192 20.9125C22.1795 20.9033 22.1687 20.8942 22.1562 20.8841C20.6187 19.5758 19.737 18.6717 19.737 16.6583V15.7501C19.737 15.4051 20.017 15.1251 20.362 15.1251C20.707 15.1251 20.987 15.4051 20.987 15.7501V16.6583C20.987 18.2809 21.6879 18.8174 22.9128 19.8859C22.9353 19.9008 22.9569 19.9167 22.9769 19.9342C23.3012 20.2109 23.487 20.6149 23.487 21.0417C23.487 21.8459 22.8329 22.5 22.0286 22.5Z"
        fill="currentColor" stroke="currentColor" stroke-width="0.7" />
    <mask id="path-3-inside-1_9_21794" fill="transparent">
        <path
            d="M20.987 14.3333C18.6895 14.3333 16.8203 12.4642 16.8203 10.1667C16.8203 7.8692 18.6895 6 20.987 6C23.2845 6 25.1536 7.8692 25.1536 10.1667C25.1536 12.4642 23.2845 14.3333 20.987 14.3333ZM20.987 7.25C19.3786 7.25 18.0703 8.55829 18.0703 10.1667C18.0703 11.775 19.3786 13.0833 20.987 13.0833C22.5953 13.0833 23.9036 11.775 23.9036 10.1667C23.9036 8.55829 22.5953 7.25 20.987 7.25Z" />
    </mask>
    <path
        d="M20.987 14.3333C18.6895 14.3333 16.8203 12.4642 16.8203 10.1667C16.8203 7.8692 18.6895 6 20.987 6C23.2845 6 25.1536 7.8692 25.1536 10.1667C25.1536 12.4642 23.2845 14.3333 20.987 14.3333ZM20.987 7.25C19.3786 7.25 18.0703 8.55829 18.0703 10.1667C18.0703 11.775 19.3786 13.0833 20.987 13.0833C22.5953 13.0833 23.9036 11.775 23.9036 10.1667C23.9036 8.55829 22.5953 7.25 20.987 7.25Z"
        fill="currentColor" />
    <path
        d="M20.987 8.77773C21.7575 8.77773 22.3759 9.39572 22.3759 10.1667H11.2648C11.2648 15.5327 15.6215 19.8888 20.987 19.8888V8.77773ZM22.3759 10.1667C22.3759 10.9374 21.7578 11.5556 20.987 11.5556V0.444445C15.6213 0.444445 11.2648 4.80095 11.2648 10.1667H22.3759ZM20.987 11.5556C20.216 11.5556 19.598 10.9372 19.598 10.1667H30.7092C30.7092 4.80122 26.3531 0.444445 20.987 0.444445V11.5556ZM19.598 10.1667C19.598 9.39598 20.2163 8.77773 20.987 8.77773V19.8888C26.3528 19.8888 30.7092 15.5325 30.7092 10.1667H19.598ZM20.987 1.69444C16.3104 1.69444 12.5148 5.49004 12.5148 10.1667H23.6259C23.6259 11.6265 22.4468 12.8056 20.987 12.8056V1.69444ZM12.5148 10.1667C12.5148 14.8434 16.3105 18.6388 20.987 18.6388V7.52773C22.4467 7.52773 23.6259 8.70656 23.6259 10.1667H12.5148ZM20.987 18.6388C25.6636 18.6388 29.4592 14.8432 29.4592 10.1667H18.348C18.348 8.70675 19.5271 7.52773 20.987 7.52773V18.6388ZM29.4592 10.1667C29.4592 5.49023 25.6637 1.69444 20.987 1.69444V12.8056C19.5269 12.8056 18.348 11.6263 18.348 10.1667H29.4592Z"
        fill="currentColor" mask="url(#path-3-inside-1_9_21794)" />
    <path
        d="M19.9481 12V11.6465L21.0418 10.5133C21.1586 10.3902 21.2549 10.2823 21.3307 10.1897C21.4075 10.0961 21.4648 10.0072 21.5027 9.92298C21.5406 9.8388 21.5595 9.74937 21.5595 9.65467C21.5595 9.54735 21.5342 9.45476 21.4837 9.37689C21.4332 9.29798 21.3643 9.23748 21.277 9.19539C21.1897 9.15225 21.0913 9.13068 20.9818 9.13068C20.8661 9.13068 20.7651 9.15436 20.6788 9.2017C20.5925 9.24905 20.5263 9.31587 20.48 9.40215C20.4337 9.48843 20.4105 9.58944 20.4105 9.70518H19.9449C19.9449 9.50842 19.9902 9.33638 20.0807 9.18908C20.1711 9.04177 20.2953 8.92761 20.4531 8.84659C20.611 8.76452 20.7904 8.72348 20.9913 8.72348C21.1944 8.72348 21.3733 8.76399 21.5279 8.84501C21.6837 8.92498 21.8052 9.03441 21.8925 9.1733C21.9799 9.31113 22.0235 9.46686 22.0235 9.64047C22.0235 9.76042 22.0009 9.87774 21.9557 9.99242C21.9115 10.1071 21.8341 10.235 21.7236 10.3759C21.6132 10.5159 21.4595 10.6858 21.2628 10.8857L20.6204 11.5581V11.5818H22.0756V12H19.9481Z"
        fill="transparent" />
</svg>
    