<svg xmlns="http://www.w3.org/2000/svg" width="22" height="22" viewBox="0 0 22 22" fill="none">
    <path fill-rule="evenodd" clip-rule="evenodd"
        d="M3.29414 13.9987C3.10513 14.0467 3.14915 14.0739 3.1486 14.5974C3.1486 15.0402 3.16278 15.3304 3.18581 15.3582C3.20628 15.383 3.2556 15.4146 3.29538 15.4285C3.33521 15.4423 4.54737 15.6069 5.98906 15.7942C8.14048 16.0738 8.67 16.1502 8.94349 16.2205C9.58067 16.3841 9.97185 16.5509 10.4983 16.8832C11.0025 17.2016 11.0179 17.2024 11.4233 16.9348C11.7505 16.7188 12.1569 16.5131 12.5 16.3898C13.0723 16.1841 13.246 16.1547 16.0194 15.7942C17.461 15.6069 18.6732 15.4423 18.713 15.4285C18.7528 15.4146 18.8021 15.383 18.8226 15.3582C18.8456 15.3303 18.8588 15.3162 18.8588 14.8708V14.3061C18.8588 14.3061 18.8588 13.9912 18.5344 13.9912C18.3029 13.9928 13.2643 14.6643 12.9586 14.7342C12.2823 14.8889 11.638 15.1451 11.112 15.4683L10.9599 15.5617L10.7119 15.4159C10.2119 15.1219 9.58364 14.8794 8.93647 14.7304C8.71342 14.679 7.79827 14.5504 6.06335 14.3266C4.66316 14.146 3.48482 13.9939 3.44481 13.9886C3.40481 13.9832 3.33702 13.9878 3.29414 13.9987Z"
        fill="currentColor" stroke="currentColor" stroke-width="0.392857" />
    <path
        d="M1.74147 17.2526C1.53384 17.1781 1.51209 17.0194 1.69281 16.8982C1.76305 16.851 1.83601 16.8125 1.85501 16.8125C1.8907 16.8125 4.72898 17.2274 6.56701 17.5013C8.05906 17.7237 8.55588 17.8508 9.38733 18.2229C9.78207 18.3996 10.5565 18.882 10.8629 19.1421L11.001 19.2593L11.1416 19.1421C11.8608 18.5425 12.8074 18.0649 13.7873 17.8072C14.344 17.6608 14.3392 17.6616 17.5249 17.1934C20.0091 16.8283 20.1443 16.8116 20.2462 16.8564C20.4687 16.9541 20.4904 17.1493 20.2888 17.238C20.2321 17.2629 19.6476 17.3622 18.9899 17.4588C15.783 17.9295 14.6213 18.1062 14.3628 18.1626C13.2341 18.4091 12.1676 18.9541 11.5024 19.6244C11.0642 20.0659 10.9377 20.0658 10.4986 19.6234C9.83824 18.958 8.78217 18.4173 7.64322 18.1614C7.49033 18.1271 6.11946 17.9155 4.59683 17.6914C3.07425 17.4672 1.78931 17.2698 1.74147 17.2526Z"
        fill="currentColor" stroke="currentColor" stroke-width="0.785714" />
    <path fill-rule="evenodd" clip-rule="evenodd"
        d="M10.8774 1.63486C10.7949 1.66838 9.12765 2.35341 7.17244 3.15714C4.46939 4.26829 3.59593 4.63959 3.5275 4.70661C3.45142 4.78113 3.4375 4.81785 3.4375 4.94412C3.4375 5.18669 3.46633 5.20416 4.70543 5.71339L5.80746 6.16627L5.82327 7.83695C5.83758 9.3507 5.84421 9.52318 5.89407 9.67327C6.06365 10.184 6.30734 10.4536 7.04902 10.9511C7.82876 11.4742 8.81587 11.8491 9.84239 12.0121C10.3271 12.089 11.4841 12.0898 11.9724 12.0135C13.2567 11.8128 14.4066 11.3231 15.4299 10.541C15.674 10.3544 15.8453 10.1512 15.9706 9.89919C16.1247 9.58927 16.1232 9.60788 16.1407 7.85593L16.1573 6.20425L17.2373 5.74496C17.8313 5.49236 18.3476 5.2666 18.3847 5.24326C18.4618 5.19479 18.5422 5.04204 18.5422 4.94421C18.5422 4.83869 18.4583 4.68968 18.3693 4.63712C18.1726 4.52103 11.1852 1.57076 11.1104 1.57227C11.0647 1.57317 10.9599 1.60133 10.8774 1.63486ZM14.1698 3.62601C15.8486 4.34238 17.2223 4.9356 17.2223 4.94421C17.2223 4.95282 15.8458 5.5473 14.1634 6.26525L11.1045 7.57062L8.216 6.3801C6.62731 5.72529 5.20258 5.13849 5.04997 5.07605C4.89733 5.01364 4.77248 4.9546 4.77248 4.9449C4.77248 4.92737 11.0299 2.3331 11.0874 2.32678C11.1039 2.32497 12.491 2.90963 14.1698 3.62601ZM18.0119 7.40762C17.8253 7.50001 17.8223 7.52356 17.8223 8.87273V10.0912L17.8909 10.1935C17.9328 10.2562 18.0026 10.3102 18.0709 10.3327C18.2251 10.3838 18.3826 10.3294 18.4736 10.1935L18.5422 10.0912V8.87273C18.5422 7.51751 18.5396 7.4979 18.3479 7.40654C18.223 7.34705 18.1336 7.34735 18.0119 7.40762ZM8.79241 7.39754C11.5236 8.52005 12.0801 8.7108 12.8791 8.79834C13.1817 8.83147 13.2438 8.85825 13.3238 8.98994C13.3781 9.07934 13.3821 9.14796 13.3822 9.99458L13.3823 10.9033L13.0598 11.0105C11.3824 11.5685 9.60209 11.4618 8.08742 10.7124C7.50048 10.422 6.91717 10.0045 6.73102 9.74165C6.54548 9.47959 6.54245 9.44983 6.54245 7.88744C6.54245 6.76882 6.55028 6.47706 6.57995 6.48878C6.60059 6.49694 7.59618 6.90587 8.79241 7.39754Z"
        fill="currentColor" stroke="currentColor" stroke-width="0.628571" />
</svg>