<svg width="11" height="11" viewBox="0 0 11 11" fill="none" xmlns="http://www.w3.org/2000/svg">
    <g clip-path="url(#clip0_10723_44211)">
        <g clip-path="url(#clip1_10723_44211)">
            <path
                d="M4.51919 7.14257L4.69222 6.80097C4.8253 6.78881 4.94827 6.7192 5.00741 6.60242L6.19197 4.25196C5.92789 4.2033 5.69165 4.08378 5.5069 3.91602L4.30498 6.30071C4.24492 6.41911 4.2671 6.54885 4.34136 6.64938L4.16797 6.99173L4.51919 7.14257Z"
                fill="#404040" />
            <path
                d="M6.45715 3.91945C6.99136 3.91945 7.42601 3.51934 7.42601 3.02759C7.42601 2.53585 6.99136 2.13574 6.45715 2.13574C5.92294 2.13574 5.48828 2.53585 5.48828 3.02759C5.48828 3.51934 5.92294 3.91945 6.45715 3.91945ZM6.26337 2.84922H6.65092V3.20596H6.26337V2.84922Z"
                fill="#404040" />
            <path
                d="M8.60972 6.30079L7.40767 3.91602C7.22291 4.08374 6.98668 4.20322 6.72266 4.25185L7.9073 6.60231C7.96653 6.71932 8.0894 6.78872 8.22246 6.80082L8.39551 7.14247L8.74673 6.99162L8.57342 6.64942C8.64806 6.54823 8.66919 6.41785 8.60972 6.30079Z"
                fill="#404040" />
            <path
                d="M7.04155 1.90432V1.58882C7.04155 1.29375 6.78078 1.05371 6.46023 1.05371C6.13967 1.05371 5.87891 1.29375 5.87891 1.58882V1.90432C6.0558 1.82638 6.2514 1.77908 6.46023 1.77908C6.66905 1.77908 6.86466 1.82638 7.04155 1.90432Z"
                fill="#404040" />
            <path
                d="M8.48828 5.21484L8.7081 5.6488C9.16954 5.79882 9.37674 5.96857 9.37674 6.07212C9.37674 6.15155 9.2687 6.25502 9.08779 6.3489L9.27815 6.65966C9.6799 6.45133 9.76429 6.22523 9.76429 6.07212C9.76429 5.61757 9.08239 5.35706 8.48828 5.21484Z"
                fill="#404040" />
            <path
                d="M6.24203 5.00936L6.05859 5.3715C6.32523 5.36146 6.59225 5.36186 6.85868 5.37192L6.67468 5.00865C6.52979 5.00579 6.38699 5.00653 6.24203 5.00936Z"
                fill="#404040" />
        </g>
        <path
            d="M1.81605 1.69815C1.90001 1.60445 2.04001 1.57118 2.1632 1.61484L3.02339 1.91915C3.12522 1.84566 3.23105 1.77603 3.33997 1.71127L3.33325 1.57025C3.43694 2.00376 3.56613 2.47156 3.71928 2.96466C3.67574 2.99957 3.63116 3.0338 3.58987 3.07104L3.80584 3.23497C3.90913 3.55549 4.02169 3.88569 4.14379 4.22313L3.20028 3.50614C2.75372 4.12869 2.59048 4.91333 2.80421 5.67276L4.36303 5.13663C4.34963 5.03211 4.3524 4.92802 4.36865 4.82638C4.44146 5.01567 4.51582 5.20712 4.59394 5.39957C4.66179 5.56673 4.73192 5.73145 4.80112 5.89443C4.71743 5.82792 4.6416 5.75217 4.57789 5.66598L3.01907 6.20211C3.39866 6.90461 4.08076 7.39832 4.86149 7.59884L5.06179 6.49258C5.20979 6.82267 5.3602 7.14157 5.51055 7.44779L5.4663 7.69399C5.52262 7.69721 5.57874 7.69878 5.63461 7.69901C5.85702 8.14068 6.07946 8.55289 6.29801 8.92894L6.24553 8.86965C6.11723 8.88656 5.98776 8.8978 5.85843 8.90379L5.42612 9.65366C5.36415 9.76074 5.23436 9.81946 5.10431 9.7994L4.45651 9.69944C4.32645 9.67926 4.22479 9.5844 4.20432 9.46444L4.06171 8.62564C3.94205 8.58132 3.82394 8.53185 3.70912 8.47777L2.92694 8.92827C2.81504 8.99275 2.67078 8.98426 2.56893 8.90704L2.06235 8.52237C1.96065 8.44517 1.92355 8.31656 1.97072 8.20328L2.30197 7.41187C2.22203 7.31802 2.14657 7.22059 2.07629 7.12032L1.15599 7.15017C1.02414 7.15454 0.903837 7.08088 0.857552 6.96717L0.627635 6.40073C0.581432 6.2869 0.619506 6.15789 0.72223 6.08153L1.43869 5.54948C1.42031 5.43128 1.40752 5.31142 1.40103 5.19223L0.587541 4.79556C0.470985 4.73864 0.407663 4.61912 0.429421 4.49934L0.537503 3.90224C0.559446 3.78258 0.662363 3.68895 0.792676 3.67011L1.70451 3.53902C1.75264 3.4289 1.8066 3.32034 1.86537 3.21455L1.37516 2.49427C1.30511 2.39131 1.31425 2.25838 1.39817 2.16463L1.81605 1.69815Z"
            fill="#404040" />
        <path
            d="M5.20168 1.29753L4.98715 1.33271C4.11396 0.653497 3.88083 1.03647 3.87342 1.31286C3.78551 4.79767 5.66046 7.41384 6.60891 8.28633C7.48799 8.89605 7.66886 7.99568 7.64941 7.46928L7.8713 7.34721C8.0412 9.42526 7.12288 9.40661 6.64248 9.13752C3.73957 7.42513 2.24815 2.109 3.32547 0.857563C4.06854 0.168724 4.88589 0.863857 5.20168 1.29753Z"
            fill="#760000" />
    </g>
    <defs>
        <clipPath id="clip0_10723_44211">
            <rect width="10.1558" height="10.1558" fill="white" />
        </clipPath>
        <clipPath id="clip1_10723_44211">
            <rect width="6.61413" height="6.08838" fill="white"
                transform="translate(4.77344 1.05371)" />
        </clipPath>
    </defs>
</svg>