<svg xmlns="http://www.w3.org/2000/svg" width="22" height="22" viewBox="0 0 22 22" fill="none">
    <path
        d="M15.7139 8.64258C18.3175 8.64258 20.4287 10.7538 20.4287 13.3574C20.4286 15.9609 18.3174 18.0713 15.7139 18.0713C13.1105 18.0711 11.0002 15.9608 11 13.3574C11 10.7539 13.1104 8.6428 15.7139 8.64258ZM15.3838 12.1006C15.1602 12.1262 14.8818 12.2146 14.4551 12.3945L14.2373 12.4863L14.1875 12.7041C14.1604 12.8235 14.1409 12.9238 14.1436 12.9268C14.1505 12.928 14.2204 12.9063 14.3027 12.877C14.5826 12.7772 14.8562 12.7683 15.0225 12.8545C15.141 12.9159 15.1953 13.0576 15.1953 13.3027C15.1953 13.536 15.1448 13.7779 14.8877 14.7793C14.6936 15.5353 14.6491 15.7427 14.623 16.0107C14.5815 16.4387 14.6568 16.719 14.876 16.958C15.092 17.1935 15.3511 17.288 15.7812 17.2861C16.0559 17.2849 16.1722 17.2646 16.4023 17.1797C16.6206 17.0991 17.0624 16.9113 17.085 16.8896C17.0996 16.8732 17.1922 16.4688 17.1846 16.4551C17.1823 16.4526 17.1382 16.4677 17.0869 16.4883C16.8243 16.5934 16.5097 16.6153 16.332 16.541C16.2383 16.5018 16.1936 16.4558 16.1514 16.3564C16.1259 16.2965 16.1221 16.2602 16.123 16.0801C16.1245 15.7965 16.1555 15.6417 16.4014 14.6816C16.6237 13.8132 16.6487 13.7014 16.6729 13.4746C16.7298 12.9396 16.6716 12.6779 16.4375 12.4219C16.3476 12.3236 16.2912 12.2767 16.2129 12.2344C15.9814 12.1094 15.7022 12.0641 15.3838 12.1006ZM16.2275 9.44043C15.9013 9.51642 15.632 9.76937 15.543 10.083C15.5083 10.2055 15.502 10.4194 15.5293 10.5469C15.5911 10.834 15.8191 11.0975 16.0947 11.2012C16.241 11.2561 16.4549 11.2694 16.6055 11.2324C16.9983 11.136 17.2861 10.7657 17.2861 10.3555C17.2861 10.1007 17.2119 9.90902 17.043 9.72363C16.9183 9.58688 16.8426 9.53389 16.6865 9.47559C16.5701 9.43211 16.3395 9.41435 16.2275 9.44043Z"
        fill="currentColor" />
    <path
        d="M10.7686 1.18555C11.0416 1.19002 11.2016 1.19705 11.3027 1.20801C11.4108 1.21975 11.4639 1.23816 11.5186 1.2666C11.5407 1.27821 11.5627 1.2962 11.5742 1.30566C11.5902 1.31882 11.6099 1.33588 11.6318 1.35547C11.676 1.39501 11.7353 1.4491 11.8057 1.51562C11.9469 1.64916 12.1386 1.8349 12.3633 2.05469C12.8131 2.49457 13.3966 3.07462 13.9775 3.65625C14.5585 4.23792 15.1377 4.82204 15.5762 5.27148C15.7951 5.49591 15.9796 5.68743 16.1123 5.82812C16.1784 5.89821 16.2324 5.95708 16.2715 6.00098C16.2908 6.02268 16.3083 6.04174 16.3213 6.05762C16.3301 6.06839 16.3485 6.09175 16.3604 6.11523C16.3816 6.15783 16.3912 6.20977 16.3975 6.26465C16.4042 6.3239 16.4087 6.408 16.4131 6.52832C16.4219 6.77042 16.4281 7.17482 16.4316 7.85645C16.4338 8.26967 16.4317 8.78575 16.4326 9.43066C16.3544 9.4261 16.2786 9.42854 16.2275 9.44043C15.9013 9.51642 15.632 9.76938 15.543 10.083C15.5083 10.2055 15.5019 10.4194 15.5293 10.5469C15.5911 10.834 15.819 11.0975 16.0947 11.2012C16.1914 11.2375 16.3176 11.2536 16.4355 11.251C16.4356 11.6142 16.4365 12.0035 16.4365 12.4209C16.3471 12.3232 16.291 12.2766 16.2129 12.2344C15.9814 12.1094 15.7022 12.0641 15.3838 12.1006C15.2703 12.1136 15.1423 12.1423 14.9883 12.1914C14.9896 10.8423 14.9922 9.37409 14.9922 7.85742V7.14551H13.6611C13.1776 7.14551 12.7867 7.14203 12.5 7.13477C12.357 7.13114 12.2387 7.12655 12.1475 7.12109C12.0601 7.11586 11.9871 7.10935 11.9414 7.09961C11.2331 6.94795 10.6643 6.38017 10.5127 5.67188C10.5029 5.62616 10.4965 5.55338 10.4912 5.46582C10.4858 5.3746 10.4812 5.25632 10.4775 5.11328C10.4703 4.82655 10.4668 4.43489 10.4668 3.95117V2.62109H3.18359L3.07324 2.6875C3.04649 2.70371 3.01202 2.73193 2.97949 2.76465L2.91504 2.84375V2.84473C2.91419 2.8474 2.91244 2.85474 2.91016 2.86816C2.90541 2.89623 2.90011 2.94389 2.89551 3.02832C2.8863 3.19712 2.87955 3.49333 2.875 4.03027C2.86592 5.10262 2.86501 7.12327 2.86426 10.9775C2.86348 14.9082 2.8631 16.9287 2.87207 17.9834C2.87656 18.5113 2.88391 18.7939 2.89355 18.9521C2.90314 19.1093 2.91501 19.1234 2.91699 19.127C2.94351 19.1789 3.0122 19.2501 3.07617 19.2861L3.19043 19.3506H8.9248C11.7818 19.3506 13.2246 19.3504 13.9717 19.3408C14.3461 19.336 14.5405 19.3293 14.6494 19.3193C14.7031 19.3144 14.7304 19.3086 14.7451 19.3047C14.7566 19.3016 14.763 19.2993 14.7773 19.292C14.8395 19.2602 14.8906 19.2075 14.9248 19.1465C14.9251 19.144 14.9264 19.1408 14.9268 19.1377C14.9294 19.1146 14.9318 19.0806 14.9346 19.0352C14.9401 18.9438 14.9456 18.813 14.9502 18.6455C14.9603 18.275 14.9678 17.7318 14.9736 17.0508C15.1713 17.2178 15.4135 17.2867 15.7812 17.2852C16.0559 17.284 16.1722 17.2646 16.4023 17.1797C16.4106 17.1766 16.4188 17.1723 16.4277 17.1689C16.4247 17.8182 16.4232 18.3074 16.418 18.6523C16.415 18.8481 16.412 18.9984 16.4082 19.1055C16.4063 19.1589 16.4036 19.2027 16.4014 19.2363C16.3994 19.2663 16.3974 19.298 16.3926 19.3213C16.246 20.0212 15.6636 20.6034 14.9629 20.751C14.9403 20.7557 14.9078 20.7582 14.8809 20.7598C14.8489 20.7616 14.807 20.763 14.7568 20.7646C14.656 20.768 14.5172 20.7706 14.3467 20.7734C14.0053 20.7791 13.5331 20.7844 12.9746 20.7881C11.8572 20.7955 10.3912 20.7989 8.92578 20.7988C7.46048 20.7987 5.99476 20.7947 4.87793 20.7871C4.31985 20.7833 3.84781 20.7791 3.50684 20.7734C3.33648 20.7706 3.19725 20.767 3.09668 20.7637C3.04688 20.762 3.00536 20.7607 2.97363 20.7588C2.94714 20.7572 2.91433 20.7548 2.8916 20.75C2.18337 20.5984 1.61454 20.0305 1.46289 19.3223C1.45764 19.2976 1.45561 19.2574 1.4541 19.2246C1.45226 19.1844 1.45088 19.1302 1.44922 19.0635C1.44589 18.9295 1.44327 18.741 1.44043 18.5078C1.43475 18.0412 1.42959 17.3899 1.42578 16.6162C1.41817 15.0682 1.41415 13.0276 1.41406 10.9873C1.41398 8.94702 1.41733 6.90595 1.4248 5.35742C1.42854 4.5834 1.43381 3.93184 1.43945 3.46484C1.44227 3.23147 1.44492 3.04343 1.44824 2.90918C1.4499 2.84222 1.45226 2.78741 1.4541 2.74707C1.45561 2.714 1.45779 2.67472 1.46289 2.65039C1.53814 2.29263 1.7025 1.99477 1.96973 1.72852C2.2285 1.47073 2.49106 1.31996 2.83691 1.2334C2.89245 1.21952 3.00092 1.21205 3.1582 1.20605C3.32388 1.19975 3.5635 1.19529 3.89551 1.19141C4.56027 1.18363 5.6027 1.17994 7.18457 1.17871C9.18521 1.17715 10.219 1.17656 10.7686 1.18555ZM8.88672 16.0078C8.99303 16.0124 9.06659 16.0195 9.12207 16.043C9.15545 16.0571 9.17783 16.0752 9.18652 16.082C9.19257 16.0867 9.19448 16.0874 9.19922 16.0898C9.31384 16.1483 9.40872 16.2473 9.47461 16.3545C9.54044 16.4617 9.58586 16.5911 9.58594 16.7197C9.58594 16.8484 9.54045 16.9777 9.47461 17.085C9.40872 17.1923 9.31394 17.2911 9.19922 17.3496C9.1943 17.3521 9.19269 17.3536 9.18652 17.3584C9.17781 17.3652 9.1553 17.3833 9.12207 17.3975C9.06667 17.4209 8.99367 17.428 8.8877 17.4326C8.66048 17.4426 8.16139 17.4424 7.00977 17.4424C5.85697 17.4424 5.25776 17.4425 4.92969 17.4326C4.7668 17.4277 4.66249 17.4197 4.58789 17.4072C4.50548 17.3934 4.45795 17.3735 4.41113 17.3496C4.29656 17.291 4.20157 17.1922 4.13574 17.085C4.06997 16.9777 4.02539 16.8483 4.02539 16.7197C4.02547 16.5936 4.07005 16.4647 4.13379 16.3584C4.19752 16.2522 4.28998 16.1516 4.40137 16.0928C4.50496 16.0381 4.5958 16.0206 4.92188 16.0107C5.25201 16.0008 5.85307 15.9998 7.00195 15.999C8.15771 15.9982 8.6586 15.9981 8.88672 16.0078ZM16.4346 14.5459C16.4338 15.3232 16.4335 15.9949 16.4316 16.5684C16.3954 16.5613 16.3616 16.5534 16.332 16.541C16.2383 16.5018 16.1936 16.4558 16.1514 16.3564C16.1259 16.2965 16.1221 16.2603 16.123 16.0801C16.1245 15.7965 16.1555 15.6418 16.4014 14.6816C16.4135 14.6344 16.4236 14.5888 16.4346 14.5459ZM8.87988 13.7451C8.95147 13.7502 9.00912 13.7583 9.06152 13.7725C9.11527 13.787 9.15798 13.8071 9.19922 13.8281C9.3137 13.8866 9.40876 13.9847 9.47461 14.0918C9.5404 14.1989 9.58581 14.3285 9.58594 14.457C9.58594 14.5856 9.5404 14.715 9.47461 14.8223C9.40874 14.9295 9.3139 15.0284 9.19922 15.0869C9.10631 15.1343 9.03179 15.1588 8.88086 15.1699C8.74161 15.1801 8.52347 15.1807 8.1416 15.1807C6.42121 15.1807 5.54036 15.1796 5.07227 15.1699C4.61389 15.1604 4.52176 15.1434 4.41113 15.0869C4.2966 15.0283 4.20155 14.9294 4.13574 14.8223C4.07003 14.7151 4.02539 14.5855 4.02539 14.457C4.02552 14.3312 4.07022 14.2028 4.13379 14.0967C4.19748 13.9905 4.29003 13.8899 4.40137 13.8311C4.50927 13.7741 4.60843 13.7576 5.06738 13.748C5.5385 13.7383 6.42099 13.7371 8.13281 13.7363C8.51955 13.7355 8.73985 13.7352 8.87988 13.7451ZM15.0225 12.8545C15.141 12.9159 15.1953 13.0576 15.1953 13.3027C15.1953 13.5022 15.1577 13.7074 14.9863 14.3887C14.9876 13.898 14.9866 13.3801 14.9873 12.8398C14.9993 12.8447 15.0114 12.8488 15.0225 12.8545ZM8.87988 11.4824C8.95155 11.4875 9.00907 11.4966 9.06152 11.5107C9.11526 11.5253 9.15798 11.5444 9.19922 11.5654C9.31389 11.624 9.40873 11.7228 9.47461 11.8301C9.54042 11.9373 9.58592 12.0667 9.58594 12.1953C9.58587 12.3239 9.54044 12.4533 9.47461 12.5605C9.40876 12.6677 9.31376 12.7657 9.19922 12.8242C9.10631 12.8716 9.03178 12.8961 8.88086 12.9072C8.74161 12.9174 8.52347 12.918 8.1416 12.918C6.42121 12.918 5.54036 12.9169 5.07227 12.9072C4.61389 12.8977 4.52176 12.8807 4.41113 12.8242C4.2967 12.7657 4.20153 12.6676 4.13574 12.5605C4.06996 12.4534 4.02546 12.3239 4.02539 12.1953C4.02541 12.0692 4.07009 11.9403 4.13379 11.834C4.1975 11.7278 4.28999 11.6272 4.40137 11.5684C4.50927 11.5114 4.60843 11.4949 5.06738 11.4854C5.5385 11.4756 6.421 11.4744 8.13281 11.4736C8.51955 11.4728 8.73985 11.4725 8.87988 11.4824ZM10.248 9.21973C10.4127 9.22445 10.5177 9.23172 10.5928 9.24414C10.6759 9.25796 10.7236 9.2788 10.7705 9.30273C10.8852 9.36125 10.98 9.46013 11.0459 9.56738C11.1118 9.67466 11.1572 9.80393 11.1572 9.93262C11.1572 10.0613 11.1118 10.1906 11.0459 10.2979C10.98 10.4051 10.8852 10.504 10.7705 10.5625C10.7235 10.5865 10.6758 10.6063 10.5928 10.6201C10.5178 10.6326 10.4131 10.6407 10.249 10.6455C9.91764 10.6553 9.31093 10.6553 8.1416 10.6553C6.42121 10.6553 5.54036 10.6552 5.07227 10.6455C4.61388 10.636 4.52176 10.6189 4.41113 10.5625C4.29651 10.5039 4.20159 10.4051 4.13574 10.2979C4.06992 10.1906 4.02541 10.0613 4.02539 9.93262C4.02541 9.80648 4.07004 9.67759 4.13379 9.57129C4.19752 9.46505 4.28995 9.36452 4.40137 9.30566C4.50927 9.24871 4.60843 9.23221 5.06738 9.22266C5.53856 9.21287 6.42154 9.21272 8.13379 9.21191C9.30774 9.2111 9.91591 9.2102 10.248 9.21973ZM11.9121 4.3418C11.9121 4.95823 11.9161 5.25553 11.9502 5.42188C11.9658 5.49761 11.9854 5.53067 12.0029 5.55078C12.0241 5.57484 12.0562 5.59694 12.127 5.63672C12.1627 5.65681 12.1792 5.6646 12.2002 5.6709C12.223 5.67769 12.2592 5.68499 12.3311 5.68945C12.4781 5.69857 12.736 5.69634 13.2588 5.69141L13.9434 5.68457L11.9121 3.65332V4.3418Z"
        fill="currentColor" />
</svg>