<svg width="125" height="33" viewBox="0 0 125 33" fill="none" xmlns="http://www.w3.org/2000/svg">
    <g clip-path="url(#clip0_5308_14286)">
        <path d="M59.17 5.73441L60.0865 5.74183L59.9537 30.2601L59.0372 30.2527L59.17 5.73441Z"
            fill="url(#paint0_linear_5308_14286)" />
        <path
            d="M50.0947 5.68058L50.1105 16.7246C50.113 19.2642 49.9544 20.4403 49.8203 20.9776C49.6415 21.6871 49.3203 22.3506 48.8565 22.9476C48.406 23.5306 47.8458 23.9916 47.1824 24.3168C46.5258 24.6419 45.7319 24.8042 44.8143 24.8105C43.9034 24.8097 43.0503 24.6091 42.2619 24.2085C41.5006 23.8213 40.913 23.308 40.5058 22.6686C40.0847 22.0088 39.8321 21.326 39.7614 20.6268C39.6749 19.7701 39.6293 18.4597 39.6247 16.7232L39.6089 5.67914L34.2312 5.68721L34.235 7.37571C36.4091 10.31 37.7027 13.9569 37.7119 17.9105C37.7176 20.6766 37.0869 23.2939 35.9663 25.6231C36.2283 26.0175 36.5104 26.3978 36.8327 26.757C37.7926 27.8278 39.0057 28.6685 40.4378 29.259C41.8428 29.8361 43.4327 30.1292 45.1601 30.132C47.38 30.1278 49.3552 29.5231 51.0183 28.3325C52.6748 27.1419 53.8544 25.6356 54.5171 23.8484C55.154 22.137 55.4581 19.8058 55.4545 16.717L55.4387 5.67299L50.0947 5.68058Z"
            fill="url(#paint1_linear_5308_14286)" />
        <path d="M0.566642 5.7094L0.595703 30.1631L5.94596 30.1592L5.9169 5.70548L0.566642 5.7094Z"
            fill="url(#paint2_linear_5308_14286)" />
        <path
            d="M19.6043 25.0344C17.8769 25.0385 16.4445 24.4274 15.2323 23.1749C14.2667 22.1796 13.6755 20.9457 13.4245 19.4323L31.3932 19.4162L31.3609 18.0988C31.2738 14.3592 30.1039 11.3419 27.893 9.13581C25.6753 6.92977 22.913 5.80915 19.6675 5.81426C16.4085 5.81956 13.6322 7.02605 11.4192 9.41198C9.22627 11.777 8.11339 14.6483 8.11325 17.9499C8.11986 21.2514 9.22678 24.1117 11.4195 26.4622C13.6261 28.8332 16.457 30.0352 19.8239 30.0283C24.5404 30.0228 28.1447 27.7269 30.5293 23.1901L31.1395 21.9733L25.4372 21.9311C24.0297 24.0172 22.1076 25.0331 19.6043 25.0344ZM19.7 10.9344C21.2654 10.9326 22.608 11.3871 23.8021 12.3173C24.5799 12.924 25.1505 13.664 25.5347 14.5783L14.1043 14.5835C15.2164 12.1309 17.0549 10.9309 19.7 10.9344Z"
            fill="#D00000" />
        <path
            d="M32.1288 28.7544L31.7471 30.3797L30.7098 29.0835L29.0722 29.2167L29.9631 27.8176L29.3339 26.2754L30.9187 26.6989L32.165 25.6173L32.2562 27.2838L33.6586 28.1561L32.1288 28.7544Z"
            fill="#D00000" />
        <path
            d="M35.3112 21.3162L35.7726 22.9157L34.2392 22.3198L32.8898 23.2657L32.974 21.5966L31.6708 20.5788L33.2569 20.1444L33.8079 18.5717L34.6983 19.9728L36.3385 20.0181L35.3112 21.3162Z"
            fill="#D00000" />
        <path
            d="M34.7646 12.7511L35.9683 13.887L34.353 14.1708L33.6662 15.6906L32.8962 14.2122L31.2674 14.0158L32.4108 12.819L32.0905 11.1763L33.5652 11.9171L34.9974 11.1005L34.7646 12.7511Z"
            fill="#D00000" />
        <path
            d="M30.1371 5.80953L31.7347 6.17796L30.4747 7.24605L30.6267 8.91172L29.2376 8.01869L27.729 8.68538L28.1309 7.05986L27.0469 5.80557L28.6849 5.69298L29.5213 4.2603L30.1371 5.80953Z"
            fill="#D00000" />
        <path
            d="M22.7778 2.17355L24.3496 1.67755L23.7782 3.24372L24.722 4.60983L23.0815 4.544L22.102 5.88263L21.654 4.26923L20.1012 3.72857L21.4644 2.80314L21.4878 1.13497L22.7778 2.17355Z"
            fill="#D00000" />
        <path
            d="M14.5464 2.75788L15.6624 1.53398L15.9422 3.17724L17.4366 3.87659L15.9836 4.65917L15.7913 6.31602L14.6142 5.15228L12.9996 5.47731L13.7271 3.97755L12.9237 2.52022L14.5464 2.75788Z"
            fill="#D00000" />
        <path
            d="M7.73407 7.44723L8.09547 5.82228L9.14607 7.1045L10.7834 6.95074L9.90621 8.36341L10.5556 9.89844L8.96417 9.48873L7.73168 10.5908L7.6202 8.92451L6.2113 8.06607L7.73407 7.44723Z"
            fill="#D00000" />
        <path
            d="M65.0414 5.49209L65.0414 11.2051L63.7662 11.2051L63.7662 5.49209L65.0414 5.49209ZM70.7858 5.49209L70.7858 11.2051L69.5105 11.2051L67.3525 7.51283L67.3525 11.2051L66.0733 11.2051L66.0733 5.49209L67.3525 5.49209L69.5145 9.18434L69.5145 5.49209L70.7858 5.49209ZM74.274 5.49209L74.274 11.2051L72.9988 11.2051L72.9988 5.49209L74.274 5.49209ZM76.0122 5.49209L76.0122 6.4848L71.2958 6.4848L71.2958 5.49209L76.0122 5.49209ZM80.5284 10.2163L80.5284 11.2051L77.4875 11.2051L77.4875 10.2163L80.5284 10.2163ZM77.9231 5.49209L77.9231 11.2051L76.6439 11.2051L76.6439 5.49209L77.9231 5.49209ZM80.1361 7.79141L80.1361 8.74881L77.4875 8.74881L77.4875 7.79141L80.1361 7.79141ZM80.5324 5.49209L80.5324 6.4848L77.4875 6.4848L77.4875 5.49209L80.5324 5.49209ZM81.1562 5.49209L83.3496 5.49209C83.7865 5.49209 84.1644 5.55749 84.4836 5.68828C84.8053 5.81907 85.0525 6.01264 85.2252 6.269C85.3978 6.52535 85.4841 6.84186 85.4841 7.21854C85.4841 7.53244 85.4331 7.79926 85.3311 8.01899C85.2291 8.23872 85.0852 8.42052 84.8995 8.56439C84.7164 8.70826 84.5019 8.82467 84.256 8.91361L83.8401 9.14118L81.9724 9.14118L81.9645 8.14847L83.3535 8.14847C83.5445 8.14847 83.7027 8.11447 83.8283 8.04646C83.9539 7.97844 84.048 7.88297 84.1108 7.76002C84.1762 7.63446 84.2089 7.48798 84.2089 7.32056C84.2089 7.14792 84.1762 6.99881 84.1108 6.87325C84.0454 6.74769 83.9486 6.65222 83.8205 6.58682C83.6949 6.51881 83.538 6.4848 83.3496 6.4848L82.4354 6.4848L82.4354 11.2051L81.1562 11.2051L81.1562 5.49209ZM84.3188 11.2051L83.0357 8.66641L84.3855 8.66249L85.6882 11.1462L85.6882 11.2051L84.3188 11.2051ZM91.0637 5.49209L91.0637 11.2051L89.7885 11.2051L87.6304 7.51283L87.6304 11.2051L86.3513 11.2051L86.3513 5.49209L87.6304 5.49209L89.7924 9.18434L89.7924 5.49209L91.0637 5.49209ZM94.4538 6.57897L92.9785 11.2051L91.613 11.2051L93.7279 5.49209L94.5912 5.49209L94.4538 6.57897ZM95.678 11.2051L94.1988 6.57897L94.0458 5.49209L94.9208 5.49209L97.0435 11.2051L95.678 11.2051ZM95.6153 9.0784L95.6153 10.0672L92.6371 10.0672L92.6371 9.0784L95.6153 9.0784ZM99.6999 5.49209L99.6999 11.2051L98.4247 11.2051L98.4247 5.49209L99.6999 5.49209ZM101.438 5.49209L101.438 6.4848L96.7218 6.4848L96.7218 5.49209L101.438 5.49209ZM103.431 5.49209L103.431 11.2051L102.156 11.2051L102.156 5.49209L103.431 5.49209ZM109.227 8.22303L109.227 8.47807C109.227 8.9123 109.167 9.30206 109.046 9.64735C108.929 9.99264 108.76 10.2869 108.54 10.5302C108.323 10.7735 108.064 10.9605 107.763 11.0913C107.465 11.2195 107.134 11.2836 106.77 11.2836C106.407 11.2836 106.075 11.2195 105.774 11.0913C105.473 10.9605 105.211 10.7735 104.989 10.5302C104.769 10.2869 104.599 9.99264 104.479 9.64735C104.359 9.30206 104.299 8.9123 104.299 8.47807L104.299 8.22303C104.299 7.7888 104.359 7.39904 104.479 7.05375C104.599 6.70584 104.768 6.41025 104.985 6.16698C105.205 5.92371 105.465 5.73798 105.766 5.60981C106.067 5.47901 106.399 5.41362 106.763 5.41362C107.126 5.41362 107.458 5.47901 107.759 5.60981C108.06 5.73798 108.319 5.92371 108.536 6.16698C108.756 6.41025 108.926 6.70584 109.046 7.05375C109.167 7.39904 109.227 7.7888 109.227 8.22303ZM107.936 8.47807L107.936 8.21518C107.936 7.92482 107.91 7.66847 107.857 7.44612C107.805 7.22116 107.729 7.03282 107.63 6.8811C107.53 6.72938 107.407 6.61559 107.261 6.53973C107.114 6.46126 106.948 6.42202 106.763 6.42202C106.569 6.42202 106.4 6.46126 106.256 6.53973C106.113 6.61559 105.991 6.72938 105.892 6.8811C105.795 7.03282 105.72 7.22116 105.668 7.44612C105.618 7.66847 105.593 7.92482 105.593 8.21518L105.593 8.47807C105.593 8.76581 105.618 9.02216 105.668 9.24712C105.72 9.46947 105.796 9.65781 105.896 9.81215C105.995 9.96648 106.117 10.0829 106.26 10.1614C106.407 10.2398 106.577 10.2791 106.77 10.2791C106.956 10.2791 107.121 10.2398 107.265 10.1614C107.411 10.0829 107.534 9.96648 107.634 9.81215C107.733 9.65781 107.808 9.46947 107.857 9.24712C107.91 9.02216 107.936 8.76581 107.936 8.47807ZM114.724 5.49209L114.724 11.2051L113.449 11.2051L111.291 7.51283L111.291 11.2051L110.012 11.2051L110.012 5.49209L111.291 5.49209L113.453 9.18434L113.453 5.49209L114.724 5.49209ZM118.114 6.57897L116.639 11.2051L115.273 11.2051L117.388 5.49209L118.251 5.49209L118.114 6.57897ZM119.338 11.2051L117.859 6.57897L117.706 5.49209L118.581 5.49209L120.704 11.2051L119.338 11.2051ZM119.276 9.0784L119.276 10.0672L116.297 10.0672L116.297 9.0784L119.276 9.0784ZM124.906 10.2163L124.906 11.2051L122.022 11.2051L122.022 10.2163L124.906 10.2163ZM122.458 5.49209L122.458 11.2051L121.179 11.2051L121.179 5.49209L122.458 5.49209ZM67.5644 20.2163L67.5644 21.2051L64.5234 21.2051L64.5234 20.2163L67.5644 20.2163ZM64.959 15.4921L64.959 21.2051L63.6798 21.2051L63.6798 15.4921L64.959 15.4921ZM67.172 17.7914L67.172 18.7488L64.5234 18.7488L64.5234 17.7914L67.172 17.7914ZM67.5683 15.4921L67.5683 16.4848L64.5234 16.4848L64.5234 15.4921L67.5683 15.4921ZM71.3194 15.4921L72.5985 15.4921L72.5985 19.2432C72.5985 19.6879 72.5044 20.062 72.316 20.3654C72.1303 20.6688 71.8713 20.8977 71.5391 21.0521C71.2069 21.2064 70.8224 21.2836 70.3855 21.2836C69.9461 21.2836 69.5589 21.2064 69.2241 21.0521C68.8919 20.8977 68.6303 20.6688 68.4393 20.3654C68.251 20.062 68.1568 19.6879 68.1568 19.2432L68.1568 15.4921L69.4399 15.4921L69.4399 19.2432C69.4399 19.4891 69.4765 19.6905 69.5498 19.8475C69.6256 20.0018 69.7342 20.1156 69.8754 20.1888C70.0167 20.2595 70.1867 20.2948 70.3855 20.2948C70.5843 20.2948 70.7531 20.2595 70.8917 20.1888C71.0329 20.1156 71.1389 20.0018 71.2095 19.8475C71.2828 19.6905 71.3194 19.4891 71.3194 19.2432L71.3194 15.4921ZM73.5128 15.4921L75.7061 15.4921C76.143 15.4921 76.521 15.5575 76.8401 15.6883C77.1619 15.8191 77.409 16.0126 77.5817 16.269C77.7543 16.5253 77.8407 16.8419 77.8407 17.2185C77.8407 17.5324 77.7897 17.7993 77.6876 18.019C77.5856 18.2387 77.4417 18.4205 77.256 18.5644C77.0729 18.7083 76.8584 18.8247 76.6125 18.9136L76.1966 19.1412L74.3289 19.1412L74.3211 18.1485L75.7101 18.1485C75.901 18.1485 76.0593 18.1145 76.1848 18.0465C76.3104 17.9784 76.4046 17.883 76.4673 17.76C76.5327 17.6345 76.5654 17.488 76.5654 17.3206C76.5654 17.1479 76.5327 16.9988 76.4673 16.8733C76.402 16.7477 76.3052 16.6522 76.177 16.5868C76.0514 16.5188 75.8945 16.4848 75.7061 16.4848L74.7919 16.4848L74.7919 21.2051L73.5128 21.2051L73.5128 15.4921ZM76.6753 21.2051L75.3922 18.6664L76.742 18.6625L78.0447 21.1462L78.0447 21.2051L76.6753 21.2051ZM83.4712 18.223L83.4712 18.4781C83.4712 18.9123 83.4111 19.3021 83.2908 19.6473C83.173 19.9926 83.0043 20.2869 82.7846 20.5302C82.5675 20.7735 82.3085 20.9605 82.0077 21.0913C81.7095 21.2195 81.3786 21.2836 81.015 21.2836C80.6514 21.2836 80.3192 21.2195 80.0183 21.0913C79.7175 20.9605 79.4559 20.7735 79.2336 20.5302C79.0139 20.2869 78.8438 19.9926 78.7235 19.6473C78.6032 19.3021 78.543 18.9123 78.543 18.4781L78.543 18.223C78.543 17.7888 78.6032 17.399 78.7235 17.0537C78.8438 16.7058 79.0126 16.4103 79.2297 16.167C79.4494 15.9237 79.7097 15.738 80.0105 15.6098C80.3113 15.479 80.6435 15.4136 81.0071 15.4136C81.3707 15.4136 81.7029 15.479 82.0038 15.6098C82.3046 15.738 82.5636 15.9237 82.7807 16.167C83.0004 16.4103 83.1704 16.7058 83.2908 17.0537C83.4111 17.399 83.4712 17.7888 83.4712 18.223ZM82.1803 18.4781L82.1803 18.2152C82.1803 17.9248 82.1542 17.6685 82.1019 17.4461C82.0495 17.2212 81.9737 17.0328 81.8743 16.8811C81.7749 16.7294 81.6519 16.6156 81.5054 16.5397C81.359 16.4613 81.1929 16.422 81.0071 16.422C80.8136 16.422 80.6448 16.4613 80.501 16.5397C80.3571 16.6156 80.2355 16.7294 80.1361 16.8811C80.0393 17.0328 79.9647 17.2212 79.9124 17.4461C79.8627 17.6685 79.8379 17.9248 79.8379 18.2152L79.8379 18.4781C79.8379 18.7658 79.8627 19.0222 79.9124 19.2471C79.9647 19.4695 80.0406 19.6578 80.14 19.8121C80.2394 19.9665 80.361 20.0829 80.5049 20.1614C80.6514 20.2398 80.8214 20.2791 81.015 20.2791C81.2007 20.2791 81.3655 20.2398 81.5094 20.1614C81.6559 20.0829 81.7788 19.9665 81.8782 19.8121C81.9776 19.6578 82.0522 19.4695 82.1019 19.2471C82.1542 19.0222 82.1803 18.7658 82.1803 18.4781ZM86.5082 19.2197L85.0721 19.2197L85.0721 18.2269L86.5082 18.2269C86.7201 18.2269 86.8901 18.1916 87.0183 18.121C87.1491 18.0504 87.2446 17.9536 87.3048 17.8306C87.3675 17.7051 87.3989 17.5638 87.3989 17.4069C87.3989 17.2447 87.3675 17.0943 87.3048 16.9557C87.2446 16.8144 87.1491 16.7006 87.0183 16.6143C86.8901 16.528 86.7201 16.4848 86.5082 16.4848L85.5351 16.4848L85.5351 21.2051L84.256 21.2051L84.256 15.4921L86.5082 15.4921C86.9634 15.4921 87.3531 15.5745 87.6775 15.7393C88.0045 15.9041 88.2543 16.1304 88.4269 16.4181C88.6022 16.7032 88.6898 17.0302 88.6898 17.399C88.6898 17.7679 88.6022 18.0883 88.4269 18.3604C88.2543 18.6324 88.0045 18.8443 87.6775 18.996C87.3531 19.1451 86.9634 19.2197 86.5082 19.2197ZM93.3513 20.2163L93.3513 21.2051L90.3104 21.2051L90.3104 20.2163L93.3513 20.2163ZM90.7459 15.4921L90.7459 21.2051L89.4667 21.2051L89.4667 15.4921L90.7459 15.4921ZM92.9589 17.7914L92.9589 18.7488L90.3104 18.7488L90.3104 17.7914L92.9589 17.7914ZM93.3552 15.4921L93.3552 16.4848L90.3104 16.4848L90.3104 15.4921L93.3552 15.4921ZM96.3529 16.579L94.8776 21.2051L93.5121 21.2051L95.627 15.4921L96.4903 15.4921L96.3529 16.579ZM97.5771 21.2051L96.0979 16.579L95.9449 15.4921L96.8199 15.4921L98.9426 21.2051L97.5771 21.2051ZM97.5144 19.0784L97.5144 20.0672L94.5362 20.0672L94.5362 19.0784L97.5144 19.0784ZM104.13 15.4921L104.13 21.2051L102.855 21.2051L100.697 17.5128L100.697 21.2051L99.4174 21.2051L99.4174 15.4921L100.697 15.4921L102.859 19.1843L102.859 15.4921L104.13 15.4921ZM66.8071 24.4921L68.0862 24.4921L68.0862 28.2432C68.0862 28.6879 67.992 29.062 67.8037 29.3654C67.618 29.6688 67.359 29.8977 67.0268 30.0521C66.6946 30.2064 66.3101 30.2836 65.8732 30.2836C65.4338 30.2836 65.0466 30.2064 64.7118 30.0521C64.3796 29.8977 64.118 29.6688 63.927 29.3654C63.7387 29.062 63.6445 28.6879 63.6445 28.2432L63.6445 24.4921L64.9276 24.4921L64.9276 28.2432C64.9276 28.4891 64.9642 28.6905 65.0375 28.8475C65.1133 29.0018 65.2219 29.1156 65.3631 29.1888C65.5044 29.2595 65.6744 29.2948 65.8732 29.2948C66.072 29.2948 66.2407 29.2595 66.3794 29.1888C66.5206 29.1156 66.6266 29.0018 66.6972 28.8475C66.7704 28.6905 66.8071 28.4891 66.8071 28.2432L66.8071 24.4921ZM73.7129 24.4921L73.7129 30.2051L72.4377 30.2051L70.2796 26.5128L70.2796 30.2051L69.0004 30.2051L69.0004 24.4921L70.2796 24.4921L72.4416 28.1843L72.4416 24.4921L73.7129 24.4921ZM76.02 24.4921L76.02 30.2051L74.7448 30.2051L74.7448 24.4921L76.02 24.4921ZM79.163 28.9377L80.4343 24.4921L81.8586 24.4921L79.9006 30.2051L78.9707 30.2051L79.163 28.9377ZM78.0055 24.4921L79.2728 28.9377L79.4729 30.2051L78.5312 30.2051L76.5851 24.4921L78.0055 24.4921ZM86.2179 29.2163L86.2179 30.2051L83.177 30.2051L83.177 29.2163L86.2179 29.2163ZM83.6125 24.4921L83.6125 30.2051L82.3334 30.2051L82.3334 24.4921L83.6125 24.4921ZM85.8255 26.7914L85.8255 27.7488L83.177 27.7488L83.177 26.7914L85.8255 26.7914ZM86.2218 24.4921L86.2218 25.4848L83.177 25.4848L83.177 24.4921L86.2218 24.4921ZM86.8457 24.4921L89.0391 24.4921C89.4759 24.4921 89.8539 24.5575 90.173 24.6883C90.4948 24.8191 90.742 25.0126 90.9146 25.269C91.0873 25.5253 91.1736 25.8419 91.1736 26.2185C91.1736 26.5324 91.1226 26.7993 91.0206 27.019C90.9185 27.2387 90.7747 27.4205 90.5889 27.5644C90.4058 27.7083 90.1913 27.8247 89.9454 27.9136L89.5295 28.1412L87.6618 28.1412L87.654 27.1485L89.043 27.1485C89.2339 27.1485 89.3922 27.1145 89.5178 27.0465C89.6433 26.9784 89.7375 26.883 89.8003 26.76C89.8657 26.6345 89.8984 26.488 89.8984 26.3206C89.8984 26.1479 89.8657 25.9988 89.8003 25.8733C89.7349 25.7477 89.6381 25.6522 89.5099 25.5868C89.3843 25.5188 89.2274 25.4848 89.0391 25.4848L88.1248 25.4848L88.1248 30.2051L86.8457 30.2051L86.8457 24.4921ZM90.0082 30.2051L88.7252 27.6664L90.0749 27.6625L91.3776 30.1462L91.3776 30.2051L90.0082 30.2051ZM95.0032 28.6984C95.0032 28.6016 94.9888 28.5152 94.96 28.4394C94.9312 28.3609 94.8789 28.289 94.803 28.2236C94.7272 28.1582 94.6199 28.0928 94.4813 28.0274C94.3427 27.9594 94.1609 27.8901 93.9359 27.8194C93.6795 27.7357 93.435 27.6416 93.2022 27.5369C92.972 27.4297 92.7666 27.3054 92.5861 27.1642C92.4056 27.0229 92.2631 26.8581 92.1584 26.6698C92.0564 26.4814 92.0054 26.2617 92.0054 26.0106C92.0054 25.7673 92.059 25.5476 92.1663 25.3514C92.2735 25.1552 92.4239 24.9878 92.6175 24.8492C92.8111 24.7079 93.0387 24.6006 93.3003 24.5274C93.5618 24.4515 93.8496 24.4136 94.1635 24.4136C94.582 24.4136 94.9495 24.4882 95.2661 24.6373C95.5852 24.7838 95.8337 24.9904 96.0116 25.2572C96.1894 25.5214 96.2784 25.8288 96.2784 26.1793L95.0071 26.1793C95.0071 26.025 94.9744 25.8889 94.909 25.7712C94.8462 25.6509 94.7494 25.5567 94.6186 25.4887C94.4905 25.4207 94.3296 25.3867 94.136 25.3867C93.9477 25.3867 93.7894 25.4155 93.6612 25.473C93.5357 25.528 93.4402 25.6038 93.3748 25.7006C93.312 25.7974 93.2806 25.9033 93.2806 26.0184C93.2806 26.11 93.3042 26.1937 93.3513 26.2696C93.401 26.3428 93.4716 26.4121 93.5631 26.4775C93.6573 26.5403 93.7724 26.6005 93.9084 26.658C94.0445 26.7156 94.2001 26.7705 94.3754 26.8228C94.6814 26.9196 94.9522 27.0268 95.1876 27.1446C95.4256 27.2623 95.6257 27.3957 95.7879 27.5448C95.9501 27.6939 96.0717 27.8626 96.1528 28.0509C96.2365 28.2393 96.2784 28.4525 96.2784 28.6905C96.2784 28.9442 96.2287 29.1692 96.1293 29.3654C96.0325 29.5616 95.8912 29.729 95.7055 29.8676C95.5224 30.0037 95.3027 30.107 95.0463 30.1776C94.79 30.2482 94.5035 30.2836 94.187 30.2836C93.8993 30.2836 93.6155 30.2469 93.3356 30.1737C93.0557 30.0978 92.8019 29.9827 92.5744 29.8284C92.3494 29.6741 92.1689 29.4779 92.0329 29.2398C91.8995 28.9992 91.8328 28.7141 91.8328 28.3845L93.1119 28.3845C93.1119 28.5571 93.1368 28.7036 93.1865 28.8239C93.2362 28.9416 93.3068 29.0371 93.3983 29.1104C93.4925 29.1836 93.6063 29.2359 93.7397 29.2673C93.8731 29.2987 94.0222 29.3144 94.187 29.3144C94.378 29.3144 94.5323 29.2882 94.65 29.2359C94.7704 29.181 94.8593 29.1064 94.9168 29.0123C94.9744 28.9181 95.0032 28.8135 95.0032 28.6984ZM98.3933 24.4921L98.3933 30.2051L97.1181 30.2051L97.1181 24.4921L98.3933 24.4921ZM101.968 24.4921L101.968 30.2051L100.693 30.2051L100.693 24.4921L101.968 24.4921ZM103.706 24.4921L103.706 25.4848L98.9897 25.4848L98.9897 24.4921L103.706 24.4921ZM105.315 24.4921L106.433 27.0347L107.559 24.4921L108.94 24.4921L107.084 28.1412L107.084 30.2051L105.786 30.2051L105.786 28.1412L103.926 24.4921L105.315 24.4921Z"
            fill="url(#paint3_linear_5308_14286)" />
    </g>
    <defs>
        <linearGradient id="paint0_linear_5308_14286" x1="60.053" y1="18.0012" x2="59.0706"
            y2="17.9933" gradientUnits="userSpaceOnUse">
            <stop stop-color="#001C54" />
            <stop offset="1" stop-color="#001C54" />
        </linearGradient>
        <linearGradient id="paint1_linear_5308_14286" x1="55.61" y1="17.6831" x2="34.3864"
            y2="17.9858" gradientUnits="userSpaceOnUse">
            <stop stop-color="#001C54" />
            <stop offset="1" stop-color="#001C54" />
        </linearGradient>
        <linearGradient id="paint2_linear_5308_14286" x1="3.24177" y1="5.70744" x2="3.25972"
            y2="30.1611" gradientUnits="userSpaceOnUse">
            <stop stop-color="#001C54" />
            <stop offset="1" stop-color="#001C54" />
        </linearGradient>
        <linearGradient id="paint3_linear_5308_14286" x1="134.728" y1="18.6696" x2="63.209"
            y2="18.6696" gradientUnits="userSpaceOnUse">
            <stop stop-color="#001C54" />
            <stop offset="1" stop-color="#001C54" />
        </linearGradient>
        <clipPath id="clip0_5308_14286">
            <rect width="124.844" height="31.2713" fill="white"
                transform="translate(0 1.18164) rotate(-0.288471)" />
        </clipPath>
    </defs>
</svg>
    