<svg width="16" height="16" viewBox="0 0 16 16" fill="none" xmlns="http://www.w3.org/2000/svg">
    <g clip-path="url(#clip0_9_20241)">
        <path
            d="M4.45703 13.2093C4.34188 13.1308 4.26264 13.0097 4.23675 12.8728C4.21085 12.7358 4.24042 12.5942 4.31895 12.4791C4.39748 12.3639 4.51854 12.2847 4.6555 12.2588C4.79245 12.2329 4.93408 12.2625 5.04923 12.341C6.01865 13 7.18074 13.3156 8.35035 13.2376C9.51997 13.1595 10.6298 12.6923 11.5031 11.9103C12.3763 11.1283 12.9628 10.0766 13.1689 8.92262C13.3751 7.76868 13.1892 6.57893 12.6407 5.54293C12.0923 4.50693 11.2129 3.68427 10.1427 3.20603C9.07245 2.7278 7.87296 2.62148 6.73531 2.90404C5.59766 3.18659 4.58729 3.84175 3.86519 4.76514C3.14308 5.68853 2.75078 6.82703 2.75078 7.99924C2.75078 8.13848 2.69924 7.90135 2.60078 7.9998C2.50232 8.09826 2.36502 8.52424 2.22578 8.52424C2.08654 8.52424 1.95301 8.46893 1.85455 8.37047C1.75609 8.27202 1.70078 8.13848 1.70078 7.99924C1.70091 6.59256 2.17181 5.2264 3.03846 4.1184C3.9051 3.0104 5.11764 2.22432 6.48288 1.8854C7.84811 1.54648 9.2875 1.67422 10.5717 2.24827C11.8559 2.82231 12.9111 3.80964 13.5691 5.05294C14.2271 6.29624 14.45 7.72398 14.2024 9.1087C13.9548 10.4934 13.2509 11.7554 12.2029 12.6937C11.1548 13.6319 9.82288 14.1924 8.41931 14.2859C7.01574 14.3793 5.62127 14.0004 4.45808 13.2093"
            fill="currentColor" />
        <path
            d="M4.45703 13.2093C4.34188 13.1308 4.26264 13.0097 4.23675 12.8728C4.21085 12.7358 4.24042 12.5942 4.31895 12.4791C4.39748 12.3639 4.51854 12.2847 4.6555 12.2588C4.79245 12.2329 4.93408 12.2625 5.04923 12.341C6.01865 13 7.18074 13.3156 8.35035 13.2376C9.51997 13.1595 10.6298 12.6923 11.5031 11.9103C12.3763 11.1283 12.9628 10.0766 13.1689 8.92262C13.3751 7.76868 13.1892 6.57893 12.6407 5.54293C12.0923 4.50693 11.2129 3.68427 10.1427 3.20603C9.07245 2.7278 7.87296 2.62148 6.73531 2.90404C5.59766 3.18659 4.58729 3.84175 3.86519 4.76514C3.14308 5.68853 2.75078 6.82703 2.75078 7.99924C2.75078 8.13848 2.69924 7.90135 2.60078 7.9998C2.50232 8.09826 2.36502 8.52424 2.22578 8.52424C2.08654 8.52424 1.95301 8.46893 1.85455 8.37047C1.75609 8.27202 1.70078 8.13848 1.70078 7.99924C1.70091 6.59256 2.17181 5.2264 3.03846 4.1184C3.9051 3.0104 5.11764 2.22432 6.48288 1.8854C7.84811 1.54648 9.2875 1.67422 10.5717 2.24827C11.8559 2.82231 12.9111 3.80964 13.5691 5.05294C14.2271 6.29624 14.45 7.72398 14.2024 9.1087C13.9548 10.4934 13.2509 11.7554 12.2029 12.6937C11.1548 13.6319 9.82288 14.1924 8.41931 14.2859C7.01574 14.3793 5.62128 14.0004 4.45808 13.2093"
            stroke="currentColor" stroke-width="0.25" />
        <path
            d="M3.71574 6.85655C3.74653 6.83451 3.78141 6.81884 3.81834 6.81046C3.85527 6.80208 3.8935 6.80117 3.93079 6.80778C3.96807 6.81438 4.00366 6.82837 4.03547 6.84892C4.06727 6.86948 4.09465 6.89618 4.11599 6.92746C4.13733 6.95874 4.15221 6.99397 4.15974 7.03108C4.16728 7.06819 4.16733 7.10643 4.15988 7.14356C4.15243 7.18068 4.13763 7.21595 4.11636 7.24728C4.09509 7.27861 4.06778 7.30537 4.03602 7.326L2.09465 8.64938C2.06386 8.67143 2.02898 8.6871 1.99205 8.69547C1.95512 8.70385 1.91689 8.70476 1.8796 8.69816C1.84232 8.69155 1.80673 8.67756 1.77492 8.65701C1.74312 8.63646 1.71574 8.60976 1.6944 8.57848C1.67306 8.5472 1.65818 8.51197 1.65065 8.47486C1.64311 8.43775 1.64307 8.3995 1.65052 8.36238C1.65796 8.32525 1.67276 8.28999 1.69403 8.25866C1.7153 8.22733 1.74261 8.20056 1.77437 8.17994L3.71574 6.85655Z"
            fill="currentColor" stroke="currentColor" stroke-width="0.5" />
        <path
            d="M0.768337 6.64197C0.738115 6.57442 0.735433 6.49774 0.760859 6.42824C0.786286 6.35874 0.837816 6.3019 0.904496 6.2698C0.971176 6.23771 1.04775 6.23288 1.11793 6.25635C1.18811 6.27983 1.24637 6.32975 1.28032 6.3955L2.19404 8.29088C2.21026 8.32453 2.21969 8.36105 2.2218 8.39835C2.22391 8.43565 2.21865 8.473 2.20632 8.50827C2.194 8.54353 2.17485 8.57603 2.14996 8.60389C2.12508 8.63176 2.09495 8.65445 2.06129 8.67067C2.02764 8.68689 1.99112 8.69633 1.95382 8.69844C1.91652 8.70054 1.87917 8.69528 1.84391 8.68296C1.80864 8.67063 1.77614 8.65148 1.74828 8.6266C1.72041 8.60171 1.69772 8.57158 1.6815 8.53793L0.768337 6.64197Z"
            fill="currentColor" stroke="currentColor" stroke-width="0.5" />
        <path
            d="M7.14684 6.59091V9.5H6.61985V7.10369H6.60281L5.92241 7.53835V7.0554L6.64542 6.59091H7.14684ZM8.96076 9.5554C8.72686 9.5554 8.5261 9.49621 8.35849 9.37784C8.19182 9.25852 8.06351 9.08665 7.97354 8.86222C7.88453 8.63684 7.84002 8.36553 7.84002 8.0483C7.84097 7.73106 7.88595 7.46117 7.97496 7.23864C8.06493 7.01515 8.19324 6.8447 8.35991 6.72727C8.52752 6.60985 8.72781 6.55114 8.96076 6.55114C9.19371 6.55114 9.394 6.60985 9.56161 6.72727C9.72923 6.8447 9.85754 7.01515 9.94656 7.23864C10.0365 7.46212 10.0815 7.73201 10.0815 8.0483C10.0815 8.36648 10.0365 8.63826 9.94656 8.86364C9.85754 9.08807 9.72923 9.25947 9.56161 9.37784C9.39495 9.49621 9.19466 9.5554 8.96076 9.5554ZM8.96076 9.1108C9.14258 9.1108 9.28604 9.02131 9.39116 8.84233C9.49722 8.66241 9.55025 8.39773 9.55025 8.0483C9.55025 7.81723 9.5261 7.62311 9.47781 7.46591C9.42951 7.30871 9.36133 7.19034 9.27326 7.1108C9.18519 7.0303 9.08103 6.99006 8.96076 6.99006C8.77989 6.99006 8.6369 7.08002 8.53178 7.25994C8.42667 7.43892 8.37364 7.7017 8.37269 8.0483C8.37174 8.2803 8.39495 8.47538 8.44229 8.63352C8.49059 8.79167 8.55877 8.91098 8.64684 8.99148C8.73491 9.07102 8.83955 9.1108 8.96076 9.1108Z"
            fill="currentColor" />
    </g>
    <defs>
        <clipPath id="clip0_9_20241">
            <rect width="16" height="16" fill="white" transform="matrix(-1 0 0 1 16 0)" />
        </clipPath>
    </defs>
</svg>
    