<svg width="20" height="20" viewBox="0 0 20 20" fill="none" xmlns="http://www.w3.org/2000/svg">
    <path
        d="M18 8.81657C18.6536 8.81657 19.1834 9.34641 19.1834 10C19.1834 10.6536 18.6536 11.1834 18 11.1834V8.81657ZM1.16319 10.8368C0.701033 10.3747 0.701033 9.62535 1.16319 9.16319L8.69448 1.6319C9.15664 1.16974 9.90594 1.16974 10.3681 1.6319C10.8303 2.09406 10.8303 2.84336 10.3681 3.30552L3.67362 10L10.3681 16.6945C10.8303 17.1566 10.8303 17.9059 10.3681 18.3681C9.90594 18.8303 9.15664 18.8303 8.69448 18.3681L1.16319 10.8368ZM18 11.1834H2V8.81657H18V11.1834Z"
        fill="currentColor" />
    <defs>
        <linearGradient id="paint0_linear_4579_5855" x1="2" y1="10.5" x2="18" y2="10.5001"
            gradientUnits="userSpaceOnUse">
            <stop stop-color="#001C54" />
            <stop offset="1" stop-color="#001C54" />
        </linearGradient>
    </defs>
</svg>
    