<!-- <svg width="20" height="20" viewBox="0 0 20 20" fill="none" xmlns="http://www.w3.org/2000/svg">
    <path
        d="M18 8.81657C18.6536 8.81657 19.1834 9.34641 19.1834 10C19.1834 10.6536 18.6536 11.1834 18
11.1834V8.81657ZM1.16319 10.8368C0.701033 10.3747 0.701033 9.62535 1.16319 9.16319L8.69448
1.6319C9.15664 1.16974 9.90594 1.16974 10.3681 1.6319C10.8303 2.09406 10.8303 2.84336 10.3681
3.30552L3.67362 10L10.3681 16.6945C10.8303 17.1566 10.8303 17.9059 10.3681 18.3681C9.90594 18.8303
9.15664 18.8303 8.69448 18.3681L1.16319 10.8368ZM18 11.1834H2V8.81657H18V11.1834Z"
        fill="currentColor" />
    <defs>
        <linearGradient id="paint0_linear_4579_5855" x1="2" y1="10.5" x2="18" y2="10.5001"
            gradientUnits="userSpaceOnUse">
            <stop stop-color="#001C54" />
            <stop offset="1" stop-color="#001C54" />
        </linearGradient>
    </defs>
</svg> -->

<svg xmlns="http://www.w3.org/2000/svg" width="32" height="32" viewBox="0 0 32 32" fill="none">
    <path
        d="M24 14.8166C24.6536 14.8166 25.1834 15.3464 25.1834 16C25.1834 16.6536 24.6536 17.1834 24 17.1834V14.8166ZM7.16319 16.8368C6.70103 16.3747 6.70103 15.6253 7.16319 15.1632L14.6945 7.6319C15.1566 7.16974 15.9059 7.16974 16.3681 7.6319C16.8303 8.09406 16.8303 8.84336 16.3681 9.30552L9.67362 16L16.3681 22.6945C16.8303 23.1566 16.8303 23.9059 16.3681 24.3681C15.9059 24.8303 15.1566 24.8303 14.6945 24.3681L7.16319 16.8368ZM24 17.1834H8V14.8166H24V17.1834Z"
        fill="currentColor" />
</svg>
    