<svg width="18" height="19" viewBox="0 0 18 19" fill="none" xmlns="http://www.w3.org/2000/svg">
    <path
        d="M9.1543 18C7.43188 18 6.0293 16.5983 6.0293 14.875C6.0293 14.53 6.3093 14.25 6.6543 14.25C6.9993 14.25 7.2793 14.53 7.2793 14.875C7.2793 15.9092 8.12097 16.75 9.1543 16.75C10.1876 16.75 11.0293 15.9092 11.0293 14.875C11.0293 14.53 11.3093 14.25 11.6543 14.25C11.9993 14.25 12.2793 14.53 12.2793 14.875C12.2793 16.5983 10.8769 18 9.1543 18Z"
        fill="currentColor" stroke="currentColor" stroke-width="0.7" />
    <path
        d="M16.0286 14.5H2.27859C1.47446 14.5 0.820313 13.8459 0.820313 13.0417C0.820313 12.6149 1.00616 12.2109 1.33026 11.9333C1.35117 11.915 1.3736 11.8984 1.39694 11.8833C2.62024 10.8158 3.32031 10.28 3.32031 8.65826V6.33328C3.32031 3.11673 5.93781 0.5 9.15359 0.5C9.28696 0.5 9.43115 0.502441 9.56451 0.525024C9.90524 0.581635 10.1353 0.904205 10.0786 1.24417C10.022 1.58414 9.6936 1.81424 9.35944 1.75748C9.29276 1.74664 9.21951 1.75 9.15359 1.75C6.62704 1.75 4.57031 3.80582 4.57031 6.33328V8.65826C4.57031 10.6717 3.68774 11.5767 2.15118 12.8841C2.13867 12.8942 2.12784 12.9033 2.11441 12.9125C2.09198 12.9409 2.07031 12.9842 2.07031 13.0417C2.07031 13.1549 2.16537 13.25 2.27859 13.25H16.0286C16.142 13.25 16.237 13.1549 16.237 13.0417C16.237 12.9833 16.2154 12.9409 16.192 12.9125C16.1795 12.9033 16.1687 12.8942 16.1562 12.8841C14.6187 11.5758 13.737 10.6717 13.737 8.65826V7.75006C13.737 7.40506 14.017 7.12506 14.362 7.12506C14.707 7.12506 14.987 7.40506 14.987 7.75006V8.65826C14.987 10.2809 15.6879 10.8174 16.9128 11.8859C16.9353 11.9008 16.9569 11.9167 16.9769 11.9342C17.3012 12.2109 17.487 12.6149 17.487 13.0417C17.487 13.8459 16.8329 14.5 16.0286 14.5Z"
        fill="currentColor" stroke="currentColor" stroke-width="0.7" />
</svg>
    