<svg width="20" height="21" viewBox="0 0 20 21" fill="none" xmlns="http://www.w3.org/2000/svg">
    <path
        d="M9.15625 20C7.43384 20 6.03125 18.5983 6.03125 16.875C6.03125 16.53 6.31125 16.25 6.65625 16.25C7.00125 16.25 7.28125 16.53 7.28125 16.875C7.28125 17.9092 8.12292 18.75 9.15625 18.75C10.1896 18.75 11.0312 17.9092 11.0312 16.875C11.0312 16.53 11.3112 16.25 11.6562 16.25C12.0013 16.25 12.2812 16.53 12.2812 16.875C12.2812 18.5983 10.8788 20 9.15625 20Z"
        fill="currentColor" stroke="currentColor" stroke-width="0.7" />
    <path
        d="M16.0286 16.5H2.27859C1.47446 16.5 0.820313 15.8459 0.820313 15.0417C0.820313 14.6149 1.00616 14.2109 1.33026 13.9333C1.35117 13.915 1.3736 13.8984 1.39694 13.8833C2.62024 12.8158 3.32031 12.28 3.32031 10.6583V8.33328C3.32031 5.11673 5.93781 2.5 9.15359 2.5C9.28696 2.5 9.43115 2.50244 9.56451 2.52502C9.90524 2.58163 10.1353 2.90421 10.0786 3.24417C10.022 3.58414 9.6936 3.81424 9.35944 3.75748C9.29276 3.74664 9.21951 3.75 9.15359 3.75C6.62704 3.75 4.57031 5.80582 4.57031 8.33328V10.6583C4.57031 12.6717 3.68774 13.5767 2.15118 14.8841C2.13867 14.8942 2.12784 14.9033 2.11441 14.9125C2.09198 14.9409 2.07031 14.9842 2.07031 15.0417C2.07031 15.1549 2.16537 15.25 2.27859 15.25H16.0286C16.142 15.25 16.237 15.1549 16.237 15.0417C16.237 14.9833 16.2154 14.9409 16.192 14.9125C16.1795 14.9033 16.1687 14.8942 16.1562 14.8841C14.6187 13.5758 13.737 12.6717 13.737 10.6583V9.75006C13.737 9.40506 14.017 9.12506 14.362 9.12506C14.707 9.12506 14.987 9.40506 14.987 9.75006V10.6583C14.987 12.2809 15.6879 12.8174 16.9128 13.8859C16.9353 13.9008 16.9569 13.9167 16.9769 13.9342C17.3012 14.2109 17.487 14.6149 17.487 15.0417C17.487 15.8459 16.8329 16.5 16.0286 16.5Z"
        fill="currentColor" stroke="currentColor" stroke-width="0.7" />
    <mask id="path-3-inside-1_0_1" fill="currentColor">
        <path
            d="M14.987 8.33328C12.6895 8.33328 10.8203 6.46423 10.8203 4.16672C10.8203 1.8692 12.6895 0 14.987 0C17.2845 0 19.1536 1.8692 19.1536 4.16672C19.1536 6.46423 17.2845 8.33328 14.987 8.33328ZM14.987 1.25C13.3786 1.25 12.0703 2.55829 12.0703 4.16672C12.0703 5.77499 13.3786 7.08328 14.987 7.08328C16.5953 7.08328 17.9036 5.77499 17.9036 4.16672C17.9036 2.55829 16.5953 1.25 14.987 1.25Z" />
    </mask>
    <path
        d="M14.987 8.33328C12.6895 8.33328 10.8203 6.46423 10.8203 4.16672C10.8203 1.8692 12.6895 0 14.987 0C17.2845 0 19.1536 1.8692 19.1536 4.16672C19.1536 6.46423 17.2845 8.33328 14.987 8.33328ZM14.987 1.25C13.3786 1.25 12.0703 2.55829 12.0703 4.16672C12.0703 5.77499 13.3786 7.08328 14.987 7.08328C16.5953 7.08328 17.9036 5.77499 17.9036 4.16672C17.9036 2.55829 16.5953 1.25 14.987 1.25Z"
        fill="currentColor" />
    <path
        d="M14.987 6.33328C13.794 6.33328 12.8203 5.35957 12.8203 4.16672H8.82031C8.82031 7.5689 11.585 10.3333 14.987 10.3333V6.33328ZM12.8203 4.16672C12.8203 2.97377 13.7941 2 14.987 2V-2C11.5849 -2 8.82031 0.764632 8.82031 4.16672H12.8203ZM14.987 2C16.1799 2 17.1536 2.97368 17.1536 4.16672L21.1536 4.16672C21.1536 0.764727 18.3892 -2 14.987 -2V2ZM17.1536 4.16672C17.1536 5.35966 16.18 6.33328 14.987 6.33328V10.3333C18.3891 10.3333 21.1536 7.5688 21.1536 4.16672L17.1536 4.16672ZM14.987 -0.75C12.274 -0.75 10.0703 1.45372 10.0703 4.16672H14.0703C14.0703 3.66286 14.4832 3.25 14.987 3.25V-0.75ZM10.0703 4.16672C10.0703 6.87963 12.2741 9.08328 14.987 9.08328V5.08328C14.4831 5.08328 14.0703 4.67036 14.0703 4.16672H10.0703ZM14.987 9.08328C17.6999 9.08328 19.9036 6.87956 19.9036 4.16672L15.9036 4.16672C15.9036 4.67042 15.4907 5.08328 14.987 5.08328V9.08328ZM19.9036 4.16672C19.9036 1.45379 17.6999 -0.75 14.987 -0.75V3.25C15.4907 3.25 15.9036 3.66279 15.9036 4.16672L19.9036 4.16672Z"
        fill="currentColor" mask="url(#path-3-inside-1_0_1)" />
</svg>
    