<svg width="32" height="32" viewBox="0 0 32 32" fill="none" xmlns="http://www.w3.org/2000/svg">
    <path
        d="M15.1562 26C13.4338 26 12.0312 24.5983 12.0312 22.875C12.0312 22.53 12.3112 22.25 12.6562 22.25C13.0013 22.25 13.2812 22.53 13.2812 22.875C13.2812 23.9092 14.1229 24.75 15.1562 24.75C16.1896 24.75 17.0312 23.9092 17.0312 22.875C17.0312 22.53 17.3112 22.25 17.6562 22.25C18.0013 22.25 18.2812 22.53 18.2812 22.875C18.2812 24.5983 16.8788 26 15.1562 26Z"
        fill="currentColor" stroke="currentColor" stroke-width="0.7" />
    <path
        d="M8.28 22.5H22.03C22.8341 22.5 23.4883 21.8459 23.4883 21.0417C23.4883 20.6149 23.3024 20.2109 22.9783 19.9333C22.9574 19.915 22.935 19.8984 22.9117 19.8833C21.6884 18.8158 20.9883 18.28 20.9883 16.6583V14.3333C20.9883 11.1167 18.3708 8.5 15.155 8.5C15.0216 8.5 14.8774 8.50244 14.7441 8.52502C14.4034 8.58163 14.1732 8.90421 14.23 9.24417C14.2866 9.58414 14.615 9.81424 14.9492 9.75748C15.0158 9.74664 15.0891 9.75 15.155 9.75C17.6815 9.75 19.7383 11.8058 19.7383 14.3333V16.6583C19.7383 18.6717 20.6208 19.5767 22.1574 20.8841C22.1699 20.8942 22.1808 20.9033 22.1942 20.9125C22.2166 20.9409 22.2383 20.9842 22.2383 21.0417C22.2383 21.1549 22.1432 21.25 22.03 21.25H8.28C8.16663 21.25 8.07156 21.1549 8.07156 21.0417C8.07156 20.9833 8.09323 20.9409 8.11658 20.9125C8.12909 20.9033 8.13992 20.8942 8.15244 20.8841C9.68991 19.5758 10.5716 18.6717 10.5716 16.6583V15.7501C10.5716 15.4051 10.2916 15.1251 9.94656 15.1251C9.60156 15.1251 9.32156 15.4051 9.32156 15.7501V16.6583C9.32156 18.2809 8.62073 18.8174 7.39575 19.8859C7.37332 19.9008 7.35165 19.9167 7.33167 19.9342C7.00742 20.2109 6.82156 20.6149 6.82156 21.0417C6.82156 21.8459 7.47571 22.5 8.28 22.5Z"
        fill="currentColor" stroke="currentColor" stroke-width="0.7" />
    <path
        d="M22.0286 22.5H8.27859C7.47446 22.5 6.82031 21.8459 6.82031 21.0417C6.82031 20.6149 7.00616 20.2109 7.33026 19.9333C7.35117 19.915 7.3736 19.8984 7.39694 19.8833C8.62024 18.8158 9.32031 18.28 9.32031 16.6583V14.3333C9.32031 11.1167 11.9378 8.5 15.1536 8.5C15.287 8.5 15.4312 8.50244 15.5645 8.52502C15.9052 8.58163 16.1353 8.90421 16.0786 9.24417C16.022 9.58414 15.6936 9.81424 15.3594 9.75748C15.2928 9.74664 15.2195 9.75 15.1536 9.75C12.627 9.75 10.5703 11.8058 10.5703 14.3333V16.6583C10.5703 18.6717 9.68774 19.5767 8.15118 20.8841C8.13867 20.8942 8.12784 20.9033 8.11441 20.9125C8.09198 20.9409 8.07031 20.9842 8.07031 21.0417C8.07031 21.1549 8.16537 21.25 8.27859 21.25H22.0286C22.142 21.25 22.237 21.1549 22.237 21.0417C22.237 20.9833 22.2154 20.9409 22.192 20.9125C22.1795 20.9033 22.1687 20.8942 22.1562 20.8841C20.6187 19.5758 19.737 18.6717 19.737 16.6583V15.7501C19.737 15.4051 20.017 15.1251 20.362 15.1251C20.707 15.1251 20.987 15.4051 20.987 15.7501V16.6583C20.987 18.2809 21.6879 18.8174 22.9128 19.8859C22.9353 19.9008 22.9569 19.9167 22.9769 19.9342C23.3012 20.2109 23.487 20.6149 23.487 21.0417C23.487 21.8459 22.8329 22.5 22.0286 22.5Z"
        fill="currentColor" stroke="currentColor" stroke-width="0.7" />
</svg>