<!-- <svg width="22" height="22" viewBox="0 0 22 22" fill="none" xmlns="http://www.w3.org/2000/svg">
    <g clip-path="url(#clip0_9_18799)">
        <rect x="1.85" y="13.2797" width="6.87143" height="6.87143" rx="2.00714"
            stroke="currentColor" stroke-width="1.7" />
        <rect x="1.85" y="1.85" width="6.87143" height="6.87143" rx="2.00714"
            stroke="currentColor" stroke-width="1.7" />
        <rect width="8.57143" height="2.5" rx="1.25" transform="matrix(-1 0 0 1 21 4.125)"
            fill="currentColor" />
        <rect x="12.4297" y="15.375" width="8.57143" height="2.5" rx="1.25"
            fill="currentColor" />
    </g>
    <defs>
        <clipPath id="clip0_9_18799">
            <rect width="20" height="20" fill="white" transform="translate(1 1)" />
        </clipPath>
    </defs>
</svg> -->

<svg width="32" height="32" viewBox="0 0 32 32" fill="none" xmlns="http://www.w3.org/2000/svg">
    <g clip-path="url(#clip0_9_21297)">
        <rect x="6.85" y="18.2797" width="6.87143" height="6.87143" rx="2.00714"
            stroke="currentColor"
            stroke-width="1.7" />
        <rect x="6.85" y="6.85" width="6.87143" height="6.87143" rx="2.00714" stroke="currentColor"
            stroke-width="1.7" />
        <rect width="8.57143" height="2.5" rx="1.25" transform="matrix(-1 0 0 1 26 9.125)"
            fill="currentColor" />
        <rect x="17.4297" y="20.375" width="8.57143" height="2.5" rx="1.25" fill="currentColor" />
    </g>
    <defs>
        <clipPath id="clip0_9_21297">
            <rect width="20" height="20" fill="white" transform="translate(6 6)" />
        </clipPath>
    </defs>
</svg>
    