<!-- <svg width="22" height="22" viewBox="0 0 22 22" fill="none" xmlns="http://www.w3.org/2000/svg">
    <g clip-path="url(#clip0_9_21026)">
        <rect x="-0.85" y="0.85" width="6.87143" height="6.87143" rx="2.00714"
            transform="matrix(-1 0 0 1 19.1203 1)" stroke="currentColor" stroke-width="1.7" />
        <rect x="1.85" y="13.2797" width="6.87143" height="6.87143" rx="2.00714" stroke="currentColor"
            stroke-width="1.7" />
        <rect x="13.1" y="13.2797" width="6.87143" height="6.87143" rx="2.00714" stroke="currentColor"
            stroke-width="1.7" />
        <rect x="1.85" y="1.85" width="6.87143" height="6.87143" rx="2.00714" stroke="currentColor"
            stroke-width="1.7" />
    </g>
    <defs>
        <clipPath id="clip0_9_21026">
            <rect width="20" height="20" fill="currentColor" transform="translate(1 1)" />
        </clipPath>
    </defs>
</svg> -->

<svg width="32" height="32" viewBox="0 0 32 32" fill="none" xmlns="http://www.w3.org/2000/svg">
    <g clip-path="url(#clip0_9_21517)">
        <rect x="-0.85" y="0.85" width="6.87143" height="6.87143" rx="2.00714"
            transform="matrix(-1 0 0 1 24.1203 6)" stroke="currentColor" stroke-width="1.7" />
        <rect x="6.85" y="18.2797" width="6.87143" height="6.87143" rx="2.00714"
            stroke="currentColor"
            stroke-width="1.7" />
        <rect x="18.1" y="18.2797" width="6.87143" height="6.87143" rx="2.00714"
            stroke="currentColor"
            stroke-width="1.7" />
        <rect x="6.85" y="6.85" width="6.87143" height="6.87143" rx="2.00714" stroke="currentColor"
            stroke-width="1.7" />
    </g>
    <defs>
        <clipPath id="clip0_9_21517">
            <rect width="20" height="20" fill="white" transform="translate(6 6)" />
        </clipPath>
    </defs>
</svg>
    
    