<svg
  width="32"
  height="32"
  viewBox="0 0 32 32"
  fill="none"
  xmlns="http://www.w3.org/2000/svg">
    <path
    d="M25.287 21.7606L21.9953 18.4688C22.5938 17.2718 22.9928 15.8753 22.9928 14.4788C22.9928 9.79052 19.2022 6 14.514 6C9.82568 6 6.03516 9.79052 6.03516 14.4788C6.03516 19.1671 9.82568 22.9576 14.514 22.9576C15.9105 22.9576 17.307 22.5586 18.504 21.9601L21.7958 25.2519C22.7933 26.2494 24.2895 26.2494 25.287 25.2519C26.1848 24.2544 26.1848 22.7581 25.287 21.7606ZM14.514 20.9626C10.9229 20.9626 8.03017 18.0698 8.03017 14.4788C8.03017 10.8878 10.9229 7.99501 14.514 7.99501C18.105 7.99501 20.9978 10.8878 20.9978 14.4788C20.9978 18.0698 18.105 20.9626 14.514 20.9626Z"
    fill="currentColor" />
</svg>
