<!-- <svg width="22" height="22" viewBox="0 0 22 22" fill="none" xmlns="http://www.w3.org/2000/svg">
    <g clip-path="url(#clip0_4579_5866)">
        <path
            d="M21.2161 17.3367L17.5952 13.7157C18.2535 12.399 18.6924 10.8628 18.6924 9.32668C18.6924 4.16958
14.5229 0 9.36575 0C4.20864 0 0.0390625 4.16958 0.0390625 9.32668C0.0390625 14.4838 4.20864 18.6534
9.36575 18.6534C10.9019 18.6534 12.4381 18.2145 13.7548 17.5561L17.3757 21.1771C18.473 22.2743
20.1189 22.2743 21.2161 21.1771C22.2037 20.0798 22.2037 18.4339 21.2161 17.3367ZM9.36575
16.4589C5.41562 16.4589 2.23358 13.2768 2.23358 9.32668C2.23358 5.37656 5.41562 2.19451 9.36575
2.19451C13.3159 2.19451 16.4979 5.37656 16.4979 9.32668C16.4979 13.2768 13.3159 16.4589 9.36575
16.4589Z"
            fill="currentColor" />
    </g>
</svg> -->

<svg width="32" height="32" viewBox="0 0 32 32" fill="none" xmlns="http://www.w3.org/2000/svg">
    <g clip-path="url(#clip0_9_21801)">
        <path
            d="M26.2161 22.3367L22.5952 18.7157C23.2535 17.399 23.6924 15.8628 23.6924 14.3267C23.6924 9.16958 19.5229 5 14.3657 5C9.20864 5 5.03906 9.16958 5.03906 14.3267C5.03906 19.4838 9.20864 23.6534 14.3657 23.6534C15.9019 23.6534 17.4381 23.2145 18.7548 22.5561L22.3757 26.1771C23.473 27.2743 25.1189 27.2743 26.2161 26.1771C27.2037 25.0798 27.2037 23.4339 26.2161 22.3367ZM14.3657 21.4589C10.4156 21.4589 7.23358 18.2768 7.23358 14.3267C7.23358 10.3766 10.4156 7.19451 14.3657 7.19451C18.3159 7.19451 21.4979 10.3766 21.4979 14.3267C21.4979 18.2768 18.3159 21.4589 14.3657 21.4589Z"
            fill="currentColor" />
    </g>
    <defs>
        <clipPath id="clip0_9_21801">
            <rect width="22" height="22" fill="white" transform="translate(5 5)" />
        </clipPath>
    </defs>
</svg>
