<svg width="22" height="22" viewBox="0 0 22 22" fill="none" xmlns="http://www.w3.org/2000/svg">
    <g clip-path="url(#clip0_4579_5866)">
        <path
            d="M21.2161 17.3367L17.5952 13.7157C18.2535 12.399 18.6924 10.8628 18.6924 9.32668C18.6924 4.16958 14.5229 0 9.36575 0C4.20864 0 0.0390625 4.16958 0.0390625 9.32668C0.0390625 14.4838 4.20864 18.6534 9.36575 18.6534C10.9019 18.6534 12.4381 18.2145 13.7548 17.5561L17.3757 21.1771C18.473 22.2743 20.1189 22.2743 21.2161 21.1771C22.2037 20.0798 22.2037 18.4339 21.2161 17.3367ZM9.36575 16.4589C5.41562 16.4589 2.23358 13.2768 2.23358 9.32668C2.23358 5.37656 5.41562 2.19451 9.36575 2.19451C13.3159 2.19451 16.4979 5.37656 16.4979 9.32668C16.4979 13.2768 13.3159 16.4589 9.36575 16.4589Z"
            fill="currentColor" />
    </g>
    <!-- <defs>
        <linearGradient id="paint0_linear_4579_5866" x1="21.9568" y1="11" x2="0.0390621" y2="11"
            gradientUnits="userSpaceOnUse">
            <stop stop-color="#001C54" />
            <stop offset="1" stop-color="#001C54" />
        </linearGradient>
        <clipPath id="clip0_4579_5866">
            <rect width="22" height="22" fill="white" />
        </clipPath>
    </defs> -->
</svg>
    