<svg xmlns="http://www.w3.org/2000/svg" width="16" height="16" viewBox="0 0 16 16" fill="none">
    <path fill-rule="evenodd" clip-rule="evenodd"
        d="M11.6109 11.3236C11.9101 11.1499 12.1897 10.9613 12.4466 10.764C13.0133 10.3293 13.478 9.84668 13.8033 9.37735C14.1233 8.91602 14.3346 8.43202 14.3346 7.99935C14.3346 7.56668 14.1233 7.08268 13.8033 6.62202C13.478 6.15202 13.0133 5.66935 12.4466 5.23535C11.316 4.36602 9.74663 3.66602 8.0013 3.66602C7.49862 3.66602 7.01053 3.72414 6.54332 3.82764L7.68688 5.51919C7.79062 5.50604 7.89561 5.49935 8.0013 5.49935C8.66434 5.49935 9.30023 5.76274 9.76907 6.23158C10.2379 6.70042 10.5013 7.33631 10.5013 7.99935C10.5013 8.42874 10.3908 8.84674 10.1856 9.21536L11.6109 11.3236ZM3.55597 5.23468C3.80925 5.04024 4.08454 4.8542 4.37889 4.68255L5.80893 6.79787C5.60889 7.16293 5.5013 7.57559 5.5013 7.99935C5.5013 8.66239 5.76469 9.29827 6.23353 9.76712C6.70238 10.236 7.33826 10.4993 8.0013 10.4993C8.1014 10.4993 8.20087 10.4933 8.29925 10.4815L9.44375 12.1745C8.98126 12.2758 8.49842 12.3327 8.0013 12.3327C6.25597 12.3327 4.68664 11.6327 3.55597 10.7633C2.9893 10.3293 2.5253 9.84668 2.19864 9.37668C1.8793 8.91602 1.66797 8.43202 1.66797 7.99935C1.66797 7.56668 1.87864 7.08268 2.19864 6.62135C2.52464 6.15202 2.9893 5.66935 3.55597 5.23468Z"
        fill="#7E8CA8" />
    <path fill-rule="evenodd" clip-rule="evenodd"
        d="M9.48852 8.1864C9.49613 8.12526 9.5 8.06339 9.5 8.00113C9.5 7.6033 9.34196 7.22177 9.06066 6.94047C8.87151 6.75131 8.63704 6.61789 8.38277 6.55078L9.48852 8.1864ZM6.5 8.00113C6.5 7.94563 6.50307 7.89046 6.50913 7.83583L7.59781 9.44621C7.35103 9.37751 7.12367 9.24611 6.93934 9.06179C6.65804 8.78048 6.5 8.39895 6.5 8.00113Z"
        fill="#7E8CA8" />
    <rect x="2.28516" y="0.742188" width="1.32513" height="18.2069" rx="0.662564"
        transform="rotate(-34.0604 2.28516 0.742188)" fill="#7E8CA8" />
</svg>