<svg xmlns="http://www.w3.org/2000/svg" width="16" height="16" viewBox="0 0 16 16" fill="none">
    <path
        d="M8 6.5C7.60218 6.5 7.22064 6.65804 6.93934 6.93934C6.65804 7.22064 6.5 7.60218 6.5 8C6.5 8.39782 6.65804 8.77936 6.93934 9.06066C7.22064 9.34196 7.60218 9.5 8 9.5C8.39782 9.5 8.77936 9.34196 9.06066 9.06066C9.34196 8.77936 9.5 8.39782 9.5 8C9.5 7.60218 9.34196 7.22064 9.06066 6.93934C8.77936 6.65804 8.39782 6.5 8 6.5Z"
        fill="#7E8CA8" />
    <path fill-rule="evenodd" clip-rule="evenodd"
        d="M8.0013 3.66602C6.25597 3.66602 4.68664 4.36668 3.55597 5.23468C2.9893 5.66935 2.52464 6.15202 2.19864 6.62135C1.87864 7.08268 1.66797 7.56668 1.66797 7.99935C1.66797 8.43202 1.8793 8.91602 2.19864 9.37668C2.5253 9.84668 2.9893 10.3293 3.55597 10.7633C4.68664 11.6327 6.25597 12.3327 8.0013 12.3327C9.74663 12.3327 11.316 11.632 12.4466 10.764C13.0133 10.3293 13.478 9.84668 13.8033 9.37735C14.1233 8.91602 14.3346 8.43202 14.3346 7.99935C14.3346 7.56668 14.1233 7.08268 13.8033 6.62202C13.478 6.15202 13.0133 5.66935 12.4466 5.23535C11.316 4.36602 9.74663 3.66602 8.0013 3.66602ZM5.5013 7.99935C5.5013 7.33631 5.76469 6.70042 6.23353 6.23158C6.70238 5.76274 7.33826 5.49935 8.0013 5.49935C8.66434 5.49935 9.30023 5.76274 9.76907 6.23158C10.2379 6.70042 10.5013 7.33631 10.5013 7.99935C10.5013 8.66239 10.2379 9.29827 9.76907 9.76712C9.30023 10.236 8.66434 10.4993 8.0013 10.4993C7.33826 10.4993 6.70238 10.236 6.23353 9.76712C5.76469 9.29827 5.5013 8.66239 5.5013 7.99935Z"
        fill="#7E8CA8" />
</svg>