<svg xmlns="http://www.w3.org/2000/svg" width="14" height="14" viewBox="0 0 14 14" fill="none">
    <path
        d="M13.5396 5.69303H13.0026V5.66536H7.0026V8.33203H10.7703C10.2206 9.88436 8.7436 10.9987 7.0026 10.9987C4.7936 10.9987 3.0026 9.2077 3.0026 6.9987C3.0026 4.7897 4.7936 2.9987 7.0026 2.9987C8.02227 2.9987 8.94994 3.38336 9.65627 4.0117L11.5419 2.12603C10.3513 1.01636 8.7586 0.332031 7.0026 0.332031C3.32094 0.332031 0.335938 3.31703 0.335938 6.9987C0.335938 10.6804 3.32094 13.6654 7.0026 13.6654C10.6843 13.6654 13.6693 10.6804 13.6693 6.9987C13.6693 6.5517 13.6233 6.11536 13.5396 5.69303Z"
        fill="#FFC107" />
    <path
        d="M1.10156 3.8957L3.2919 5.50203C3.88456 4.0347 5.3199 2.9987 6.99956 2.9987C8.01923 2.9987 8.9469 3.38336 9.65323 4.0117L11.5389 2.12603C10.3482 1.01636 8.75556 0.332031 6.99956 0.332031C4.4389 0.332031 2.21823 1.7777 1.10156 3.8957Z"
        fill="#FF3D00" />
    <path
        d="M7.00141 13.6669C8.72341 13.6669 10.2881 13.0079 11.4711 11.9362L9.40774 10.1902C8.71592 10.7164 7.87056 11.0009 7.00141 11.0002C5.26741 11.0002 3.79507 9.89456 3.24041 8.35156L1.06641 10.0266C2.16974 12.1856 4.41041 13.6669 7.00141 13.6669Z"
        fill="#4CAF50" />
    <path
        d="M13.537 5.69368H13V5.66602H7V8.33268H10.7677C10.5047 9.07149 10.0311 9.71707 9.40533 10.1897L9.40633 10.189L11.4697 11.935C11.3237 12.0677 13.6667 10.3327 13.6667 6.99935C13.6667 6.55235 13.6207 6.11602 13.537 5.69368Z"
        fill="#1976D2" />
</svg>