<svg
  width="22"
  height="22"
  viewBox="0 0 22 22"
  fill="none"
  xmlns="http://www.w3.org/2000/svg"
>
<path
    d="M16.882 9.82399H16.3986V9.79909H10.9974V12.1996H14.389C13.8942 13.597 12.5646 14.6001 10.9974 14.6001C9.00886 14.6001 7.39661 12.9879 7.39661 10.9993C7.39661 9.01082 9.00886 7.39857 10.9974 7.39857C11.9153 7.39857 12.7504 7.74484 13.3862 8.31047L15.0837 6.613C14.0118 5.61408 12.5781 4.99805 10.9974 4.99805C7.68318 4.99805 4.99609 7.68513 4.99609 10.9993C4.99609 14.3136 7.68318 17.0007 10.9974 17.0007C14.3116 17.0007 16.9987 14.3136 16.9987 10.9993C16.9987 10.597 16.9573 10.2042 16.882 9.82399Z"
    fill="#FFC107"
  />
<path
    d="M5.68359 8.20604L7.65532 9.65206C8.18884 8.33117 9.48092 7.39857 10.9929 7.39857C11.9108 7.39857 12.7459 7.74484 13.3818 8.31047L15.0792 6.613C14.0074 5.61408 12.5737 4.99805 10.9929 4.99805C8.68785 4.99805 6.68881 6.29943 5.68359 8.20604Z"
    fill="#FF3D00"
  />
<path
    d="M10.995 17.0016C12.5451 17.0016 13.9536 16.4084 15.0186 15.4437L13.1612 13.872C12.5384 14.3456 11.7774 14.6017 10.995 14.6011C9.43406 14.6011 8.10868 13.6058 7.60937 12.2168L5.65234 13.7246C6.64556 15.6681 8.6626 17.0016 10.995 17.0016Z"
    fill="#4CAF50"
  />
<path
    d="M16.8807 9.82373H16.3973V9.79883H10.9961V12.1993H14.3877C14.151 12.8644 13.7247 13.4456 13.1614 13.871L13.1623 13.8704L15.0197 15.4422C14.8882 15.5616 16.9974 13.9997 16.9974 10.9991C16.9974 10.5967 16.956 10.2039 16.8807 9.82373Z"
    fill="#1976D2"
  />
</svg>
