<svg width="21" height="22" viewBox="0 0 21 22" fill="none" xmlns="http://www.w3.org/2000/svg">
    <path fill-rule="evenodd" clip-rule="evenodd"
        d="M7.66138 0.823098C6.75592 1.04208 6.02444 1.79443 5.83467 2.70179C5.80232 2.85654 5.80947 3.84505 5.80947 4.60188V5.90448L3.00865 5.9187C1.11728 5.93247 1.04163 5.93669 0.907512 6.03661C0.831002 6.09361 0.72163 6.20267 0.664475 6.27902C0.561101 6.41708 0.560547 6.20577 0.560547 11.2634V17.9063L0.677227 18.3084C1.07873 19.6922 2.14916 20.7569 3.54437 21.1602L3.93746 21.2737H10.4958H17.0542L17.454 21.1583C18.8408 20.7579 19.8836 19.7252 20.3153 18.3249L20.4289 17.9565L20.4442 11.3624C20.4612 5.77906 20.4802 6.34772 20.1255 6.07783L19.9351 5.93298L17.978 5.9187L15.1822 5.90448V4.60188C15.1822 3.84505 15.1284 2.85654 15.096 2.70179C14.9009 1.7688 14.1318 1.00182 13.1962 0.807266C12.7979 0.724437 8.01036 0.73866 7.66138 0.823098ZM13.0872 2.47315C13.2515 2.55578 13.3426 2.64665 13.4255 2.8105C13.5341 3.02541 13.5694 3.41874 13.5694 4.63686V5.90784H10.4958H7.42233V4.63686C7.42233 3.41874 7.39657 3.02541 7.50524 2.8105C7.5881 2.64665 7.67922 2.55578 7.84353 2.47315L8.06842 2.36007H10.4654H12.8623L13.0872 2.47315ZM5.819 8.46264L5.83467 9.40909L5.97993 9.59883C6.32478 10.0493 6.93908 10.0301 7.2932 9.55766C7.3881 9.43111 7.39849 9.33642 7.4128 8.46761L7.42843 7.51618H10.4958H13.5633L13.5789 8.46264L13.5946 9.40909L13.7398 9.59883C14.0847 10.0493 14.699 10.0301 15.0531 9.55766C15.148 9.43111 15.1584 9.33642 15.1727 8.46761L15.1883 7.51618H17.4353H18.8435V11.5965C18.8435 14.5561 18.826 17.558 18.7878 17.7405C18.5927 18.6735 17.8236 19.4404 16.888 19.635C16.5122 19.7131 4.47948 19.7131 4.10373 19.635C3.16813 19.4404 2.399 18.6735 2.20389 17.7405C2.16574 17.558 2.1482 14.5561 2.1482 11.5965V7.51618H3.55637H5.80338L5.819 8.46264Z"
        fill="currentColor" />
</svg>
    