<svg xmlns="http://www.w3.org/2000/svg" width="22" height="22" viewBox="0 0 22 22" fill="none">
    <path
        d="M4.83535 6.03569C9.90011 1.42917 9.66128 1.62865 10.3261 1.44956C10.4994 1.40289 10.7399 1.37705 11.0192 1.37509C11.5775 1.37121 12.0305 1.49105 12.4555 1.75511C12.8665 2.01051 21.8139 10.2236 21.9278 10.4501C22.1568 10.9055 21.814 11.4726 21.2816 11.5193C20.872 11.5552 20.7893 11.5187 20.3042 11.0883L19.8584 10.6928V12.2003C19.8584 13.6864 19.8571 13.7103 19.7617 13.8805C19.7084 13.9755 19.5906 14.1072 19.4997 14.1731C19.3472 14.2838 19.3085 14.2931 18.9984 14.2931C18.6883 14.2931 18.6496 14.2838 18.4971 14.1731C18.4062 14.1072 18.2883 13.9755 18.2351 13.8805L18.1383 13.7078L18.1373 11.4123L18.1362 9.11684L14.8369 6.08902C13.0222 4.42373 11.4756 3.03407 11.3999 3.00094C11.2431 2.93227 10.8888 2.92153 10.7193 2.98031C10.6564 3.00211 9.08771 4.39173 7.23337 6.0684L3.86178 9.11684L3.8617 13.3368C3.86165 16.0274 3.87743 17.6333 3.90526 17.768C4.00322 18.242 4.36181 18.6624 4.85066 18.8764L5.13018 18.9987L6.47399 19.0101L7.81781 19.0215L14.2681 19.0216L15.569 19.0101L16.8698 18.9987L17.1493 18.8764C17.6884 18.6405 18.028 18.2066 18.105 17.6557C18.1657 17.2206 18.2456 17.0416 18.4497 16.8822C18.6467 16.7284 18.8171 16.6864 19.1315 16.7139C19.395 16.737 19.6215 16.8887 19.7652 17.1383C19.8542 17.293 19.863 17.3502 19.8438 17.6481C19.7851 18.5566 19.3026 19.3951 18.5254 19.9395C17.9731 20.3263 17.4117 20.5234 16.6831 20.5864C16.0865 20.638 13.5734 20.6378 13.2746 20.5861H8.81134C8.51243 20.6378 5.91381 20.638 5.31689 20.5864C4.01659 20.4739 2.99714 19.8251 2.46365 18.7703C2.14866 18.1474 2.16823 18.4255 2.15262 14.3569L2.13855 10.6955L1.69434 11.0896C1.21078 11.5186 1.12779 11.5552 0.71832 11.5193C0.185092 11.4725 -0.158453 10.9027 0.0738024 10.4501C0.12949 10.3415 1.59513 8.98277 4.83535 6.03569Z"
        fill="currentColor" />
    <rect x="8.64453" y="11" width="4.71429" height="7.07143" rx="1.57143" fill="currentColor" />
</svg>