<svg width="23" height="23" viewBox="0 0 23 23" fill="none" xmlns="http://www.w3.org/2000/svg">
    <g clip-path="url(#clip0_4579_5905)">
        <path
            d="M4.60547 4.01815C4.60547 3.17107 5.29217 2.48438 6.13925 2.48438H21.477C22.3241 2.48438 23.0108 3.17107 23.0108 4.01815C23.0108 4.86524 22.3241 5.55193 21.477 5.55193H6.13925C5.29217 5.55193 4.60547 4.86524 4.60547 4.01815Z"
            fill="currentColor" />
        <path
            d="M4.60547 11.69C4.60547 10.8429 5.29217 10.1562 6.13925 10.1562H21.477C22.3241 10.1562 23.0108 10.8429 23.0108 11.69C23.0108 12.5371 22.3241 13.2238 21.477 13.2238H6.13925C5.29217 13.2238 4.60547 12.5371 4.60547 11.69Z"
            fill="currentColor" />
        <path
            d="M4.60547 19.356C4.60547 18.509 5.29217 17.8223 6.13925 17.8223H21.477C22.3241 17.8223 23.0108 18.509 23.0108 19.356C23.0108 20.2031 22.3241 20.8898 21.477 20.8898H6.13925C5.29217 20.8898 4.60547 20.2031 4.60547 19.356Z"
            fill="currentColor" />
        <circle cx="1.53378" cy="4.01815" r="1.53378" fill="currentColor" />
        <circle cx="1.53378" cy="11.69" r="1.53378" fill="currentColor" />
        <circle cx="1.53378" cy="19.356" r="1.53378" fill="currentColor" />
    </g>
    <defs>
        <clipPath id="clip0_4579_5905">
            <rect width="23.0067" height="23.0067" fill="currentColor"
                transform="translate(0 -0.0078125)" />
        </clipPath>
    </defs>
</svg>
    