<svg xmlns="http://www.w3.org/2000/svg" width="22" height="22" viewBox="0 0 22 22" fill="none">
    <path fill-rule="evenodd" clip-rule="evenodd"
        d="M6.34335 3.14011L2.06781 4.62922C1.92713 4.67822 1.80386 4.76732 1.71321 4.88554C1.62307 5.00305 1.57422 5.14702 1.57422 5.29512V9.11405C1.57422 13.1283 1.57499 13.1625 1.66782 13.2916C1.84567 13.539 1.99075 13.6163 2.27782 13.6163C2.56489 13.6163 2.70996 13.5391 2.88782 13.2916C2.98006 13.1634 2.9816 13.1117 2.99363 9.77391L3.00011 7.98228C3.00294 7.19967 3.7746 6.65195 4.51431 6.90751C5.34397 7.19416 6.02714 7.43204 6.03245 7.43615C6.03781 7.44025 5.94956 7.62886 5.83644 7.85524C5.01736 9.49415 4.97637 11.4906 5.72759 13.1558C6.12033 14.0264 6.84913 14.9522 7.54065 15.459C7.71483 15.5866 7.85795 15.7016 7.85873 15.7146C7.85954 15.7276 7.60321 15.8642 7.28904 16.0182C5.83753 16.7299 4.67106 17.7653 3.76046 19.1503C3.62206 19.3608 3.59423 19.4438 3.59423 19.6461C3.59423 19.9691 3.71153 20.1873 3.95797 20.3226C4.36855 20.5482 4.68127 20.413 5.07324 19.8405C6.25084 18.1204 8.03108 17.0032 10.0367 16.7259C12.6824 16.36 15.3638 17.5651 16.8945 19.808C17.3077 20.4133 17.5904 20.5477 18.0037 20.3349C18.2454 20.2105 18.357 20.0427 18.3827 19.7652C18.413 19.4369 18.3847 19.3658 18.0169 18.8477C17.1465 17.6215 16.0349 16.6739 14.6977 16.0182C14.3835 15.8642 14.1263 15.7276 14.1261 15.7146C14.1259 15.7016 14.2227 15.6282 14.3412 15.5514C14.6975 15.3205 15.5395 14.4167 15.826 13.9577C17.0049 12.0685 17.1179 9.77183 16.1283 7.81012C16.0268 7.60896 15.9484 7.44086 15.9539 7.43648C15.9594 7.43209 16.8984 7.10565 18.0404 6.71093C20.0352 6.0216 20.1223 5.98661 20.2532 5.82162C20.4921 5.5206 20.4906 5.13333 20.2495 4.84805C20.1208 4.69579 19.8745 4.6045 15.6102 3.12795C13.1334 2.27033 11.0456 1.57029 10.9707 1.57227C10.8958 1.5743 8.81349 2.27985 6.34335 3.14011ZM9.17763 8.52374C10.1131 8.84791 10.9302 9.11315 10.9934 9.11315C11.0565 9.11315 11.8729 8.84815 12.8075 8.5243C14.0825 8.08243 14.516 7.95002 14.5441 7.99383C14.8804 8.51921 15.1127 9.05591 15.2453 9.61472C15.3528 10.0673 15.3535 11.1859 15.2466 11.6294C14.764 13.6303 13.1632 15.0236 11.2203 15.1337C9.11876 15.2527 7.26244 13.8007 6.74046 11.6294C6.61807 11.1203 6.63001 10.0546 6.76388 9.54074C6.89457 9.03921 7.09235 8.55377 7.30774 8.20588C7.39993 8.05697 7.47569 7.93498 7.47606 7.93474C7.47642 7.93451 8.24212 8.19956 9.17763 8.52374Z"
        fill="currentColor" stroke="currentColor" stroke-width="0.157143" />
</svg>