<svg xmlns="http://www.w3.org/2000/svg" width="22" height="22" viewBox="0 0 22 22" fill="none">
    <path
        d="M11.0028 20.4294C5.78935 20.4294 1.57422 16.2143 1.57422 11.0008C1.57422 5.78739 5.78935 1.57227 11.0028 1.57227C16.2162 1.57227 20.4314 5.78739 20.4314 11.0008C20.4314 16.2143 16.1608 20.4294 11.0028 20.4294ZM11.0028 2.68151C6.39943 2.68151 2.68346 6.39748 2.68346 11.0008C2.68346 15.6042 6.39943 19.3202 11.0028 19.3202C15.6062 19.3202 19.3221 15.6042 19.3221 11.0008C19.3221 6.39748 15.5507 2.68151 11.0028 2.68151Z"
        fill="currentColor" stroke="currentColor" stroke-width="0.314286" />
    <path
        d="M5.67776 17.2863L4.71484 16.5006C4.98232 15.9043 5.83825 15.9447 6.74767 15.5471C7.65709 15.1496 8.7805 14.7024 8.7805 14.1558V13.4105C8.45952 13.162 7.92457 12.6155 7.81758 11.8204C7.5501 11.572 7.12214 11.1248 7.12214 10.5285C7.12214 10.1807 7.28263 9.88255 7.38962 9.68379C7.28263 9.28627 7.17563 8.54093 7.17563 7.94466C7.17563 6.00677 8.62001 4.71484 10.9203 4.71484C11.5623 4.71484 12.3647 4.86391 12.7927 5.31112C13.8091 5.50987 14.665 6.60304 14.665 7.94466C14.665 8.78938 14.5045 9.48503 14.3975 9.83286C14.5045 9.98193 14.6115 10.2304 14.6115 10.5285C14.6115 11.1745 14.237 11.6217 13.9161 11.8204C13.8091 12.6155 13.3276 13.1124 13.0066 13.3608V14.1558C13.0066 14.603 13.9696 14.9509 14.8255 15.249C15.8419 15.5968 17.0822 16.1931 17.2863 16.5006V18.072C17.1258 17.6745 15.2534 16.4416 14.451 16.1931C13.2741 15.7956 11.9367 15.3484 11.9367 14.2055V12.9136L12.2042 12.7645C12.2042 12.7645 12.8462 12.367 12.8462 11.572V11.2242L13.1671 11.0751C13.2206 11.0751 13.4881 10.926 13.4881 10.5285C13.4881 10.4291 13.3811 10.2801 13.3276 10.2304L13.1136 10.0316L13.2206 9.78317C13.2206 9.78317 13.4881 8.98814 13.4881 7.99435C13.4881 7.05025 12.8996 6.3546 12.4182 6.3546H12.0972L11.9367 6.10615C11.9367 5.90739 11.5623 5.70863 10.9203 5.70863C9.26196 5.70863 8.24554 6.55335 8.24554 7.94466C8.24554 8.59062 8.51302 9.68379 8.51302 9.68379L8.56652 9.93224L8.35253 10.1807C8.29904 10.1807 8.19205 10.3298 8.19205 10.5285C8.19205 10.777 8.51302 11.0751 8.67351 11.1745L8.88749 11.3235V11.572C8.88749 12.3173 9.58293 12.7148 9.58293 12.7645L9.85041 12.9136V14.2055C9.85041 15.3981 8.45953 15.9943 7.17563 16.4912C6.58718 16.69 5.78475 17.0378 5.67776 17.2863Z"
        fill="currentColor" />
    <path
        d="M12.5737 13.8138V14.1429C12.5737 14.3836 12.4376 14.6037 12.2223 14.7114L11.705 14.97C11.2626 15.1912 10.7419 15.1912 10.2995 14.97L10.2165 14.9286L9.70911 14.6749C9.53855 14.5896 9.4308 14.4153 9.4308 14.2246C9.4308 14.1704 9.42208 14.1167 9.40497 14.0653L8.64509 11.7857L8.06181 10.0359C7.92773 9.63364 7.85938 9.21241 7.85938 8.7884V8.58554C7.85938 8.10653 7.9709 7.63409 8.18512 7.20564C8.48369 6.60851 8.96788 6.12432 9.56502 5.82575L9.70628 5.75512C10.0418 5.58735 10.4118 5.5 10.787 5.5C11.4279 5.5 12.0425 5.7546 12.4957 6.20779L12.5737 6.28571C13.0767 6.7888 13.3594 7.47113 13.3594 8.1826V9.3296C13.3594 9.91556 13.2649 10.4977 13.0796 11.0536L12.9665 11.3929C12.7063 12.1735 12.5737 12.9909 12.5737 13.8138Z"
        fill="currentColor" stroke="currentColor" stroke-width="0.55" stroke-linecap="round" />
</svg>