<svg xmlns="http://www.w3.org/2000/svg" width="32" height="32" viewBox="0 0 32 32" fill="none">
    <path fill-rule="evenodd" clip-rule="evenodd"
        d="M13.2391 6.11598L10.5027 7.25605L10.5022 8.07712L10.5017 8.89818L10.6121 8.85592C10.6729 8.83265 11.9 8.32272 13.3391 7.72272C15.0203 7.02183 15.9943 6.64028 16.0637 6.65545C16.1232 6.66841 17.2654 7.13661 18.6019 7.69592C19.9384 8.25517 21.1369 8.75469 21.2651 8.80599L21.4983 8.89922L21.4977 8.07761L21.4972 7.25605L18.8099 6.14028C17.332 5.52663 16.0896 5.01361 16.0491 5.00026C16.0086 4.98691 14.7441 5.48897 13.2391 6.11598ZM13.6436 8.30603L11.3117 9.27855L11.2993 17.3371L11.2869 25.3956H12.4652H13.6436L13.6443 23.3215C13.6451 21.0711 13.6626 20.8835 13.9196 20.3764C14.1018 20.0167 14.5819 19.5548 14.9691 19.3666C15.8867 18.9206 16.9233 19.0933 17.6419 19.8119C17.8119 19.9819 18.0092 20.2359 18.0804 20.3764C18.3374 20.8835 18.3549 21.0711 18.3557 23.3215L18.3564 25.3956H19.5348H20.7132L20.7007 17.3373L20.6883 9.27899L18.4121 8.33038C17.1601 7.80863 16.0998 7.37092 16.0557 7.35762C16.0115 7.34432 14.9261 7.77112 13.6436 8.30603ZM16.5215 9.43196C16.9323 9.64321 17.1504 10.0037 17.1504 10.4716C17.1504 11.1465 16.6751 11.6216 16 11.6216C15.3249 11.6216 14.8496 11.1465 14.8496 10.4716C14.8496 9.92176 15.155 9.5165 15.7052 9.33638C15.8942 9.27448 16.3098 9.32313 16.5215 9.43196ZM7.72796 12.7689L5.02788 14.129L5.01394 14.6567L5 15.1844H7.75083H10.5017V13.2944C10.5017 12.2549 10.4851 11.4053 10.4648 11.4066C10.4446 11.4078 9.213 12.0208 7.72796 12.7689ZM21.4983 13.2944V15.1844H24.2492H27L26.9861 14.6567L26.9721 14.129L24.272 12.7688C22.787 12.0207 21.5554 11.4077 21.5352 11.4065C21.5149 11.4053 21.4983 12.2549 21.4983 13.2944ZM15.6073 14.7917V15.9699H15.0182H14.429V14.7917V13.6135H15.0182H15.6073V14.7917ZM17.571 14.7917V15.9699H16.9818H16.3927V14.7917V13.6135H16.9818H17.571V14.7917ZM5.00334 20.6828V25.3956H7.7525H10.5017V20.6828V15.9699H7.7525H5.00334V20.6828ZM21.4983 20.6828V25.3956H24.2475H26.9967V20.6828V15.9699H24.2475H21.4983V20.6828ZM7.35977 18.3263V19.5046H6.77066H6.18155V18.3263V17.1481H6.77066H7.35977V18.3263ZM9.32346 18.3263V19.5046H8.73435H8.14524V18.3263V17.1481H8.73435H9.32346V18.3263ZM23.8548 18.3263V19.5046H23.2657H22.6765V18.3263V17.1481H23.2657H23.8548V18.3263ZM25.8184 18.3263V19.5046H25.2293H24.6402V18.3263V17.1481H25.2293H25.8184V18.3263ZM7.35977 22.2537V23.4319H6.77066H6.18155V22.2537V21.0755H6.77066H7.35977V22.2537ZM9.32346 22.2537V23.4319H8.73435H8.14524V22.2537V21.0755H8.73435H9.32346V22.2537ZM23.8548 22.2537V23.4319H23.2657H22.6765V22.2537V21.0755H23.2657H23.8548V22.2537ZM25.8184 22.2537V23.4319H25.2293H24.6402V22.2537V21.0755H25.2293H25.8184V22.2537ZM5.00334 26.5738V26.9666H16H26.9967V26.5738V26.1811H16H5.00334V26.5738Z"
        fill="white" />
</svg>