<svg width="23" height="23" viewBox="0 0 23 23" fill="none" xmlns="http://www.w3.org/2000/svg">
    <path fill-rule="evenodd" clip-rule="evenodd"
        d="M4.46364 1.84757V3.70294L4.73019 3.70364C5.68665 3.7061 6.67786 4.33238 7.10829 5.20631C7.34875 5.69451 7.42881 6.09443 7.42937 6.8107C7.42992 7.49478 7.37471 7.8813 7.22326 8.25428L7.11251 8.52693H8.61019H10.1079L10.8028 7.68041C11.8341 6.42418 12.1451 6.1533 12.7269 6.00435L12.9703 5.94206L12.9934 3.61811C13.0195 1.00258 13.0004 1.13069 13.3643 1.13069C13.7295 1.13069 13.7104 0.997524 13.7248 3.64659L13.7376 5.99897L13.9458 6.08506C14.229 6.20219 14.5502 6.52655 14.7003 6.84688C14.8048 7.06994 14.8245 7.17501 14.824 7.50647C14.8232 8.08581 14.8115 8.10395 12.9193 10.4553L11.7836 11.8666H9.97788H8.17225V12.2377V12.6088H15.5895H23.0067V6.30047V-0.0078125H13.7352H4.46364V1.84757ZM4.13913 4.51156C3.53533 4.67994 3.07731 5.06688 2.80399 5.63963L2.63251 5.99897V6.85709V7.7152L2.80399 8.07454C3.07731 8.64729 3.53533 9.03423 4.13913 9.20261C4.32401 9.25419 4.23421 9.26124 3.3492 9.26495C2.2687 9.2694 2.01818 9.30684 1.57959 9.5292C1.04017 9.80269 0.5581 10.4401 0.432378 11.0459C0.397563 11.2138 0.385278 12.103 0.394225 13.8179L0.407345 16.3427L0.522126 16.5746C0.636351 16.8054 0.987557 17.2008 1.07833 17.2008C1.10646 17.2008 1.12598 17.0634 1.12617 16.8645C1.12654 16.3958 1.1913 16.0487 1.3421 15.7074L1.47121 15.415L1.49559 13.3641C1.52299 11.0549 1.50704 11.1497 1.86761 11.1497C2.22257 11.1497 2.21358 11.1054 2.2286 12.9299L2.24186 14.5467L2.5531 14.3883C3.97392 13.665 5.71256 14.3985 6.19208 15.9233C6.28188 16.209 6.29467 16.3516 6.29407 17.0617C6.29323 18.0569 6.22449 18.3381 5.83944 18.922L5.75975 19.0428L6.07063 19.2235C6.37181 19.3984 7.12925 20.0931 7.32975 20.3782L7.42761 20.5173L7.42904 15.8209L7.43053 11.1245H9.44013H11.4497L12.6114 9.67494C13.2503 8.87773 13.85 8.11063 13.9442 7.97031C14.1019 7.73538 14.1139 7.69414 14.0962 7.44918C14.0812 7.24092 14.0472 7.14639 13.9397 7.01345C13.7211 6.74321 13.5327 6.66176 13.1789 6.68458C12.6114 6.72123 12.384 6.91465 11.2007 8.36736L10.467 9.26824L7.70867 9.26551C5.44577 9.26333 4.98785 9.25261 5.159 9.206C5.88005 9.0096 6.42874 8.45188 6.62571 7.7152C6.66294 7.57581 6.68769 7.2334 6.68769 6.85709C6.68769 5.94183 6.53086 5.47961 6.06678 5.02703C5.55976 4.53262 4.79602 4.32839 4.13913 4.51156ZM3.13758 14.9312C2.59084 15.1207 2.14339 15.5736 1.96468 16.1184C1.82491 16.5444 1.82422 17.5851 1.96343 17.9986C2.17436 18.625 2.63029 19.0559 3.25834 19.2222L3.46695 19.2774L3.28152 19.3083C2.82026 19.3853 2.46548 19.4924 2.11896 19.6592C0.942822 20.2259 0.151821 21.3644 0.0310596 22.6646L0 22.9989H0.74404H1.48808L1.50398 22.5366C1.52262 21.9963 1.57222 21.9109 1.86761 21.9109C2.163 21.9109 2.2126 21.9963 2.23124 22.5366L2.24714 22.9989H3.72192H5.19669L5.21259 22.5366C5.23123 21.9963 5.28083 21.9109 5.57622 21.9109C5.87161 21.9109 5.92121 21.9963 5.93985 22.5366L5.95575 22.9989H7.43053H8.9053L8.9212 22.5366C8.93984 21.9963 8.98944 21.9109 9.28483 21.9109C9.58022 21.9109 9.62983 21.9963 9.64846 22.5366L9.66436 22.9989H11.1391H12.6139L12.6298 22.5366C12.6484 21.9963 12.6981 21.9109 12.9934 21.9109C13.2888 21.9109 13.3384 21.9963 13.3571 22.5366L13.373 22.9989H14.8477H16.3225L16.3384 22.5366C16.3571 21.9963 16.4067 21.9109 16.7021 21.9109C16.9974 21.9109 17.047 21.9963 17.0657 22.5366L17.0816 22.9989H18.5564H20.0311L20.047 22.5366C20.0657 21.9963 20.1153 21.9109 20.4107 21.9109C20.7061 21.9109 20.7557 21.9963 20.7743 22.5366L20.7902 22.9989H21.5342H22.2783L22.2472 22.6646C22.1265 21.3644 21.3355 20.2259 20.1593 19.6592C19.8128 19.4924 19.458 19.3853 18.9968 19.3083L18.8113 19.2774L19.0199 19.2222C19.3697 19.1295 19.5876 19.0022 19.8564 18.7334C20.3166 18.2732 20.4312 17.8873 20.3994 16.9054C20.3756 16.1696 20.3172 15.9559 20.0397 15.5884C19.2853 14.5897 17.8243 14.5938 17.0668 15.5967C16.7856 15.969 16.7021 16.305 16.7021 17.0641C16.7021 17.5983 16.7191 17.7646 16.7979 17.9986C17.0088 18.625 17.4647 19.0559 18.0928 19.2222L18.3014 19.2774L18.116 19.3083C16.7696 19.5328 15.7659 20.2558 15.2191 21.395C15.0362 21.7761 14.8941 22.242 14.8941 22.4605C14.8941 22.527 14.8732 22.5814 14.8477 22.5814C14.8223 22.5814 14.8014 22.527 14.8014 22.4605C14.8014 22.242 14.6593 21.7761 14.4764 21.395C13.9296 20.2558 12.9259 19.5328 11.5795 19.3083L11.3941 19.2774L11.6027 19.2222C11.9525 19.1295 12.1704 19.0022 12.4392 18.7334C12.8994 18.2732 13.014 17.8873 12.9822 16.9054C12.9584 16.1696 12.9 15.9559 12.6224 15.5884C11.8681 14.5897 10.4071 14.5938 9.64957 15.5967C9.36837 15.969 9.28483 16.305 9.28483 17.0641C9.28483 17.5983 9.30189 17.7646 9.38065 17.9986C9.59158 18.625 10.0475 19.0559 10.6756 19.2222L10.8842 19.2774L10.6987 19.3083C9.35242 19.5328 8.34869 20.2558 7.8019 21.395C7.61902 21.7761 7.47688 22.242 7.47688 22.4605C7.47688 22.527 7.45602 22.5814 7.43053 22.5814C7.40503 22.5814 7.38417 22.527 7.38417 22.4605C7.38417 22.242 7.24204 21.7761 7.05916 21.395C6.51237 20.2558 5.50863 19.5328 4.16231 19.3083L3.97688 19.2774L4.18549 19.2222C4.53526 19.1295 4.75319 19.0022 5.02197 18.7334C5.48216 18.2732 5.5968 17.8873 5.565 16.9054C5.54906 16.4127 5.52217 16.1948 5.45666 16.0279C5.27615 15.5679 4.83705 15.1298 4.38418 14.9577C4.03372 14.8245 3.47923 14.8128 3.13758 14.9312Z"
        fill="currentColor" />
</svg>
    