<svg width="23" height="23" viewBox="0 0 23 23" fill="none" xmlns="http://www.w3.org/2000/svg">
    <g clip-path="url(#clip0_4579_5918)">
        <path fill-rule="evenodd" clip-rule="evenodd" fill="currentColor"
            d="M10.7986 1.50766C10.1034 1.69494 10.3531 1.48633 5.05661 6.30365C1.66813 9.38557 0.135416 10.8065 0.0771795 10.9201C-0.165703 11.3933 0.193562 11.9893 0.751189 12.0381C1.17939 12.0757 1.26618 12.0375 1.77187 11.5888L2.23641 11.1766L2.25112 15.0057C2.26744 19.2603 2.24698 18.9696 2.57638 19.621C3.13428 20.724 4.20038 21.4026 5.56018 21.5202C6.18441 21.5742 8.90195 21.5739 9.21453 21.5199C9.50958 21.4688 9.73582 21.3139 9.87316 21.0688L9.97434 20.8882V17.4727V14.0572H11.5483H13.1222V17.4727V20.8882L13.2234 21.0688C13.3608 21.3139 13.587 21.4688 13.8821 21.5199C14.1945 21.5739 16.8226 21.5741 17.4465 21.5202C18.2084 21.4543 18.7956 21.2481 19.3731 20.8437C20.1859 20.2744 20.6904 19.3975 20.7518 18.4474C20.7719 18.1359 20.7627 18.0761 20.6696 17.9143C20.5194 17.6533 20.2825 17.4947 20.007 17.4705C19.6782 17.4417 19.4999 17.4857 19.294 17.6464C19.0804 17.8131 18.9969 18.0004 18.9334 18.4554C18.853 19.0314 18.4978 19.4852 17.934 19.7319L17.6417 19.8598L16.2814 19.8718L14.921 19.8838V16.4665V13.0494L14.8199 12.8688C14.6825 12.6237 14.4563 12.4687 14.1612 12.4177C14.0161 12.3926 12.9715 12.3758 11.5483 12.3758C10.125 12.3758 9.08048 12.3926 8.93536 12.4177C8.64031 12.4687 8.41407 12.6237 8.27673 12.8688L8.17555 13.0494V16.4665V19.8837L6.77024 19.8717L5.36493 19.8598L5.07262 19.7319C4.5614 19.5082 4.1864 19.0685 4.08396 18.5728C4.05486 18.4319 4.03836 16.7525 4.0384 13.9388L4.03849 9.52578L7.56436 6.33785C9.50355 4.58446 11.144 3.13125 11.2098 3.10845C11.387 3.04698 11.7575 3.05822 11.9215 3.13002C12.0007 3.16467 13.6181 4.61792 15.5158 6.35942L18.9661 9.52578L18.9672 11.9263L18.9683 14.3269L19.0695 14.5075C19.1252 14.6068 19.2484 14.7445 19.3435 14.8135C19.503 14.9292 19.5435 14.9389 19.8677 14.9389C20.192 14.9389 20.2325 14.9292 20.3919 14.8135C20.487 14.7445 20.6103 14.6068 20.6659 14.5075C20.7657 14.3294 20.7671 14.3044 20.7671 12.7504V11.1739L21.2332 11.5874C21.7405 12.0376 21.827 12.0757 22.2555 12.0381C22.8122 11.9893 23.1706 11.3963 22.9312 10.9201C22.8121 10.6832 13.4553 2.09428 13.0255 1.82719C12.581 1.55104 12.1073 1.42572 11.5235 1.42978C11.2313 1.43183 10.9799 1.45886 10.7986 1.50766Z"
        />
    </g>
    <defs>
        <clipPath id="clip0_4579_5918">
            <rect width="23.0067" height="23.0067" fill="currentColor"
                transform="translate(0 -0.0078125)" />
        </clipPath>
    </defs>
</svg>
    