<svg width="23" height="23" viewBox="0 0 23 23" fill="none" xmlns="http://www.w3.org/2000/svg">
    <g>
        <path
            d="M11.5033 23.0028C5.14267 23.0028 0 17.8601 0 11.4994C0 5.13877 5.14267 -0.00390625 11.5033 -0.00390625C17.864 -0.00390625 23.0067 5.13877 23.0067 11.4994C23.0067 17.8601 17.7964 23.0028 11.5033 23.0028ZM11.5033 1.34943C5.88701 1.34943 1.35333 5.8831 1.35333 11.4994C1.35333 17.1158 5.88701 21.6495 11.5033 21.6495C17.1197 21.6495 21.6534 17.1158 21.6534 11.4994C21.6534 5.8831 17.052 1.34943 11.5033 1.34943Z"
            fill="currentColor" />
        <path
            d="M4.87425 19.8228L3.65625 19.2815C3.99458 18.4695 5.07725 17.9958 6.22759 17.4545C7.37792 16.9131 8.79892 16.3041 8.79892 15.5598V14.5448C8.39292 14.2065 7.71625 13.4621 7.58092 12.3795C7.24259 12.0411 6.70125 11.4321 6.70125 10.6201C6.70125 10.1465 6.90425 9.74047 7.03959 9.4698C6.90425 8.92846 6.76892 7.91346 6.76892 7.10146C6.76892 4.46246 8.59592 2.70312 11.5056 2.70312C12.3176 2.70312 13.3326 2.90613 13.8739 3.51513C15.1596 3.78579 16.2423 5.27446 16.2423 7.10146C16.2423 8.2518 16.0393 9.19913 15.9039 9.6728C16.0393 9.8758 16.1746 10.2141 16.1746 10.6201C16.1746 11.4998 15.7009 12.1088 15.2949 12.3795C15.1596 13.4621 14.5506 14.1388 14.1446 14.4771V15.5598C14.1446 16.1688 15.3626 16.6425 16.4453 17.0485C17.7309 17.5221 19.0843 18.0635 19.5579 19.1461L18.2723 19.6198C18.0693 19.0785 16.9866 18.6725 15.9716 18.3341C14.4829 17.7928 12.7913 17.1838 12.7913 15.6275V13.8681L13.1296 13.6651C13.1296 13.6651 13.9416 13.1238 13.9416 12.0411V11.5675L14.3476 11.3645C14.4153 11.3645 14.7536 11.1615 14.7536 10.6201C14.7536 10.4848 14.6183 10.2818 14.5506 10.2141L14.2799 9.94347L14.4153 9.60513C14.4153 9.60513 14.7536 8.52246 14.7536 7.16913C14.7536 5.88346 14.0093 4.93613 13.4003 4.93613H12.9943L12.7913 4.59779C12.7913 4.32713 12.3176 4.05646 11.5056 4.05646C9.40792 4.05646 8.12225 5.20679 8.12225 7.10146C8.12225 7.98113 8.46059 9.4698 8.46059 9.4698L8.52826 9.80813L8.25759 10.1465C8.18992 10.1465 8.05459 10.3495 8.05459 10.6201C8.05459 10.9585 8.46059 11.3645 8.66359 11.4998L8.93425 11.7028V12.0411C8.93425 13.0561 9.81392 13.5975 9.81392 13.6651L10.1523 13.8681V15.6275C10.1523 17.2515 8.39292 18.0635 6.76892 18.7401C6.02459 19.0108 5.00958 19.4845 4.87425 19.8228Z"
            fill="currentColor" />
    </g>
</svg>
    