<svg xmlns="http://www.w3.org/2000/svg" width="22" height="22" viewBox="0 0 22 22" fill="none">
    <path
        d="M12.7466 11.0002L17.6349 6.11184C17.8669 5.88025 17.9974 5.56599 17.9977 5.23818C17.998 4.91037 17.868 4.59588 17.6365 4.36388C17.4049 4.13188 17.0906 4.00138 16.7628 4.00109C16.435 4.0008 16.1205 4.13075 15.8885 4.36233L11.0002 9.25066L6.11184 4.36233C5.87984 4.13034 5.56518 4 5.23709 4C4.90899 4 4.59433 4.13034 4.36233 4.36233C4.13034 4.59433 4 4.90899 4 5.23709C4 5.56518 4.13034 5.87984 4.36233 6.11184L9.25066 11.0002L4.36233 15.8885C4.13034 16.1205 4 16.4351 4 16.7632C4 17.0913 4.13034 17.406 4.36233 17.638C4.59433 17.87 4.90899 18.0003 5.23709 18.0003C5.56518 18.0003 5.87984 17.87 6.11184 17.638L11.0002 12.7497L15.8885 17.638C16.1205 17.87 16.4351 18.0003 16.7632 18.0003C17.0913 18.0003 17.406 17.87 17.638 17.638C17.87 17.406 18.0003 17.0913 18.0003 16.7632C18.0003 16.4351 17.87 16.1205 17.638 15.8885L12.7466 11.0002Z"
        fill="#FCFCFC" />
</svg>