<svg xmlns="http://www.w3.org/2000/svg" width="32" height="32" viewBox="0 0 32 32" fill="none">
    <path fill-rule="evenodd" clip-rule="evenodd"
        d="M8.96364 6.35538V8.21076L9.23019 8.21145C10.1866 8.21391 11.1779 8.84019 11.6083 9.71412C11.8488 10.2023 11.9288 10.6022 11.9294 11.3185C11.9299 12.0026 11.8747 12.3891 11.7233 12.7621L11.6125 13.0347H13.1102H14.6079L15.3028 12.1882C16.3341 10.932 16.6451 10.6611 17.2269 10.5122L17.4703 10.4499L17.4934 8.12592C17.5195 5.51039 17.5004 5.63851 17.8643 5.63851C18.2295 5.63851 18.2104 5.50534 18.2248 8.1544L18.2376 10.5068L18.4458 10.5929C18.729 10.71 19.0502 11.0344 19.2003 11.3547C19.3048 11.5778 19.3245 11.6828 19.324 12.0143C19.3232 12.5936 19.3115 12.6118 17.4193 14.9631L16.2836 16.3744H14.4779H12.6722V16.7455V17.1166H20.0895H27.5067V10.8083V4.5H18.2352H8.96364V6.35538ZM8.63913 9.01938C8.03533 9.18775 7.57731 9.57469 7.30399 10.1474L7.13251 10.5068V11.3649V12.223L7.30399 12.5824C7.57731 13.1551 8.03533 13.542 8.63913 13.7104C8.82401 13.762 8.73421 13.7691 7.8492 13.7728C6.7687 13.7772 6.51818 13.8146 6.07959 14.037C5.54017 14.3105 5.0581 14.9479 4.93238 15.5537C4.89756 15.7217 4.88528 16.6108 4.89423 18.3257L4.90734 20.8505L5.02213 21.0824C5.13635 21.3132 5.48756 21.7086 5.57833 21.7086C5.60646 21.7086 5.62598 21.5712 5.62617 21.3723C5.62654 20.9036 5.6913 20.5565 5.8421 20.2152L5.97121 19.9228L5.99559 17.8719C6.02299 15.5627 6.00704 15.6575 6.36761 15.6575C6.72257 15.6575 6.71358 15.6133 6.7286 17.4377L6.74186 19.0545L7.0531 18.8961C8.47392 18.1728 10.2126 18.9063 10.6921 20.4311C10.7819 20.7168 10.7947 20.8594 10.7941 21.5695C10.7932 22.5648 10.7245 22.8459 10.3394 23.4298L10.2598 23.5507L10.5706 23.7313C10.8718 23.9062 11.6292 24.6009 11.8297 24.886L11.9276 25.0251L11.929 20.3287L11.9305 15.6323H13.9401H15.9497L17.1114 14.1828C17.7503 13.3855 18.35 12.6184 18.4442 12.4781C18.6019 12.2432 18.6139 12.202 18.5962 11.957C18.5812 11.7487 18.5472 11.6542 18.4397 11.5213C18.2211 11.251 18.0327 11.1696 17.6789 11.1924C17.1114 11.229 16.884 11.4225 15.7007 12.8752L14.967 13.7761L12.2087 13.7733C9.94577 13.7711 9.48785 13.7604 9.659 13.7138C10.38 13.5174 10.9287 12.9597 11.1257 12.223C11.1629 12.0836 11.1877 11.7412 11.1877 11.3649C11.1877 10.4496 11.0309 9.98742 10.5668 9.53485C10.0598 9.04044 9.29602 8.8362 8.63913 9.01938ZM7.63758 19.439C7.09084 19.6285 6.64339 20.0814 6.46468 20.6262C6.32491 21.0522 6.32422 22.0929 6.46343 22.5064C6.67436 23.1328 7.13029 23.5637 7.75834 23.73L7.96695 23.7852L7.78152 23.8162C7.32026 23.8931 6.96548 24.0002 6.61896 24.1671C5.44282 24.7337 4.65182 25.8722 4.53106 27.1724L4.5 27.5067H5.24404H5.98808L6.00398 27.0444C6.02262 26.5041 6.07222 26.4187 6.36761 26.4187C6.663 26.4187 6.7126 26.5041 6.73124 27.0444L6.74714 27.5067H8.22192H9.69669L9.71259 27.0444C9.73123 26.5041 9.78083 26.4187 10.0762 26.4187C10.3716 26.4187 10.4212 26.5041 10.4398 27.0444L10.4558 27.5067H11.9305H13.4053L13.4212 27.0444C13.4398 26.5041 13.4894 26.4187 13.7848 26.4187C14.0802 26.4187 14.1298 26.5041 14.1485 27.0444L14.1644 27.5067H15.6391H17.1139L17.1298 27.0444C17.1484 26.5041 17.1981 26.4187 17.4934 26.4187C17.7888 26.4187 17.8384 26.5041 17.8571 27.0444L17.873 27.5067H19.3477H20.8225L20.8384 27.0444C20.8571 26.5041 20.9067 26.4187 21.2021 26.4187C21.4974 26.4187 21.547 26.5041 21.5657 27.0444L21.5816 27.5067H23.0564H24.5311L24.547 27.0444C24.5657 26.5041 24.6153 26.4187 24.9107 26.4187C25.2061 26.4187 25.2557 26.5041 25.2743 27.0444L25.2902 27.5067H26.0342H26.7783L26.7472 27.1724C26.6265 25.8722 25.8355 24.7337 24.6593 24.1671C24.3128 24.0002 23.958 23.8931 23.4968 23.8162L23.3113 23.7852L23.5199 23.73C23.8697 23.6373 24.0876 23.51 24.3564 23.2412C24.8166 22.781 24.9312 22.3951 24.8994 21.4133C24.8756 20.6775 24.8172 20.4637 24.5397 20.0962C23.7853 19.0975 22.3243 19.1016 21.5668 20.1045C21.2856 20.4768 21.2021 20.8128 21.2021 21.5719C21.2021 22.1061 21.2191 22.2724 21.2979 22.5064C21.5088 23.1328 21.9647 23.5637 22.5928 23.73L22.8014 23.7852L22.616 23.8162C21.2696 24.0407 20.2659 24.7637 19.7191 25.9028C19.5362 26.2839 19.3941 26.7498 19.3941 26.9684C19.3941 27.0348 19.3732 27.0892 19.3477 27.0892C19.3223 27.0892 19.3014 27.0348 19.3014 26.9684C19.3014 26.7498 19.1593 26.2839 18.9764 25.9028C18.4296 24.7637 17.4259 24.0407 16.0795 23.8162L15.8941 23.7852L16.1027 23.73C16.4525 23.6373 16.6704 23.51 16.9392 23.2412C17.3994 22.781 17.514 22.3951 17.4822 21.4133C17.4584 20.6775 17.4 20.4637 17.1224 20.0962C16.3681 19.0975 14.9071 19.1016 14.1496 20.1045C13.8684 20.4768 13.7848 20.8128 13.7848 21.5719C13.7848 22.1061 13.8019 22.2724 13.8807 22.5064C14.0916 23.1328 14.5475 23.5637 15.1756 23.73L15.3842 23.7852L15.1987 23.8162C13.8524 24.0407 12.8487 24.7637 12.3019 25.9028C12.119 26.2839 11.9769 26.7498 11.9769 26.9684C11.9769 27.0348 11.956 27.0892 11.9305 27.0892C11.905 27.0892 11.8842 27.0348 11.8842 26.9684C11.8842 26.7498 11.742 26.2839 11.5592 25.9028C11.0124 24.7637 10.0086 24.0407 8.66231 23.8162L8.47688 23.7852L8.68549 23.73C9.03526 23.6373 9.25319 23.51 9.52197 23.2412C9.98216 22.781 10.0968 22.3951 10.065 21.4133C10.0491 20.9205 10.0222 20.7026 9.95666 20.5358C9.77615 20.0758 9.33705 19.6376 8.88418 19.4655C8.53372 19.3324 7.97923 19.3206 7.63758 19.439Z"
        fill="#FCFCFC" />
</svg>