<svg xmlns="http://www.w3.org/2000/svg" width="32" height="32" viewBox="0 0 32 32" fill="none">
    <path fill-rule="evenodd" clip-rule="evenodd"
        d="M15.2986 6.01742C14.6034 6.20471 14.8531 5.9961 9.55661 10.8134C6.16813 13.8953 4.63542 15.3163 4.57718 15.4298C4.3343 15.9031 4.69356 16.499 5.25119 16.5479C5.67939 16.5854 5.76618 16.5472 6.27187 16.0986L6.73641 15.6864L6.75112 19.5154C6.76744 23.7701 6.74698 23.4793 7.07638 24.1307C7.63428 25.2338 8.70038 25.9123 10.0602 26.0299C10.6844 26.0839 13.4019 26.0837 13.7145 26.0296C14.0096 25.9786 14.2358 25.8236 14.3732 25.5785L14.4743 25.3979V21.9824V18.567H16.0483H17.6222V21.9824V25.3979L17.7234 25.5785C17.8608 25.8236 18.087 25.9786 18.3821 26.0296C18.6945 26.0837 21.3226 26.0839 21.9465 26.0299C22.7084 25.964 23.2956 25.7579 23.8731 25.3534C24.6859 24.7842 25.1904 23.9073 25.2518 22.9572C25.2719 22.6456 25.2627 22.5858 25.1696 22.4241C25.0194 22.1631 24.7825 22.0044 24.507 21.9803C24.1782 21.9515 23.9999 21.9954 23.794 22.1562C23.5804 22.3229 23.4969 22.5102 23.4334 22.9652C23.353 23.5412 22.9978 23.995 22.434 24.2417L22.1417 24.3696L20.7814 24.3815L19.421 24.3935V20.9763V17.5591L19.3199 17.3785C19.1825 17.1334 18.9563 16.9785 18.6612 16.9274C18.5161 16.9023 17.4715 16.8856 16.0483 16.8856C14.625 16.8856 13.5805 16.9023 13.4354 16.9274C13.1403 16.9785 12.9141 17.1334 12.7767 17.3785L12.6755 17.5591V20.9763V24.3934L11.2702 24.3815L9.86493 24.3696L9.57262 24.2417C9.0614 24.0179 8.6864 23.5783 8.58396 23.0825C8.55486 22.9417 8.53836 21.2623 8.5384 18.4486L8.53849 14.0355L12.0644 10.8476C14.0036 9.09423 15.644 7.64102 15.7098 7.61822C15.887 7.55675 16.2575 7.56798 16.4215 7.63979C16.5007 7.67444 18.1181 9.12769 20.0158 10.8692L23.4661 14.0355L23.4672 16.4361L23.4683 18.8366L23.5695 19.0172C23.6252 19.1165 23.7484 19.2542 23.8435 19.3232C24.003 19.4389 24.0435 19.4486 24.3677 19.4486C24.692 19.4486 24.7325 19.4389 24.8919 19.3232C24.987 19.2542 25.1103 19.1165 25.1659 19.0172C25.2657 18.8392 25.2671 18.8142 25.2671 17.2601V15.6837L25.7332 16.0972C26.2405 16.5473 26.327 16.5854 26.7555 16.5479C27.3122 16.4991 27.6706 15.9061 27.4312 15.4298C27.3121 15.193 17.9553 6.60405 17.5255 6.33696C17.081 6.06081 16.6073 5.93549 16.0235 5.93955C15.7313 5.9416 15.4799 5.96862 15.2986 6.01742Z"
        fill="#FCFCFC" />
</svg>