<svg xmlns="http://www.w3.org/2000/svg" width="32" height="32" viewBox="0 0 32 32" fill="none">
    <path fill-rule="evenodd" clip-rule="evenodd"
        d="M6.66985 5.13399C5.52138 5.41398 4.77341 6.65624 5.06933 7.79226C5.42759 9.16781 6.99653 9.86373 8.23142 9.19491L8.47049 9.06537L8.73272 9.33035L8.9949 9.59532L8.80504 9.811C8.66859 9.96603 8.61518 10.0671 8.61518 10.1703C8.61518 10.3513 8.71633 10.4983 8.86679 10.5361C9.00946 10.5719 9.13497 10.5108 9.3593 10.2963L9.53122 10.132L9.77935 10.377L10.0274 10.622L9.75317 10.9473C8.48019 12.4568 7.79416 14.6495 7.96773 16.6536C8.12061 18.4181 8.73913 19.9728 9.77125 21.1867L10.028 21.4887L9.76635 21.7476L9.50471 22.0065L9.24368 21.687C9.08855 21.4971 8.93457 21.3554 8.86418 21.3377C8.71459 21.3001 8.55022 21.3737 8.45328 21.5217C8.34375 21.6889 8.42961 21.9031 8.74119 22.2396L8.99614 22.515L8.73331 22.7805L8.47049 23.0462L8.23261 22.9173C6.97794 22.2377 5.43226 22.9259 5.06745 24.3265C4.66122 25.8861 6.1583 27.378 7.72101 26.971C8.86047 26.6742 9.57209 25.5353 9.3306 24.3948C9.2916 24.2107 9.2001 23.95 9.12723 23.8155L8.99477 23.5709L9.77766 22.7914L10.5605 22.0118L10.7894 22.2168C11.1416 22.5323 11.9775 23.0771 12.4601 23.3056C14.0576 24.0623 15.8952 24.2826 17.641 23.9268C18.9306 23.664 20.1706 23.0724 21.1154 22.2691L21.4173 22.0124L21.6962 22.2954C21.8495 22.451 21.9889 22.6355 22.006 22.7053C22.0385 22.8387 22.1823 22.9674 22.2987 22.9674C22.3365 22.9674 22.5041 23.103 22.6712 23.2688L22.9749 23.5702L22.8242 23.8696C22.5174 24.4795 22.5172 25.1378 22.8237 25.7877C23.4082 27.0269 25.058 27.4069 26.1243 26.5479C26.6285 26.1417 26.9132 25.6047 26.9575 24.9763C27.0779 23.2701 25.2537 22.0955 23.7492 22.9104L23.4986 23.0462L23.2363 22.7811L22.9741 22.5162L23.0953 22.3721C23.2505 22.1877 23.2567 21.9683 23.1106 21.831C22.9708 21.6997 22.8102 21.7054 22.5983 21.8492L22.4249 21.9668L22.1829 21.7278L21.9409 21.4889L22.1978 21.1868C23.4799 19.6788 24.1755 17.4692 24.0013 15.458C23.8484 13.6934 23.2299 12.1387 22.1978 10.9247L21.9409 10.6227L22.1897 10.377L22.4384 10.1314L22.6879 10.3778C22.986 10.6722 23.1614 10.705 23.3382 10.4995C23.5186 10.2898 23.4746 10.1353 23.1314 9.77315L22.9684 9.60114L23.2335 9.33328L23.4986 9.06537L23.7376 9.19491C24.9725 9.86373 26.5415 9.16781 26.8997 7.79226C27.308 6.2247 25.8158 4.73224 24.2484 5.14049C23.0715 5.44702 22.3475 6.64649 22.6465 7.79441C22.6854 7.94372 22.775 8.17272 22.8457 8.30326L22.9743 8.54059L22.1914 9.32019L21.4085 10.0998L21.1797 9.89477C20.8135 9.56676 19.9805 9.02853 19.4616 8.78456C18.5811 8.37059 17.6681 8.13249 16.6129 8.04154C14.5747 7.86586 12.3707 8.55112 10.8809 9.82364L10.5605 10.0973L9.77766 9.31895L8.99477 8.54059L9.12329 8.30326C9.58015 7.45977 9.44073 6.45845 8.76824 5.75342C8.2333 5.19258 7.41741 4.95177 6.66985 5.13399ZM14.8039 6.60259C14.4045 6.66498 14.2729 6.73904 14.2254 6.92794C14.1866 7.08256 14.3118 7.30524 14.4582 7.342C14.5241 7.35852 14.7716 7.35143 15.0082 7.32625C15.3562 7.28918 15.46 7.26016 15.5513 7.17443C15.7758 6.96351 15.6467 6.62337 15.3208 6.56703C15.2453 6.55398 15.0127 6.56996 14.8039 6.60259ZM16.5153 6.68677C16.368 6.83402 16.3638 6.99559 16.5031 7.15754C16.5977 7.26748 16.6639 7.28854 17.0867 7.34328C17.5346 7.40123 17.5707 7.39981 17.6781 7.32012C17.9537 7.1157 17.8947 6.79113 17.562 6.68109C17.4622 6.64804 17.2126 6.60909 17.0074 6.59449C16.6498 6.56904 16.6292 6.57293 16.5153 6.68677ZM12.6431 7.13547C12.2287 7.29732 12.0734 7.44878 12.1127 7.65256C12.1462 7.82654 12.292 7.95407 12.4573 7.95407C12.6272 7.95407 13.3849 7.65229 13.4556 7.5564C13.6184 7.33577 13.421 6.98909 13.1373 6.9971C13.0543 6.99948 12.832 7.06173 12.6431 7.13547ZM18.793 7.03821C18.6667 7.0892 18.5478 7.25965 18.5478 7.38956C18.5478 7.44549 18.5941 7.54097 18.6508 7.60176C18.7652 7.72456 19.4376 7.99984 19.6232 7.99984C19.7736 7.99984 19.9667 7.81007 19.9667 7.66213C19.9667 7.40475 19.6926 7.23169 18.9368 7.01189C18.9117 7.00456 18.8469 7.01642 18.793 7.03821ZM10.9194 7.99032C10.8399 8.0333 10.6494 8.16631 10.4961 8.28587C10.239 8.48626 10.2172 8.51729 10.2172 8.68304C10.2172 8.82443 10.2439 8.88388 10.3423 8.96133C10.5138 9.09613 10.6693 9.05768 11.0634 8.78309C11.4565 8.50919 11.5674 8.3716 11.5265 8.20865C11.456 7.92761 11.2033 7.83675 10.9194 7.99032ZM20.6498 8.08786C20.5762 8.16146 20.516 8.25516 20.516 8.29612C20.516 8.38826 20.6433 8.64065 20.6898 8.64065C20.7085 8.64065 20.8652 8.74364 21.0378 8.86951C21.2592 9.03091 21.3949 9.09837 21.498 9.09837C21.7779 9.09837 21.9429 8.75737 21.7774 8.52105C21.6802 8.38227 21.0081 7.95407 20.8874 7.95407C20.8303 7.95407 20.7234 8.01426 20.6498 8.08786ZM16.9467 8.79811C18.51 9.00623 19.8338 9.6362 20.9445 10.7004C23.0238 12.6928 23.8008 15.605 22.9659 18.2757C22.6907 19.156 22.1376 20.1482 21.5691 20.7815L21.333 21.0445L21.1588 20.8241C20.9357 20.5418 20.6486 20.294 20.3422 20.1193L20.0998 19.9811L20.3933 19.677C20.8044 19.2512 20.9768 18.8843 21.0862 18.2024C21.1007 18.1118 21.0912 17.8852 21.0651 17.6989C20.9386 16.7977 20.2627 16.0234 19.3748 15.7626C19.0214 15.6588 18.4015 15.6671 18.0343 15.7804C17.4437 15.9629 16.8908 16.438 16.6278 16.9889C16.4534 17.3544 16.3987 17.6014 16.3987 18.024C16.3987 18.696 16.6088 19.2059 17.079 19.6754L17.3806 19.9764L17.1096 20.1331C16.7891 20.3183 16.3361 20.7516 16.1442 21.0563C16.069 21.1759 15.9971 21.2736 15.9845 21.2736C15.9719 21.2736 15.9 21.1759 15.8247 21.0563C15.6356 20.7564 15.1761 20.3179 14.8557 20.1318L14.5885 19.9764L14.8901 19.6754C15.3603 19.2059 15.5703 18.696 15.5703 18.024C15.5703 17.6014 15.5157 17.3544 15.3412 16.9889C15.0783 16.438 14.5254 15.9629 13.9347 15.7804C13.5676 15.6671 12.9476 15.6588 12.5943 15.7626C11.7094 16.0225 11.0304 16.7982 10.9049 17.6921C10.8021 18.4245 11.0346 19.1164 11.5693 19.6704L11.8693 19.9811L11.6269 20.1193C11.3205 20.294 11.0334 20.5418 10.8103 20.8241L10.636 21.0445L10.4002 20.7815C10.2705 20.6369 10.0405 20.3342 9.88907 20.1088C8.23481 17.6464 8.26955 14.5005 9.9796 11.9134C10.3682 11.3255 11.3068 10.3762 11.8879 9.98347C13.3679 8.98312 15.1682 8.56128 16.9467 8.79811ZM15.3946 9.53692C14.5861 9.75434 13.8798 10.4681 13.6998 11.2497C13.6327 11.5408 13.64 12.1457 13.7138 12.4229C13.8119 12.7914 14.0617 13.2168 14.3431 13.4946L14.6013 13.7494L14.2308 13.9986C13.8997 14.2213 13.3297 14.8032 13.3297 14.9185C13.3297 14.9398 13.3985 14.9572 13.4826 14.9572C13.7449 14.9572 14.327 15.1303 14.6709 15.3104C15.0601 15.5144 15.625 16.0338 15.8243 16.371C15.8998 16.4987 15.9719 16.6032 15.9845 16.6032C15.9971 16.6032 16.0692 16.4987 16.1447 16.371C16.344 16.0338 16.909 15.5144 17.2982 15.3104C17.6421 15.1303 18.2241 14.9572 18.4864 14.9572C18.5705 14.9572 18.6393 14.9398 18.6393 14.9185C18.6393 14.8032 18.0693 14.2213 17.7382 13.9986L17.3678 13.7494L17.6259 13.4946C17.9074 13.2168 18.1572 12.7914 18.2553 12.4229C18.3291 12.1457 18.3363 11.5408 18.2692 11.2497C18.0869 10.4579 17.3783 9.74916 16.5548 9.53463C16.2223 9.44803 15.7214 9.44899 15.3946 9.53692ZM16.5338 10.3212C16.9481 10.4679 17.2184 10.7139 17.4535 11.1581C17.546 11.333 17.5626 11.4297 17.5631 11.7989C17.5636 12.1744 17.5471 12.2691 17.4425 12.4923C17.2948 12.8073 17.0297 13.0806 16.707 13.2507C16.4869 13.3666 16.4218 13.3781 15.9845 13.3781C15.5523 13.3781 15.4807 13.3658 15.2729 13.2562C14.9606 13.0913 14.6677 12.7898 14.5241 12.4855C14.4221 12.2692 14.4055 12.1726 14.4061 11.7989C14.4067 11.4123 14.4209 11.337 14.5347 11.1198C14.9262 10.3725 15.7498 10.0435 16.5338 10.3212ZM7.85659 11.1344C7.79416 11.1969 7.66206 11.4154 7.5631 11.6201C7.39681 11.9639 7.38761 12.003 7.44144 12.1358C7.54328 12.387 7.86538 12.4566 8.03423 12.264C8.15489 12.1264 8.47786 11.4729 8.47786 11.3664C8.47786 11.0546 8.08358 10.9074 7.85659 11.1344ZM23.6493 11.2247C23.5875 11.2865 23.537 11.3796 23.537 11.4316C23.537 11.5516 23.9154 12.3092 24.0178 12.3942C24.1271 12.4848 24.385 12.4735 24.4959 12.3732C24.6403 12.2424 24.617 12.0019 24.424 11.6342C24.3328 11.4605 24.2159 11.272 24.1643 11.2153C24.0343 11.0729 23.7968 11.0773 23.6493 11.2247ZM7.00262 13.0837C6.90755 13.1391 6.69274 13.8143 6.69274 14.0577C6.69274 14.2619 6.85679 14.4537 7.03141 14.4537C7.2545 14.4537 7.37525 14.2836 7.49458 13.8012C7.60626 13.3498 7.60429 13.2599 7.4797 13.1149C7.4034 13.0261 7.13206 13.0083 7.00262 13.0837ZM24.5015 13.2469C24.383 13.3976 24.3834 13.4489 24.5064 13.9393C24.6174 14.3817 24.7359 14.5462 24.9424 14.5438C25.0903 14.5421 25.1923 14.4746 25.2717 14.3255C25.361 14.1579 25.1857 13.3959 25.0143 13.2065C24.898 13.078 24.617 13.1002 24.5015 13.2469ZM6.59483 15.2735C6.49518 15.3541 6.48557 15.4 6.47147 15.8615C6.45692 16.3364 6.46182 16.3687 6.56718 16.4912C6.71819 16.6667 6.94027 16.6687 7.08903 16.4957C7.18708 16.3817 7.19623 16.3291 7.19623 15.8781C7.19623 15.422 7.18831 15.3777 7.09032 15.2856C6.95863 15.1619 6.73938 15.1566 6.59483 15.2735ZM24.8852 15.39C24.7803 15.4949 24.7728 15.534 24.7728 15.9786C24.7728 16.2406 24.7599 16.5494 24.744 16.665C24.7178 16.8564 24.7275 16.8872 24.8549 17.0146C25.0242 17.1839 25.18 17.1934 25.3524 17.0451C25.4776 16.9374 25.4796 16.9271 25.4975 16.314C25.5075 15.9719 25.5025 15.6395 25.4864 15.5752C25.4127 15.2816 25.0923 15.1829 24.8852 15.39ZM13.8889 16.5562C14.2289 16.7188 14.4992 16.9867 14.6669 17.3274C14.8014 17.6006 14.8173 17.6745 14.8173 18.024C14.8173 18.3735 14.8014 18.4474 14.6669 18.7205C14.5001 19.0593 14.2265 19.3316 13.8883 19.4952C13.5725 19.6482 13.0244 19.6665 12.6776 19.5357C12.3321 19.4053 11.9534 19.0582 11.7869 18.7193C11.6735 18.4884 11.6593 18.4095 11.6609 18.024C11.6631 17.5131 11.7482 17.279 12.0514 16.95C12.4185 16.5518 12.7538 16.415 13.3068 16.4379C13.5685 16.4487 13.7347 16.4825 13.8889 16.5562ZM19.4082 16.5816C20.3918 17.0231 20.648 18.2953 19.915 19.0974C19.5758 19.4686 19.2755 19.5989 18.7537 19.6012C18.4019 19.6029 18.3043 19.5855 18.0846 19.4825C17.7363 19.3192 17.4935 19.089 17.3073 18.7457C17.1613 18.4766 17.1517 18.4319 17.1519 18.024C17.1521 17.6386 17.1665 17.562 17.2777 17.3505C17.7114 16.5265 18.5837 16.2117 19.4082 16.5816ZM6.89871 17.3739C6.64138 17.4277 6.58819 17.5988 6.67759 18.0857C6.78904 18.6926 6.96678 18.8893 7.28476 18.7576C7.51051 18.6641 7.54067 18.5058 7.42587 18.0168C7.37104 17.7833 7.30769 17.5577 7.28508 17.5154C7.23601 17.4238 7.02678 17.3471 6.89871 17.3739ZM24.6079 18.0019C24.5226 18.132 24.3179 18.8156 24.3162 18.9758C24.3147 19.1152 24.5106 19.3056 24.6556 19.3056C24.8696 19.3056 25.0384 19.0914 25.1392 18.6918C25.2541 18.2364 25.2541 18.0933 25.139 17.9782C25.0001 17.8393 24.7058 17.8524 24.6079 18.0019ZM7.40839 19.5378C7.23271 19.676 7.24603 19.9053 7.45251 20.2974C7.66462 20.7001 7.77356 20.8161 7.93958 20.8161C8.12477 20.8161 8.22707 20.7506 8.29381 20.5895C8.34663 20.4621 8.33532 20.4176 8.1532 20.0343C7.87792 19.455 7.68073 19.3235 7.40839 19.5378ZM23.9522 19.9574C23.8014 20.0357 23.3996 20.7423 23.3996 20.9293C23.3996 21.1163 23.5616 21.2738 23.754 21.2738C23.8624 21.2738 23.9295 21.2337 24.0348 21.106C24.2384 20.859 24.4524 20.4341 24.4524 20.2769C24.4524 20.0129 24.1803 19.8391 23.9522 19.9574ZM10.1217 22.9345C10.0008 23.0273 9.93484 23.1941 9.96486 23.3308C9.98358 23.4161 10.0843 23.5308 10.2611 23.668C10.76 24.0554 11.0039 24.1172 11.1751 23.8995C11.3674 23.655 11.2974 23.5148 10.801 23.1505C10.4228 22.8728 10.2667 22.8232 10.1217 22.9345ZM20.7089 23.4528C20.3157 23.7114 20.2182 23.8433 20.2694 24.0473C20.3285 24.2827 20.6188 24.3623 20.8959 24.2191C21.1302 24.098 21.5157 23.7988 21.5713 23.6951C21.6824 23.4873 21.479 23.1935 21.2282 23.1998C21.1397 23.202 20.9486 23.2951 20.7089 23.4528ZM11.9316 24.1325C11.8034 24.2607 11.785 24.4544 11.8873 24.6005C11.9649 24.7112 12.5378 24.9634 12.811 25.0071C12.9771 25.0337 13.0047 25.0229 13.119 24.8872C13.214 24.7742 13.2373 24.7092 13.2151 24.6194C13.184 24.4943 13.0222 24.2948 12.9518 24.2948C12.9289 24.2948 12.7694 24.233 12.5974 24.1575C12.2173 23.9907 12.0786 23.9855 11.9316 24.1325ZM18.8239 24.363C18.3626 24.528 18.2731 24.6006 18.2731 24.81C18.2731 25.1593 18.4697 25.2499 18.929 25.1124C19.5538 24.9253 19.7569 24.7459 19.6531 24.473C19.5471 24.194 19.3643 24.1697 18.8239 24.363ZM14.05 24.764C13.8266 24.9336 13.8919 25.3009 14.1608 25.3861C14.4393 25.4744 14.9004 25.5381 15.0532 25.5094C15.3342 25.4568 15.4475 25.091 15.2407 24.9043C15.0667 24.7472 14.2057 24.6457 14.05 24.764ZM16.7067 24.8021C16.2904 24.8462 16.1987 24.8873 16.126 25.0628C16.0592 25.2242 16.1179 25.4044 16.2698 25.504C16.3575 25.5614 16.4543 25.567 16.8244 25.5357C17.4319 25.4845 17.6085 25.3488 17.521 25.0004C17.4919 24.8844 17.2792 24.7485 17.1426 24.7586C17.0972 24.7619 16.9011 24.7815 16.7067 24.8021Z"
        fill="white" />
</svg>