<svg xmlns="http://www.w3.org/2000/svg" width="28" height="28" viewBox="0 0 28 28" fill="none">
    <path fill-rule="evenodd" clip-rule="evenodd"
        d="M13.7415 7.13042C13.5313 7.18957 13.4021 7.26388 13.2575 7.40868C13.096 7.57049 12.9899 7.7797 12.9538 8.00747C12.9174 8.23711 12.9157 13.4336 12.952 13.6549C13.0398 14.1912 13.4758 14.5705 14.0045 14.5705C14.487 14.5705 14.8949 14.2611 15.031 13.7918C15.0637 13.6791 15.0698 13.2071 15.0698 10.799C15.0698 7.60557 15.0848 7.85924 14.8786 7.55797C14.6331 7.19933 14.1467 7.01642 13.7415 7.13042ZM10.0262 8.52888C9.85914 8.58398 9.81332 8.61462 9.51896 8.86812C8.24629 9.96413 7.4638 11.4191 7.20402 13.1725C7.15679 13.4912 7.15571 14.5754 7.20229 14.8986C7.38068 16.1365 7.80399 17.1804 8.51485 18.1352C9.92824 20.0336 12.2647 21.0872 14.5844 20.8722C16.1264 20.7293 17.5068 20.1223 18.6273 19.0946C19.8157 18.0045 20.5343 16.6432 20.7924 14.993C20.8596 14.5638 20.8596 13.5166 20.7925 13.0901C20.5937 11.8263 20.1511 10.7858 19.4025 9.82196C18.9754 9.27207 18.3046 8.6499 18.0249 8.54428C17.6454 8.40093 17.2154 8.57532 17.0331 8.94656C16.9706 9.07386 16.958 9.13406 16.9588 9.30209C16.9603 9.59756 17.0376 9.72411 17.4254 10.0653C17.8036 10.398 18.1019 10.7353 18.3604 11.1226C19.7695 13.2337 19.4786 16.0295 17.667 17.7869C17.0995 18.3375 16.486 18.7227 15.7441 18.994C14.8343 19.3268 13.6748 19.3752 12.6888 19.1216C12.0478 18.9567 11.3838 18.6341 10.8359 18.2215C10.5579 18.0121 10.041 17.4951 9.83269 17.2181C9.12426 16.2761 8.76449 15.2028 8.76587 14.0355C8.76686 13.1875 8.94104 12.4421 9.31114 11.7024C9.64394 11.0372 10.0401 10.5397 10.6919 9.96866C10.9624 9.73164 11.0516 9.56191 11.0501 9.28701C11.0483 8.96873 10.8914 8.71949 10.5986 8.56998C10.4589 8.49862 10.1789 8.47853 10.0262 8.52888Z"
        fill="url(#paint0_linear_9_26660)" />
    <defs>
        <linearGradient id="paint0_linear_9_26660" x1="20.8428" y1="13.9982" x2="7.16797"
            y2="13.9982" gradientUnits="userSpaceOnUse">
            <stop stop-color="#001C54" />
            <stop offset="1" stop-color="#001C54" />
        </linearGradient>
    </defs>
</svg>