<svg xmlns="http://www.w3.org/2000/svg" width="32" height="32" viewBox="0 0 32 32" fill="none">
    <path
        d="M16.0033 27.5067C9.64267 27.5067 4.5 22.364 4.5 16.0033C4.5 9.64267 9.64267 4.5 16.0033 4.5C22.364 4.5 27.5067 9.64267 27.5067 16.0033C27.5067 22.364 22.2964 27.5067 16.0033 27.5067ZM16.0033 5.85333C10.387 5.85333 5.85333 10.387 5.85333 16.0033C5.85333 21.6197 10.387 26.1534 16.0033 26.1534C21.6197 26.1534 26.1534 21.6197 26.1534 16.0033C26.1534 10.387 21.552 5.85333 16.0033 5.85333Z"
        fill="#FCFCFC" />
    <path
        d="M9.37425 24.3267L8.15625 23.7854C8.49458 22.9734 9.57725 22.4997 10.7276 21.9584C11.8779 21.417 13.2989 20.808 13.2989 20.0637V19.0487C12.8929 18.7104 12.2163 17.966 12.0809 16.8834C11.7426 16.545 11.2013 15.936 11.2013 15.124C11.2013 14.6504 11.4043 14.2444 11.5396 13.9737C11.4043 13.4324 11.2689 12.4174 11.2689 11.6054C11.2689 8.96637 13.0959 7.20703 16.0056 7.20703C16.8176 7.20703 17.8326 7.41003 18.3739 8.01903C19.6596 8.2897 20.7423 9.77837 20.7423 11.6054C20.7423 12.7557 20.5393 13.703 20.4039 14.1767C20.5393 14.3797 20.6746 14.718 20.6746 15.124C20.6746 16.0037 20.2009 16.6127 19.7949 16.8834C19.6596 17.966 19.0506 18.6427 18.6446 18.981V20.0637C18.6446 20.6727 19.8626 21.1464 20.9453 21.5524C22.2309 22.026 23.5843 22.5674 24.0579 23.65L22.7723 24.1237C22.5693 23.5824 21.4866 23.1764 20.4716 22.838C18.9829 22.2967 17.2913 21.6877 17.2913 20.1314V18.372L17.6296 18.169C17.6296 18.169 18.4416 17.6277 18.4416 16.545V16.0714L18.8476 15.8684C18.9153 15.8684 19.2536 15.6654 19.2536 15.124C19.2536 14.9887 19.1183 14.7857 19.0506 14.718L18.7799 14.4474L18.9153 14.109C18.9153 14.109 19.2536 13.0264 19.2536 11.673C19.2536 10.3874 18.5093 9.44003 17.9003 9.44003H17.4943L17.2913 9.1017C17.2913 8.83103 16.8176 8.56037 16.0056 8.56037C13.9079 8.56037 12.6223 9.7107 12.6223 11.6054C12.6223 12.485 12.9606 13.9737 12.9606 13.9737L13.0283 14.312L12.7576 14.6504C12.6899 14.6504 12.5546 14.8534 12.5546 15.124C12.5546 15.4624 12.9606 15.8684 13.1636 16.0037L13.4343 16.2067V16.545C13.4343 17.56 14.3139 18.1014 14.3139 18.169L14.6523 18.372V20.1314C14.6523 21.7554 12.8929 22.5674 11.2689 23.244C10.5246 23.5147 9.50958 23.9884 9.37425 24.3267Z"
        fill="#FCFCFC" />
</svg>