<svg width="32" height="32" viewBox="0 0 32 32" fill="none" xmlns="http://www.w3.org/2000/svg">
    <g clip-path="url(#clip0_9_26648)">
        <path
            d="M26.2083 22.3367L22.5874 18.7157C23.2457 17.399 23.6846 15.8628 23.6846 14.3267C23.6846 9.16958 19.515 5 14.3579 5C9.20083 5 5.03125 9.16958 5.03125 14.3267C5.03125 19.4838 9.20083 23.6534 14.3579 23.6534C15.8941 23.6534 17.4303 23.2145 18.747 22.5561L22.3679 26.1771C23.4652 27.2743 25.1111 27.2743 26.2083 26.1771C27.1958 25.0798 27.1958 23.4339 26.2083 22.3367ZM14.3579 21.4588C10.4078 21.4588 7.22576 18.2768 7.22576 14.3267C7.22576 10.3766 10.4078 7.19451 14.3579 7.19451C18.3081 7.19451 21.4901 10.3766 21.4901 14.3267C21.4901 18.2768 18.3081 21.4588 14.3579 21.4588Z"
            fill="#FCFCFC" />
    </g>
    <defs>
        <clipPath id="clip0_9_26648">
            <rect width="22" height="22" fill="white" transform="translate(5 5)" />
        </clipPath>
    </defs>
</svg>
    