<svg xmlns="http://www.w3.org/2000/svg" width="33" height="32" viewBox="0 0 33 32" fill="none">
    <path
        d="M16.5 7L24.75 11.5V20.5L16.5 25L8.25 20.5V11.5L16.5 7ZM16.5 8.89082L9.98684 12.4434V19.5566L16.5 23.1092L23.0132 19.5566V12.4434L16.5 8.89082ZM16.5 19.2727C15.5787 19.2727 14.6952 18.9279 14.0437 18.3142C13.3923 17.7004 13.0263 16.868 13.0263 16C13.0263 15.132 13.3923 14.2996 14.0437 13.6858C14.6952 13.0721 15.5787 12.7273 16.5 12.7273C17.4213 12.7273 18.3048 13.0721 18.9563 13.6858C19.6077 14.2996 19.9737 15.132 19.9737 16C19.9737 16.868 19.6077 17.7004 18.9563 18.3142C18.3048 18.9279 17.4213 19.2727 16.5 19.2727ZM16.5 17.6364C16.9606 17.6364 17.4024 17.464 17.7281 17.1571C18.0539 16.8502 18.2368 16.434 18.2368 16C18.2368 15.566 18.0539 15.1498 17.7281 14.8429C17.4024 14.536 16.9606 14.3636 16.5 14.3636C16.0394 14.3636 15.5976 14.536 15.2719 14.8429C14.9461 15.1498 14.7632 15.566 14.7632 16C14.7632 16.434 14.9461 16.8502 15.2719 17.1571C15.5976 17.464 16.0394 17.6364 16.5 17.6364Z"
        fill="#FCFCFC" stroke="#FCFCFC" stroke-width="0.4" />
</svg>