<svg width="32" height="32" viewBox="0 0 32 32" fill="none" xmlns="http://www.w3.org/2000/svg">
    <path
        d="M16 7L24 11.5V20.5L16 25L8 20.5V11.5L16 7ZM16 8.89082L9.68421 12.4434V19.5566L16 23.1092L22.3158 19.5566V12.4434L16 8.89082ZM16 19.2727C15.1066 19.2727 14.2499 18.9279 13.6182 18.3142C12.9865 17.7004 12.6316 16.868 12.6316 16C12.6316 15.132 12.9865 14.2996 13.6182 13.6858C14.2499 13.0721 15.1066 12.7273 16 12.7273C16.8934 12.7273 17.7501 13.0721 18.3818 13.6858C19.0135 14.2996 19.3684 15.132 19.3684 16C19.3684 16.868 19.0135 17.7004 18.3818 18.3142C17.7501 18.9279 16.8934 19.2727 16 19.2727ZM16 17.6364C16.4467 17.6364 16.8751 17.464 17.1909 17.1571C17.5068 16.8502 17.6842 16.434 17.6842 16C17.6842 15.566 17.5068 15.1498 17.1909 14.8429C16.8751 14.536 16.4467 14.3636 16 14.3636C15.5533 14.3636 15.1249 14.536 14.8091 14.8429C14.4932 15.1498 14.3158 15.566 14.3158 16C14.3158 16.434 14.4932 16.8502 14.8091 17.1571C15.1249 17.464 15.5533 17.6364 16 17.6364Z"
        fill="currentColor" stroke="currentColor" stroke-width="0.4" />

</svg>
    