<svg xmlns="http://www.w3.org/2000/svg" width="32" height="32" viewBox="0 0 32 32" fill="none">
    <path fill-rule="evenodd" clip-rule="evenodd"
        d="M15.5145 5.09708C14.8337 5.38299 14.2608 6.05428 13.674 7.25372C13.3397 7.93706 13.0536 8.70277 12.8338 9.50256C12.6967 10.0013 12.4688 11.0017 12.4688 11.1047C12.4688 11.1321 13.4889 11.1471 15.35 11.1471H18.2312L18.362 10.8677C18.4888 10.597 18.8625 10.1718 19.1566 9.9634L19.2772 9.87796L19.1057 9.29533C18.2063 6.23939 16.776 4.56728 15.5145 5.09708ZM12.958 5.42106C12.121 5.66034 10.8167 6.24245 10.1541 6.67248L9.88494 6.84714L9.88442 7.22249C9.88356 7.86693 9.68422 8.36236 9.25207 8.79402C8.79736 9.24827 8.22483 9.45576 7.55213 9.41003L7.17873 9.38464L6.85261 9.87383C6.55008 10.3276 6.14076 11.0398 6.13913 11.1151C6.13874 11.1331 7.26464 11.1428 8.64117 11.1366L11.144 11.1255L11.2638 10.5418C11.6991 8.41983 12.3051 6.84417 13.2189 5.45763C13.3089 5.32104 13.3081 5.32096 12.958 5.42106ZM18.7811 5.45763C19.2442 6.16037 19.5548 6.75422 19.8441 7.49034C20.0626 8.04637 20.3498 8.91499 20.4588 9.3489L20.5311 9.63722L20.7638 9.68544C21.3622 9.80956 21.9394 10.2601 22.2337 10.8329L22.3949 11.1467L24.1283 11.1469C25.0816 11.147 25.8616 11.1369 25.8616 11.1245C25.8616 11.0692 25.5468 10.49 25.3316 10.1494C24.7619 9.24732 23.8725 8.23717 23.0194 7.5232C22.3074 6.92729 21.3721 6.34712 20.4571 5.93365C20.0943 5.76974 18.8593 5.33933 18.7518 5.33933C18.7227 5.33933 18.7345 5.38699 18.7811 5.45763ZM7.50127 6.41375C7.31597 6.47261 7.11151 6.62632 6.99752 6.79246C6.85291 7.00326 6.82905 7.41294 6.94786 7.64443C7.24289 8.21936 8.00185 8.30707 8.40923 7.81333C8.85739 7.2702 8.51736 6.46852 7.80724 6.39401C7.70652 6.38343 7.56884 6.39233 7.50127 6.41375ZM19.9621 11.0005C19.64 11.14 19.4451 11.4385 19.4451 11.792C19.4451 12.3007 19.8075 12.67 20.3064 12.6697C21.2321 12.6692 21.5188 11.4384 20.6915 11.0167C20.4925 10.9153 20.1751 10.9082 19.9621 11.0005ZM5.53425 12.5484C5.37027 12.9794 5.15702 13.9085 5.05612 14.6317C4.98149 15.1668 4.98123 16.8474 5.05573 17.385C5.14169 18.0053 5.30382 18.7387 5.47272 19.2716L5.62469 19.7511L7.61483 19.7502L9.60502 19.7494L9.74412 19.4535C9.92003 19.0794 10.2304 18.7386 10.5705 18.546L10.8353 18.396L10.814 18.2239C10.7575 17.7685 10.7379 15.074 10.7855 14.309C10.8349 13.5154 10.8978 12.7974 10.9391 12.556L10.9594 12.4377H8.26789H5.57641L5.53425 12.5484ZM12.2388 12.5345C12.2257 12.5877 12.18 12.97 12.1373 13.3841C12.0745 13.9931 12.0597 14.5151 12.0598 16.1159C12.06 18.1932 12.0684 18.2884 12.2492 18.2884C12.2925 18.2884 12.4711 18.3595 12.646 18.4463C13.0667 18.6553 13.4333 19.0248 13.6333 19.4415L13.7822 19.7516L16.7524 19.7406L19.7226 19.7296L19.7547 19.5415C19.9103 18.6308 20.0186 15.4815 19.9321 14.3818L19.8972 13.9384L19.6075 13.8411C19.052 13.6547 18.6183 13.2683 18.3578 12.728L18.2178 12.4377H15.2403H12.2628L12.2388 12.5345ZM22.2519 12.7432C22.0863 13.0957 21.6938 13.5162 21.3733 13.6846C21.1706 13.7911 21.17 13.7921 21.201 13.9642C21.2182 14.0592 21.2318 14.9694 21.2313 15.9868C21.2304 17.753 21.1946 18.4717 21.0541 19.5467L21.0273 19.7511H23.7013H26.3753L26.5291 19.2671C26.6903 18.7599 26.8529 18.0174 26.9461 17.3635C27.0186 16.8545 27.0177 15.1631 26.9447 14.6317C26.8735 14.1143 26.6745 13.2014 26.5415 12.7818L26.4392 12.4592L24.4171 12.4489L22.3949 12.4386L22.2519 12.7432ZM11.4137 19.5449C10.823 19.7511 10.6245 20.4753 11.0291 20.9475C11.4225 21.4066 12.1515 21.3331 12.4593 20.8033C12.5998 20.5615 12.5801 20.138 12.4167 19.8914C12.211 19.5809 11.7585 19.4245 11.4137 19.5449ZM6.22452 21.0758C6.22452 21.1416 6.66851 21.885 6.94614 22.284C7.36089 22.88 7.78188 23.3667 8.38343 23.9456C9.27834 24.8067 10.1046 25.3805 11.2389 25.9288C11.8205 26.2098 13.154 26.702 13.2443 26.6688C13.2638 26.6617 13.1626 26.4719 13.0195 26.2471C12.5094 25.4465 12.0348 24.3407 11.6586 23.0771L11.5016 22.5494L11.2639 22.5012C10.6447 22.3756 10.0474 21.9189 9.77056 21.3593L9.61346 21.0417H7.91899C6.98705 21.0417 6.22452 21.057 6.22452 21.0758ZM13.6298 21.3313C13.4921 21.6106 13.0968 22.0616 12.8615 22.2078L12.7591 22.2714L12.9378 22.8649C13.5517 24.9032 14.4723 26.4086 15.3763 26.8529C15.6369 26.9809 15.7179 27 16.0003 27C16.2828 27 16.3637 26.9809 16.624 26.8529C17.7305 26.3086 18.8202 24.2218 19.4168 21.5042L19.5184 21.0417H16.6454H13.7725L13.6298 21.3313ZM20.7804 21.2891C20.6489 21.9548 20.3282 23.1575 20.1152 23.7837C19.7501 24.8572 19.3151 25.7628 18.7823 26.559C18.7355 26.629 18.723 26.6773 18.7518 26.6773C18.7785 26.6773 19.0956 26.5803 19.4565 26.4616C20.128 26.2408 21.3261 25.6826 21.8403 25.3509L22.1038 25.1809L22.1229 24.6836C22.1413 24.2048 22.1485 24.1731 22.3194 23.8293C22.7367 22.9897 23.5128 22.5431 24.4446 22.6064L24.8149 22.6316L25.0744 22.2561C25.3376 21.8753 25.7754 21.1381 25.7754 21.0758C25.7754 21.057 24.6625 21.0417 23.3023 21.0417H20.8292L20.7804 21.2891ZM23.9237 23.9495C23.571 24.1019 23.3288 24.5189 23.3899 24.8686C23.4662 25.3049 23.8377 25.6231 24.2676 25.6204C24.7686 25.6173 25.1295 25.2491 25.1295 24.7411C25.1295 24.1225 24.492 23.704 23.9237 23.9495Z"
        fill="white" />
</svg>