<svg width="16" height="16" viewBox="0 0 16 16" fill="none" xmlns="http://www.w3.org/2000/svg">
    <g clip-path="url(#clip0_9_20231)">
        <path
            d="M11.543 13.2093C11.6581 13.1308 11.7374 13.0097 11.7633 12.8728C11.7891 12.7358 11.7596 12.5942 11.681 12.4791C11.6025 12.3639 11.4815 12.2847 11.3445 12.2588C11.2076 12.2329 11.0659 12.2625 10.9508 12.341C9.98135 13 8.81926 13.3156 7.64965 13.2376C6.48003 13.1595 5.37019 12.6923 4.49693 11.9103C3.62367 11.1283 3.03724 10.0766 2.83107 8.92262C2.6249 7.76868 2.81084 6.57893 3.35929 5.54293C3.90773 4.50693 4.78711 3.68427 5.85733 3.20603C6.92755 2.7278 8.12704 2.62148 9.26469 2.90404C10.4023 3.18659 11.4127 3.84175 12.1348 4.76514C12.8569 5.68853 13.2492 6.82703 13.2492 7.99924C13.2492 8.13848 13.3008 7.90135 13.3992 7.9998C13.4977 8.09826 13.635 8.52424 13.7742 8.52424C13.9135 8.52424 14.047 8.46893 14.1455 8.37047C14.2439 8.27202 14.2992 8.13848 14.2992 7.99924C14.2991 6.59256 13.8282 5.2264 12.9615 4.1184C12.0949 3.0104 10.8824 2.22432 9.51712 1.8854C8.15189 1.54648 6.7125 1.67422 5.42828 2.24827C4.14406 2.82231 3.08891 3.80964 2.43093 5.05294C1.77294 6.29624 1.54999 7.72398 1.79759 9.1087C2.04518 10.4934 2.74908 11.7554 3.79714 12.6937C4.8452 13.6319 6.17712 14.1924 7.58069 14.2859C8.98426 14.3793 10.3787 14.0004 11.5419 13.2093"
            fill="currentCOlor" />
        <path
            d="M11.543 13.2093C11.6581 13.1308 11.7374 13.0097 11.7633 12.8728C11.7891 12.7358 11.7596 12.5942 11.681 12.4791C11.6025 12.3639 11.4815 12.2847 11.3445 12.2588C11.2076 12.2329 11.0659 12.2625 10.9508 12.341C9.98135 13 8.81926 13.3156 7.64965 13.2376C6.48003 13.1595 5.37019 12.6923 4.49693 11.9103C3.62367 11.1283 3.03724 10.0766 2.83107 8.92262C2.6249 7.76868 2.81084 6.57893 3.35929 5.54293C3.90773 4.50693 4.78711 3.68427 5.85733 3.20603C6.92755 2.7278 8.12704 2.62148 9.26469 2.90404C10.4023 3.18659 11.4127 3.84175 12.1348 4.76514C12.8569 5.68853 13.2492 6.82703 13.2492 7.99924C13.2492 8.13848 13.3008 7.90135 13.3992 7.9998C13.4977 8.09826 13.635 8.52424 13.7742 8.52424C13.9135 8.52424 14.047 8.46893 14.1455 8.37047C14.2439 8.27202 14.2992 8.13848 14.2992 7.99924C14.2991 6.59256 13.8282 5.2264 12.9615 4.1184C12.0949 3.0104 10.8824 2.22432 9.51712 1.8854C8.15189 1.54648 6.7125 1.67422 5.42828 2.24827C4.14406 2.82231 3.08891 3.80964 2.43093 5.05294C1.77294 6.29624 1.54999 7.72398 1.79759 9.1087C2.04518 10.4934 2.74908 11.7554 3.79714 12.6937C4.8452 13.6319 6.17712 14.1924 7.58069 14.2859C8.98426 14.3793 10.3787 14.0004 11.5419 13.2093"
            stroke="currentCOlor" stroke-width="0.25" />
        <path
            d="M12.2843 6.85655C12.2535 6.83451 12.2186 6.81884 12.1817 6.81046C12.1447 6.80208 12.1065 6.80117 12.0692 6.80778C12.0319 6.81438 11.9963 6.82837 11.9645 6.84892C11.9327 6.86948 11.9054 6.89618 11.884 6.92746C11.8627 6.95874 11.8478 6.99397 11.8403 7.03108C11.8327 7.06819 11.8327 7.10643 11.8401 7.14356C11.8476 7.18068 11.8624 7.21595 11.8836 7.24728C11.9049 7.27861 11.9322 7.30537 11.964 7.326L13.9053 8.64938C13.9361 8.67143 13.971 8.6871 14.0079 8.69547C14.0449 8.70385 14.0831 8.70476 14.1204 8.69816C14.1577 8.69155 14.1933 8.67756 14.2251 8.65701C14.2569 8.63646 14.2843 8.60976 14.3056 8.57848C14.3269 8.5472 14.3418 8.51197 14.3494 8.47486C14.3569 8.43775 14.3569 8.3995 14.3495 8.36238C14.342 8.32525 14.3272 8.28999 14.306 8.25866C14.2847 8.22733 14.2574 8.20056 14.2256 8.17994L12.2843 6.85655Z"
            fill="currentCOlor" stroke="currentCOlor" stroke-width="0.5" />
        <path
            d="M15.2317 6.64197C15.2619 6.57442 15.2646 6.49774 15.2391 6.42824C15.2137 6.35874 15.1622 6.3019 15.0955 6.2698C15.0288 6.23771 14.9523 6.23288 14.8821 6.25635C14.8119 6.27983 14.7536 6.32975 14.7197 6.3955L13.806 8.29088C13.7897 8.32453 13.7803 8.36105 13.7782 8.39835C13.7761 8.43565 13.7814 8.473 13.7937 8.50827C13.806 8.54353 13.8252 8.57603 13.85 8.60389C13.8749 8.63176 13.9051 8.65445 13.9387 8.67067C13.9724 8.68689 14.0089 8.69633 14.0462 8.69844C14.0835 8.70054 14.1208 8.69528 14.1561 8.68296C14.1914 8.67063 14.2239 8.65148 14.2517 8.6266C14.2796 8.60171 14.3023 8.57158 14.3185 8.53793L15.2317 6.64197Z"
            fill="currentCOlor" stroke="currentCOlor" stroke-width="0.5" />
        <path
            d="M7.14684 6.59091V9.5H6.61985V7.10369H6.60281L5.92241 7.53835V7.0554L6.64542 6.59091H7.14684ZM8.96076 9.5554C8.72686 9.5554 8.5261 9.49621 8.35849 9.37784C8.19182 9.25852 8.06351 9.08665 7.97354 8.86222C7.88453 8.63684 7.84002 8.36553 7.84002 8.0483C7.84097 7.73106 7.88595 7.46117 7.97496 7.23864C8.06493 7.01515 8.19324 6.8447 8.35991 6.72727C8.52752 6.60985 8.72781 6.55114 8.96076 6.55114C9.19371 6.55114 9.394 6.60985 9.56161 6.72727C9.72923 6.8447 9.85754 7.01515 9.94656 7.23864C10.0365 7.46212 10.0815 7.73201 10.0815 8.0483C10.0815 8.36648 10.0365 8.63826 9.94656 8.86364C9.85754 9.08807 9.72923 9.25947 9.56161 9.37784C9.39495 9.49621 9.19466 9.5554 8.96076 9.5554ZM8.96076 9.1108C9.14258 9.1108 9.28604 9.02131 9.39116 8.84233C9.49722 8.66241 9.55025 8.39773 9.55025 8.0483C9.55025 7.81723 9.5261 7.62311 9.47781 7.46591C9.42951 7.30871 9.36133 7.19034 9.27326 7.1108C9.18519 7.0303 9.08103 6.99006 8.96076 6.99006C8.77989 6.99006 8.6369 7.08002 8.53178 7.25994C8.42667 7.43892 8.37364 7.7017 8.37269 8.0483C8.37174 8.2803 8.39495 8.47538 8.44229 8.63352C8.49059 8.79167 8.55877 8.91098 8.64684 8.99148C8.73491 9.07102 8.83955 9.1108 8.96076 9.1108Z"
            fill="currentCOlor" />
    </g>
    <defs>
        <clipPath id="clip0_9_20231">
            <rect width="16" height="16" fill="white" />
        </clipPath>
    </defs>
</svg>
    